<svg width="40" height="40" viewBox="0 0 40 40" fill="none" xmlns="http://www.w3.org/2000/svg">
<path d="M39.8518 20.034C39.8518 30.9835 30.9655 39.8615 20.0029 39.8615C9.04141 39.8615 0.158203 30.9835 0.158203 20.034C0.158203 11.6293 5.38954 4.44878 12.7776 1.5631C15.0099 0.662592 17.4487 0.165283 20.0034 0.165283C22.5614 0.165283 24.998 0.662089 27.2324 1.5631C34.6201 4.44878 39.8518 11.6293 39.8518 20.034ZM12.375 15.8524C12.375 19.1938 14.087 22.0867 16.5757 23.5028C17.6079 24.0901 18.77 24.4288 20.0029 24.4288C21.1926 24.4288 22.3142 24.112 23.3193 23.5647C25.8669 22.1757 27.6341 19.2474 27.6341 15.853C27.6341 11.1268 24.2116 7.27977 20.003 7.27977C15.797 7.27927 12.375 11.1263 12.375 15.8524ZM20.0836 38.5766C25.8819 38.5766 31.0544 35.91 34.4447 31.7368C34.0442 28.4449 30.8364 25.6425 26.2966 24.2446C24.5819 25.7871 22.3913 26.7152 20.0024 26.7152C17.5605 26.7152 15.3252 25.7372 13.5938 24.1276C9.17769 25.388 5.94299 27.959 5.18456 31.0397C8.54877 35.6098 13.971 38.5766 20.0836 38.5766Z" fill="#A2AEBF"/>
</svg>
