<svg width="33" height="33" viewBox="0 0 33 33" fill="none" xmlns="http://www.w3.org/2000/svg">
<rect x="0.554688" y="0.741211" width="32" height="32" rx="16" fill="#EFF4FF"/>
<g clip-path="url(#clip0_22118_31989)">
<path fill-rule="evenodd" clip-rule="evenodd" d="M23.3573 17.5823L16.1606 10.6985C15.9628 10.5093 15.6884 10.4122 15.4095 10.4327L10.3755 10.8031C9.90426 10.8378 9.52979 11.196 9.49354 11.6468L9.10631 16.4618C9.08486 16.7286 9.18636 16.9911 9.38418 17.1803L16.5809 24.0641C16.9551 24.4221 17.5619 24.4221 17.9362 24.0641L23.3573 18.8787C23.7316 18.5207 23.7316 17.9403 23.3573 17.5823ZM7.19529 16.3212C7.13092 17.1217 7.43543 17.909 8.02889 18.4767L15.2256 25.3605C16.3484 26.4344 18.1687 26.4344 19.2915 25.3605L24.7126 20.175C25.8354 19.1011 25.8354 17.3599 24.7126 16.286L17.5159 9.40215C16.9224 8.83448 16.0993 8.54322 15.2625 8.60479L10.2285 8.97518C8.81468 9.07921 7.69127 10.1538 7.58252 11.5062L7.19529 16.3212Z" fill="#3467FF"/>
<path d="M13.87 13.0453C14.4314 13.5823 14.4314 14.4529 13.87 14.9899C13.3086 15.5268 12.3984 15.5268 11.837 14.9899C11.2757 14.4529 11.2757 13.5823 11.837 13.0453C12.3984 12.5083 13.3086 12.5083 13.87 13.0453Z" fill="#3467FF"/>
<path d="M17.9723 16.6205L17.9723 16.6204L17.9709 16.6192C17.4118 16.1275 16.598 16.2091 15.8952 16.6909L15.2847 16.1072L15.2847 16.1072L15.2845 16.1071L15.2122 16.0379L15.14 16.1071L14.605 16.6188L14.5327 16.688L14.605 16.7571L15.2085 17.3341C14.9435 17.6666 14.7792 18.019 14.7503 18.3636C14.7191 18.7358 14.8467 19.0909 15.1586 19.3892C15.4806 19.6973 15.8896 19.8153 16.3211 19.7579C16.7492 19.701 17.1941 19.4725 17.6022 19.0984L17.6022 19.0984L17.603 19.0977L17.7078 18.9996C17.9619 18.7678 18.189 18.6439 18.3709 18.6006C18.5505 18.5577 18.6786 18.5939 18.7602 18.672C18.8526 18.7603 18.8863 18.8924 18.8299 19.0737C18.7726 19.2579 18.6239 19.4825 18.3676 19.7276C18.118 19.9664 17.8757 20.1018 17.677 20.1544C17.4762 20.2077 17.3376 20.1735 17.2638 20.103L17.1916 20.0338L17.1193 20.103L16.5843 20.6147L16.5107 20.6851L16.5856 20.7542L16.6253 20.7908L16.6253 20.7908L16.6271 20.7924C17.1932 21.2901 18.0207 21.2001 18.7297 20.7025L19.3485 21.2943L19.4207 21.3635L19.493 21.2943L20.028 20.7826L20.1003 20.7135L20.028 20.6443L19.4095 20.0524C19.6663 19.7231 19.8239 19.375 19.849 19.0348C19.8762 18.6673 19.7478 18.317 19.4398 18.0224C19.1103 17.7072 18.6902 17.5911 18.2485 17.6577C17.8103 17.7237 17.356 17.968 16.9423 18.3636L16.8909 18.4112C16.8908 18.4113 16.8907 18.4114 16.8906 18.4115C16.6366 18.6435 16.4095 18.7675 16.2275 18.8109C16.0478 18.8538 15.9198 18.8177 15.8381 18.7396C15.7457 18.6511 15.712 18.5192 15.7684 18.3379C15.8256 18.1538 15.9743 17.9292 16.2307 17.684C16.4805 17.4451 16.7228 17.3096 16.9214 17.2569C17.1221 17.2037 17.2606 17.2379 17.3343 17.3085L17.4066 17.3776L17.4789 17.3085L18.0139 16.7967L18.0878 16.726L18.0122 16.6569L17.9723 16.6205Z" fill="#3467FF" stroke="#3467FF" stroke-width="0.2"/>
</g>
<defs>
<clipPath id="clip0_22118_31989">
<rect width="21" height="20" fill="white" transform="matrix(-1 0 0 1 26.8477 6.33691)"/>
</clipPath>
</defs>
</svg>
