<svg width="33" height="33" viewBox="0 0 33 33" fill="none" xmlns="http://www.w3.org/2000/svg">
<rect x="0.554688" y="0.741211" width="32" height="32" rx="16" fill="#EFF4FF"/>
<g clip-path="url(#clip0_22118_32053)">
<path d="M20.2579 12.8561C20.2579 14.5519 18.7993 15.9915 16.918 15.9915C15.0367 15.9915 13.5781 14.5519 13.5781 12.8561C13.5781 11.1602 15.0367 9.7207 16.918 9.7207C18.7993 9.7207 20.2579 11.1602 20.2579 12.8561Z" stroke="#3467FF" stroke-width="1.5"/>
<g clip-path="url(#clip1_22118_32053)">
<path d="M10.1023 18.7131C10.1747 18.7131 10.2415 18.6919 10.2999 18.647C10.3472 18.61 11.5018 17.7615 11.9637 17.0717C12.1167 16.8444 12.3281 16.5351 12.3281 16.0964C12.3281 15.3642 11.7522 14.7695 11.0483 14.7695C10.6894 14.7695 10.3472 14.9255 10.1023 15.1977C9.86029 14.9228 9.52086 14.7695 9.15917 14.7695C8.45249 14.7695 7.87935 15.3642 7.87935 16.0964C7.87935 16.5272 8.07689 16.8232 8.23826 17.0638L8.24382 17.0717C8.70567 17.7615 9.86029 18.6126 9.90759 18.647C9.96323 18.6893 10.03 18.7131 10.1023 18.7131Z" fill="#3467FF"/>
</g>
<path d="M23.7345 24.5118C23.7345 20.9354 20.6826 18.0361 16.918 18.0361C13.1534 18.0361 10.1016 20.9354 10.1016 24.5118" stroke="#3467FF" stroke-width="1.5" stroke-linecap="round"/>
</g>
<defs>
<clipPath id="clip0_22118_32053">
<rect width="20" height="19" fill="white" transform="matrix(-1 0 0 1 26.5547 6.24121)"/>
</clipPath>
<clipPath id="clip1_22118_32053">
<rect width="5.45316" height="5.1805" fill="white" transform="matrix(-1 0 0 1 12.8281 14.1514)"/>
</clipPath>
</defs>
</svg>
