<svg width="32" height="32" viewBox="0 0 32 32" fill="none" xmlns="http://www.w3.org/2000/svg">
<g id="UI icon/note/filled">
<path id="Rectangle 193 (Stroke)" fill-rule="evenodd" clip-rule="evenodd" d="M8 5.33366C7.26362 5.33366 6.66667 5.93061 6.66667 6.66699V25.3337C6.66667 26.07 7.26362 26.667 8 26.667H24C24.7364 26.667 25.3333 26.07 25.3333 25.3337V16.0003C25.3333 15.2639 25.9303 14.667 26.6667 14.667C27.403 14.667 28 15.2639 28 16.0003V25.3337C28 27.5428 26.2091 29.3337 24 29.3337H8C5.79086 29.3337 4 27.5428 4 25.3337V6.66699C4 4.45785 5.79086 2.66699 8 2.66699H16C16.7364 2.66699 17.3333 3.26395 17.3333 4.00033C17.3333 4.73671 16.7364 5.33366 16 5.33366H8Z" fill="white"/>
<g id="Union">
<path d="M25.9945 5.02319C24.6927 3.72144 22.5822 3.72144 21.2804 5.02319L20.3376 5.96599C20.0773 6.22634 20.0773 6.64845 20.3376 6.9088L25.0516 11.6228C25.312 11.8832 25.7341 11.8832 25.9945 11.6228L26.9373 10.68C28.239 9.37829 28.239 7.26774 26.9373 5.96599L25.9945 5.02319Z" fill="white"/>
<path d="M18.4519 8.79443C18.1916 8.53408 17.7695 8.53408 17.5091 8.79443L10.7523 15.5512C10.5483 15.7552 10.416 16.0199 10.3752 16.3055L9.74667 20.7052C9.62096 21.5852 10.3752 22.3395 11.2552 22.2137L15.6549 21.5852C15.9405 21.5444 16.2052 21.4121 16.4092 21.2081L23.166 14.4513C23.4263 14.1909 23.4263 13.7688 23.166 13.5085L18.4519 8.79443Z" fill="white"/>
</g>
</g>
</svg>
