<svg width="8" height="14" viewBox="0 0 8 14" fill="none" xmlns="http://www.w3.org/2000/svg">
<path d="M7.3782 1.52012C7.48802 1.4063 7.55175 1.25097 7.55571 1.08747C7.55967 0.923969 7.50354 0.765324 7.39937 0.645576C7.29521 0.525829 7.1513 0.454522 6.99853 0.446958C6.84576 0.439394 6.69631 0.496176 6.58224 0.605117L0.738223 6.41949C0.680186 6.47724 0.633742 6.54701 0.601716 6.62457C0.569689 6.70212 0.552751 6.78583 0.551931 6.8706C0.55111 6.95538 0.566426 7.03945 0.596945 7.11769C0.627464 7.19593 0.67255 7.26672 0.729458 7.32574L6.57347 13.3864C6.62844 13.4442 6.69356 13.4899 6.7651 13.5207C6.83664 13.5515 6.91318 13.5669 6.9903 13.5659C7.06742 13.565 7.1436 13.5477 7.21444 13.5151C7.28529 13.4825 7.3494 13.4352 7.40308 13.376C7.45676 13.3168 7.49895 13.2468 7.52722 13.17C7.55548 13.0933 7.56926 13.0113 7.56776 12.9288C7.56626 12.8464 7.54951 12.765 7.51848 12.6895C7.48745 12.614 7.44275 12.5458 7.38696 12.4889L1.98475 6.88637L7.37878 1.52012L7.3782 1.52012Z" fill="black"/>
</svg>
