<svg width="13" height="12" viewBox="0 0 13 12" fill="none" xmlns="http://www.w3.org/2000/svg">
<path d="M6.41162 0.96875C3.50303 0.96875 1.16162 3.01719 1.16162 5.54258C1.16162 7.09766 2.05811 8.46992 3.41162 9.31133V10.7199C3.41162 10.9027 3.53936 11.0305 3.70459 11.0305C3.75967 11.0305 3.81475 11.0117 3.85107 10.9941L5.27725 10.0426C5.64287 10.1152 6.0085 10.134 6.39287 10.134C9.30264 10.134 11.644 8.08555 11.644 5.56016C11.6616 3.01719 9.30264 0.96875 6.41162 0.96875ZM4.05147 6.29258C3.70342 6.29258 3.4292 5.99961 3.4292 5.67031C3.4292 5.32227 3.72217 5.04805 4.05147 5.04805C4.39951 5.04805 4.67373 5.34102 4.67373 5.67031C4.69131 5.99961 4.39951 6.29258 4.05147 6.29258ZM6.44795 6.29258C6.0999 6.29258 5.82568 5.99961 5.82568 5.67031C5.82568 5.32227 6.11865 5.04805 6.44795 5.04805C6.796 5.04805 7.07022 5.34102 7.07022 5.67031C7.07022 5.99961 6.77725 6.29258 6.44795 6.29258ZM8.75303 6.29258C8.40498 6.29258 8.13076 5.99961 8.13076 5.67031C8.13076 5.32227 8.42373 5.04805 8.75303 5.04805C9.10107 5.04805 9.37529 5.34102 9.37529 5.67031C9.37529 5.99961 9.10107 6.29258 8.75303 6.29258Z" fill="#3467FF"/>
</svg>
