<svg width="24" height="24" viewBox="0 0 24 24" fill="none" xmlns="http://www.w3.org/2000/svg">
<path fill-rule="evenodd" clip-rule="evenodd" d="M12.0486 14C13.1488 14 14.0407 13.1046 14.0407 12C14.0407 10.8954 13.1488 10 12.0486 10C10.9484 10 10.0565 10.8954 10.0565 12C10.0565 13.1046 10.9484 14 12.0486 14ZM16.0328 12C16.0328 14.2091 14.249 16 12.0486 16C9.84824 16 8.06445 14.2091 8.06445 12C8.06445 9.79086 9.84824 8 12.0486 8C14.249 8 16.0328 9.79086 16.0328 12Z" fill="#666666"/>
<path fill-rule="evenodd" clip-rule="evenodd" d="M11.4287 3.00098L11.0427 4.16364C10.6692 5.28854 9.855 6.07123 9.02457 6.53545C8.96551 6.56846 8.90703 6.60243 8.84914 6.63731C8.0324 7.12957 6.94857 7.44709 5.79009 7.20908L4.59307 6.96316L4.99244 5.00376L6.18947 5.24969C6.75251 5.36536 7.33107 5.21955 7.82381 4.92257C7.90023 4.87652 7.97745 4.83167 8.05546 4.78806C8.55698 4.5077 8.97131 4.07791 9.15284 3.53118L9.53886 2.36852C9.81001 1.55184 10.5713 1.00098 11.4287 1.00098H12.6658C13.5232 1.00098 14.2845 1.55184 14.5556 2.36852L14.9417 3.53118C15.1232 4.07791 15.5375 4.5077 16.039 4.78806C16.117 4.83167 16.1943 4.87651 16.2707 4.92257C16.7634 5.21954 17.342 5.36536 17.905 5.24968L19.102 5.00376C19.9421 4.83118 20.7979 5.21763 21.2266 5.96316L21.8451 7.03873C22.2738 7.78426 22.1793 8.72157 21.6104 9.36567L20.7986 10.2847C20.4182 10.7154 20.2538 11.2898 20.2629 11.8654C20.2644 11.9557 20.2644 12.0462 20.2629 12.1366C20.2538 12.7121 20.4182 13.2865 20.7986 13.7172L21.6104 14.6362C22.1793 15.2803 22.2738 16.2176 21.8451 16.9632L21.2266 18.0387C20.7979 18.7843 19.9421 19.1707 19.102 18.9981L17.9051 18.7522C17.3421 18.6365 16.7635 18.7824 16.2707 19.0793C16.1943 19.1254 16.1171 19.1703 16.039 19.2139C15.5375 19.4943 15.1232 19.924 14.9417 20.4708L14.5556 21.6334C14.2845 22.4501 13.5232 23.001 12.6658 23.001H11.4287C10.5713 23.001 9.81001 22.4501 9.53886 21.6334L9.15284 20.4708C8.97131 19.924 8.55698 19.4943 8.05546 19.2139C7.97743 19.1703 7.90019 19.1254 7.82375 19.0793C7.331 18.7824 6.75244 18.6365 6.18939 18.7522L4.99244 18.9981C4.15239 19.1707 3.29659 18.7843 2.86786 18.0387L2.24934 16.9632C1.82061 16.2176 1.91515 15.2803 2.48405 14.6362L3.97454 15.9632L4.59307 17.0387L5.79001 16.7928C6.9485 16.5548 8.03235 16.8723 8.84909 17.3646C8.907 17.3995 8.9655 17.4335 9.02457 17.4665C9.855 17.9307 10.6692 18.7134 11.0427 19.8383L11.4287 21.001L12.6658 21.001L13.0518 19.8383C13.4253 18.7134 14.2395 17.9307 15.0699 17.4665C15.129 17.4335 15.1875 17.3995 15.2454 17.3646C16.0622 16.8723 17.146 16.5548 18.3045 16.7928L19.5014 17.0387L20.1199 15.9632L19.3082 15.0441C18.5265 14.1591 18.256 13.0616 18.2711 12.1049C18.2722 12.0356 18.2722 11.9663 18.2711 11.8971C18.256 10.9403 18.5265 9.84278 19.3082 8.95779L20.1199 8.03873L19.5014 6.96316L18.3044 7.20908C17.1459 7.44708 16.0621 7.12956 15.2454 6.63731C15.1875 6.60242 15.129 6.56846 15.0699 6.53545C14.2395 6.07123 13.4253 5.28853 13.0518 4.16364L12.6658 3.00098L11.4287 3.00098ZM2.48405 14.6362L3.97454 15.9632L4.78634 15.044C5.568 14.1591 5.83852 13.0615 5.82342 12.1048C5.82233 12.0356 5.82233 11.9663 5.82342 11.8971C5.83852 10.9404 5.56801 9.84283 4.78635 8.95785L3.97454 8.03873L4.59307 6.96316L4.99244 5.00376C4.15239 4.83118 3.29659 5.21763 2.86786 5.96316L2.24934 7.03873C1.82061 7.78426 1.91515 8.72157 2.48405 9.36567L3.29586 10.2848C3.67626 10.7155 3.84066 11.2898 3.83158 11.8654C3.83015 11.9557 3.83015 12.0462 3.83158 12.1365C3.84066 12.7121 3.67626 13.2864 3.29585 13.7171L2.48405 14.6362Z" fill="#666666"/>
</svg>
