<svg width="20" height="14" viewBox="0 0 20 14" fill="none" xmlns="http://www.w3.org/2000/svg">
<path d="M1.47173 5.96942L1.61309 8.57824C1.61863 8.73092 1.63249 8.83049 1.65466 8.87696C1.67683 8.92342 1.72672 8.97321 1.80433 9.02632L2.2367 9.37482L2.20344 10.2112H0.0415743L0 9.12589L0.449003 8.99644L0.482263 5.07326C0.482263 4.94713 0.473948 4.86083 0.457318 4.81437C0.440688 4.7679 0.401886 4.71479 0.34091 4.65505L0.0332595 4.37624L0.0914636 3.5H1.81264L4.32373 7.35349L4.20733 5.133C4.20178 4.97368 4.18792 4.87079 4.16575 4.82432C4.14358 4.77786 4.09369 4.72807 4.01608 4.67496L3.58371 4.33642L3.60865 3.5H5.75389L5.78715 4.51565L5.36309 4.73471L5.32983 10.1216L4.37362 10.5L1.47173 5.96942Z" fill="#2AD4AC"/>
<path d="M6.2116 9.19559L6.81859 8.99644V5.18279C6.81859 5.01019 6.8075 4.89734 6.78533 4.84424C6.76315 4.78449 6.70495 4.73139 6.61071 4.68492L6.19497 4.39616L6.21991 3.5H10.7349C10.7737 4.19701 10.7931 4.87743 10.7931 5.54125L10.1778 5.59104L9.58744 4.71479L8.33189 4.67496V6.29801L10.103 6.11878V7.6522L8.33189 7.42319V9.02632L9.71216 8.99644L10.3524 8.1202L10.9677 8.16999C10.9455 8.867 10.904 9.54742 10.843 10.2112H6.25317L6.2116 9.19559Z" fill="#2AD4AC"/>
<path d="M11.577 4.66501L11.2943 4.19701L11.3276 3.5H13.714L13.7638 4.44595L13.1652 4.63514L14.1962 8.48862L15.0194 5.42176L14.6535 4.13727L14.6868 3.5H16.8986L16.9484 4.44595L16.3997 4.63514L17.4224 8.48862L18.3786 4.96373C18.3952 4.91062 18.4035 4.86415 18.4035 4.82432C18.4035 4.73803 18.3675 4.6816 18.2955 4.65505L17.73 4.37624L17.7799 3.5H19.9584L20 4.34637L19.6591 4.90398L17.913 10.2511L16.4579 10.4203L15.5848 7.3734L14.6868 10.2511L13.1485 10.4203L11.577 4.66501Z" fill="#2AD4AC"/>
</svg>
