<svg width="20" height="20" viewBox="0 0 20 20" fill="none" xmlns="http://www.w3.org/2000/svg">
<path fill-rule="evenodd" clip-rule="evenodd" d="M15.4 5.2H4.6C4.37909 5.2 4.2 5.37909 4.2 5.6V14.4C4.2 14.6209 4.37909 14.8 4.6 14.8H15.4C15.6209 14.8 15.8 14.6209 15.8 14.4V5.6C15.8 5.37909 15.6209 5.2 15.4 5.2ZM4.6 4C3.71634 4 3 4.71635 3 5.6V14.4C3 15.2837 3.71635 16 4.6 16H15.4C16.2837 16 17 15.2837 17 14.4V5.6C17 4.71634 16.2837 4 15.4 4H4.6Z" fill="#999999"/>
<path fill-rule="evenodd" clip-rule="evenodd" d="M7.04369 9.29015L3.70792 12.1308L3.11719 11.2982L6.45296 8.4575C7.32446 7.71535 8.57284 7.84567 9.30072 8.75478L14.4802 15.2238L13.7566 15.9193L8.5771 9.45023C8.18516 8.96071 7.51295 8.89053 7.04369 9.29015Z" fill="#999999"/>
<path fill-rule="evenodd" clip-rule="evenodd" d="M12.6401 11.6957L11.5667 12.8073L10.9055 12.0408L11.9789 10.9293C12.8338 10.0441 14.1873 10.1081 14.9693 11.0706L16.9486 13.5067L16.2296 14.2079L14.2503 11.7718C13.8292 11.2535 13.1004 11.2191 12.6401 11.6957Z" fill="#999999"/>
<path fill-rule="evenodd" clip-rule="evenodd" d="M3.68957 12.2778L2.98267 11.2814L6.38812 8.38136C7.30386 7.60153 8.61671 7.74046 9.37879 8.69228L11.4736 11.3086L11.907 10.8598C12.8041 9.93084 14.2276 9.99914 15.047 11.0076L17.0838 13.5145L16.221 14.3559L14.1727 11.8349C13.7889 11.3625 13.1301 11.3323 12.7121 11.7652L12.2348 12.2594L14.6154 15.2326L13.747 16.0672L8.49904 9.51272C8.14129 9.0659 7.53355 9.00434 7.10852 9.36628L3.68957 12.2778ZM12.1018 12.2532L12.6401 11.6957C13.1004 11.2191 13.8292 11.2535 14.2504 11.7718L16.2296 14.2079L16.9486 13.5067L14.9693 11.0706C14.1873 10.1081 12.8338 10.0441 11.9789 10.9293L11.4666 11.4599L9.30072 8.75478C8.57284 7.84567 7.32446 7.71534 6.45296 8.45749L3.11719 11.2982L3.70792 12.1308L7.04369 9.29014C7.51295 8.89053 8.18516 8.9607 8.5771 9.45022L13.7566 15.9193L14.4802 15.2238L12.1018 12.2532Z" fill="#999999"/>
</svg>
