<svg width="10" height="10" viewBox="0 0 10 10" fill="none" xmlns="http://www.w3.org/2000/svg">
<g id="UI icon/document/light">
<path id="Vector 492 (Stroke)" fill-rule="evenodd" clip-rule="evenodd" d="M2.91675 3.33268C2.91675 3.10256 3.1033 2.91602 3.33341 2.91602H6.66675C6.89687 2.91602 7.08341 3.10256 7.08341 3.33268C7.08341 3.5628 6.89687 3.74935 6.66675 3.74935H3.33341C3.1033 3.74935 2.91675 3.5628 2.91675 3.33268Z" fill="white"/>
<path id="Vector 493 (Stroke)" fill-rule="evenodd" clip-rule="evenodd" d="M2.91675 5.00065C2.91675 4.77053 3.1033 4.58398 3.33341 4.58398H5.00008C5.2302 4.58398 5.41675 4.77053 5.41675 5.00065C5.41675 5.23077 5.2302 5.41732 5.00008 5.41732H3.33341C3.1033 5.41732 2.91675 5.23077 2.91675 5.00065Z" fill="white"/>
<path id="Subtract" fill-rule="evenodd" clip-rule="evenodd" d="M2.5 1.66634H7.5C7.73012 1.66634 7.91667 1.85289 7.91667 2.08301V5.07175C8.21683 5.14266 8.49769 5.26351 8.75 5.42506V2.08301C8.75 1.39265 8.19036 0.833008 7.5 0.833008H2.5C1.80964 0.833008 1.25 1.39265 1.25 2.08301V7.91634C1.25 8.6067 1.80964 9.16634 2.5 9.16634H5.0093C4.84771 8.91404 4.7268 8.63318 4.65585 8.33301H2.5C2.26988 8.33301 2.08333 8.14646 2.08333 7.91634V2.08301C2.08333 1.85289 2.26988 1.66634 2.5 1.66634Z" fill="white"/>
<circle id="Ellipse 299" cx="7.29167" cy="7.70768" r="1.97917" stroke="white" stroke-width="0.625"/>
<path id="Union" fill-rule="evenodd" clip-rule="evenodd" d="M6.3454 7.46007C6.22211 7.57754 6.21739 7.77271 6.33486 7.89599L6.88043 8.46859C7.01606 8.61093 7.24229 8.61366 7.38131 8.47464L8.38233 7.47362C8.50274 7.35321 8.50274 7.15799 8.38233 7.03757C8.26191 6.91716 8.06669 6.91716 7.94628 7.03757L7.13844 7.84541L6.78132 7.47061C6.66385 7.34732 6.46868 7.3426 6.3454 7.46007Z" fill="white"/>
</g>
</svg>
