<svg width="16" height="16" viewBox="0 0 16 16" fill="none" xmlns="http://www.w3.org/2000/svg">
<rect width="4" height="4" transform="matrix(-1 0 0 1 7 3)" fill="#3467FF"/>
<rect width="4" height="4" transform="matrix(-1 0 0 1 7 9)" fill="#3467FF"/>
<rect width="4" height="4" rx="1" transform="matrix(-1 0 0 1 13 9)" fill="#3467FF"/>
<rect width="4" height="4" transform="matrix(-1 0 0 1 13 3)" fill="#3467FF"/>
<path d="M12.5844 7.41796H9.43713C8.81198 7.41796 8.3018 6.90778 8.3018 6.28263V3.13533C8.3018 2.51018 8.81198 2 9.43713 2H12.5844C13.2096 2 13.7198 2.51018 13.7198 3.13533V6.28263C13.7198 6.90778 13.2096 7.41796 12.5844 7.41796ZM12.491 3.22156H9.52335V6.19641H12.491V3.22156ZM11.0108 8.01437C12.6635 8.01437 14 9.35808 14 11.0036C14 12.6491 12.6563 13.9928 11.0108 13.9928C9.35808 13.9928 8.02156 12.6491 8.02156 11.0036C8.02156 9.35808 9.35808 8.01437 11.0108 8.01437ZM11.0108 12.8647C12.0383 12.8647 12.8719 12.0311 12.8719 11.0036C12.8719 9.97605 12.0383 9.14251 11.0108 9.14251C9.98323 9.14251 9.1497 9.97605 9.1497 11.0036C9.1497 12.0311 9.98323 12.8647 11.0108 12.8647ZM6.28263 13.7198H3.13533C2.51018 13.7198 2 13.2096 2 12.5844V9.43713C2 8.81198 2.51018 8.3018 3.13533 8.3018H6.28263C6.90778 8.3018 7.41796 8.81198 7.41796 9.43713V12.5844C7.42515 13.2096 6.91497 13.7198 6.28263 13.7198ZM6.19641 9.51617H3.22874V12.491H6.20359V9.51617H6.19641ZM6.28263 7.41796H3.13533C2.51018 7.41796 2 6.90778 2 6.28263V3.13533C2 2.51018 2.51018 2 3.13533 2H6.28263C6.90778 2 7.41796 2.51018 7.41796 3.13533V6.28263C7.42515 6.90778 6.91497 7.41796 6.28263 7.41796ZM6.19641 3.22156H3.22874V6.19641H6.20359V3.22156H6.19641Z" fill="#3467FF"/>
</svg>
