<svg width="40" height="40" viewBox="0 0 40 40" fill="none" xmlns="http://www.w3.org/2000/svg">
<rect width="40" height="40" rx="20" fill="#D9D9D9"/>
<path d="M20.0001 10.1016C21.24 10.1016 22.4291 10.5941 23.3059 11.4708C24.1826 12.3476 24.6751 13.5367 24.6751 14.7766C24.6751 16.0164 24.1826 17.2056 23.3059 18.0823C22.4291 18.959 21.24 19.4516 20.0001 19.4516C18.7603 19.4516 17.5712 18.959 16.6944 18.0823C15.8177 17.2056 15.3251 16.0164 15.3251 14.7766C15.3251 13.5367 15.8177 12.3476 16.6944 11.4708C17.5712 10.5941 18.7603 10.1016 20.0001 10.1016ZM20.0001 11.7516C19.1979 11.7516 18.4284 12.0703 17.8611 12.6376C17.2938 13.2049 16.9751 13.9743 16.9751 14.7766C16.9751 15.5788 17.2938 16.3483 17.8611 16.9156C18.4284 17.4829 19.1979 17.8016 20.0001 17.8016C20.8024 17.8016 21.5718 17.4829 22.1391 16.9156C22.7064 16.3483 23.0251 15.5788 23.0251 14.7766C23.0251 13.9743 22.7064 13.2049 22.1391 12.6376C21.5718 12.0703 20.8024 11.7516 20.0001 11.7516ZM28.1649 29.2625C27.5967 25.325 24.2478 22.2868 20.1728 22.2032L20.0001 22.2016C15.8476 22.2016 12.4112 25.2695 11.8354 29.2625L11.8227 29.3516H10.1606C10.7073 24.4016 14.9044 20.5516 20.0001 20.5516C25.0959 20.5516 29.2929 24.4016 29.8396 29.3516H28.177L28.1649 29.2625Z" fill="white"/>
</svg>
