<svg width="16" height="16" viewBox="0 0 16 16" fill="none" xmlns="http://www.w3.org/2000/svg">
<path d="M8 0C6.41775 0 4.87103 0.469192 3.55544 1.34824C2.23985 2.22729 1.21447 3.47672 0.608967 4.93853C0.00346625 6.40034 -0.15496 8.00887 0.153721 9.56072C0.462403 11.1126 1.22433 12.538 2.34315 13.6569C3.46197 14.7757 4.88743 15.5376 6.43928 15.8463C7.99113 16.155 9.59966 15.9965 11.0615 15.391C12.5233 14.7855 13.7727 13.7602 14.6518 12.4446C15.5308 11.129 16 9.58225 16 8C16 5.87827 15.1571 3.84344 13.6569 2.34315C12.1566 0.842855 10.1217 0 8 0ZM13.1667 11.3933C13.1667 11.5525 13.1035 11.7051 12.9909 11.8176C12.8784 11.9301 12.7258 11.9933 12.5667 11.9933C12.4075 11.9933 12.2549 11.9301 12.1424 11.8176C12.0299 11.7051 11.9667 11.5525 11.9667 11.3933V10.5133C11.9667 10.0756 11.8804 9.64214 11.7129 9.23772C11.5454 8.8333 11.2999 8.46584 10.9904 8.15631C10.6808 7.84678 10.3134 7.60125 9.90895 7.43373C9.50453 7.26622 9.07107 7.18 8.63334 7.18H4.85334L6.54 8.86666C6.65316 8.97982 6.71673 9.1333 6.71673 9.29333C6.71673 9.45336 6.65316 9.60684 6.54 9.72C6.42684 9.83316 6.27337 9.89673 6.11334 9.89673C5.9533 9.89673 5.79983 9.83316 5.68667 9.72L3.02 7.05333C2.96356 6.99753 2.91876 6.93109 2.88818 6.85785C2.8576 6.78461 2.84185 6.70603 2.84185 6.62667C2.84185 6.5473 2.8576 6.46872 2.88818 6.39548C2.91876 6.32224 2.96356 6.2558 3.02 6.2L5.77334 3.41333C5.88789 3.31304 6.03628 3.26004 6.18845 3.26508C6.34062 3.27012 6.48519 3.33283 6.59285 3.44049C6.70051 3.54815 6.76321 3.69271 6.76825 3.84488C6.7733 3.99705 6.7203 4.14545 6.62 4.26L4.92 5.96667H8.62C9.82585 5.96667 10.9823 6.44569 11.835 7.29835C12.6876 8.15102 13.1667 9.30748 13.1667 10.5133V11.3933Z" fill="#3467FF"/>
</svg>
