<svg width="40" height="40" viewBox="0 0 40 40" fill="none" xmlns="http://www.w3.org/2000/svg">
<circle cx="20" cy="20" r="20" fill="#8668FF"/>
<path d="M11.8906 24.375C10.4137 24.375 9.31052 24.0255 8.58097 23.3265C7.86032 22.6275 7.5 21.5665 7.5 20.1435C7.5 19.2199 7.68239 18.421 8.04716 17.747C8.41193 17.0646 8.9324 16.5404 9.60856 16.1742C10.2847 15.8081 11.0899 15.625 12.0241 15.625C14.9956 15.625 16.4814 17.0438 16.4814 19.8814C16.4814 20.8134 16.299 21.6164 15.9343 22.2905C15.5695 22.9645 15.0401 23.4804 14.3462 23.8383C13.6611 24.1961 12.8426 24.375 11.8906 24.375ZM12.1709 22.6525C12.678 22.6525 13.1629 22.5318 13.6255 22.2905C13.7234 22.0325 13.799 21.7121 13.8524 21.3294C13.9058 20.9382 13.9325 20.5555 13.9325 20.181C13.9325 19.2573 13.7456 18.5583 13.372 18.084C13.0072 17.6097 12.4689 17.3725 11.7572 17.3725C11.25 17.3725 10.7607 17.4599 10.2892 17.6346C10.1913 17.7927 10.1157 18.0549 10.0623 18.421C10.0089 18.7788 9.98223 19.1907 9.98223 19.6567C9.98223 20.622 10.1691 21.3626 10.5427 21.8786C10.9164 22.3945 11.4591 22.6525 12.1709 22.6525Z" fill="white"/>
<path d="M17.0274 22.9271L18.0016 22.6774V17.8968C18.0016 17.6804 17.9838 17.5389 17.9483 17.4724C17.9127 17.3975 17.8193 17.3309 17.668 17.2726L17.0007 16.9107L17.0408 15.7873H24.2873C24.3496 16.661 24.3807 17.514 24.3807 18.3461L23.3932 18.4085L22.4456 17.3101L20.4305 17.2602V19.482L23.273 19.2448V21.1671L20.4305 20.88V22.1781C20.4305 22.3779 20.4438 22.5068 20.4705 22.5651C20.5061 22.6233 20.5906 22.6816 20.7241 22.7398L21.5248 23.1892L21.4848 24.2002H17.0942L17.0274 22.9271Z" fill="white"/>
<path d="M25.1467 22.9271L26.1209 22.6774V17.8968C26.1209 17.6804 26.1031 17.5389 26.0675 17.4724C26.032 17.3975 25.9385 17.3309 25.7873 17.2726L25.12 16.9107L25.1601 15.7873H32.4066C32.4689 16.661 32.5 17.514 32.5 18.3461L31.5124 18.4085L30.5649 17.3101L28.5498 17.2602V19.482L31.3923 19.2448V21.1671L28.5498 20.88V22.1781C28.5498 22.3779 28.5631 22.5068 28.5898 22.5651C28.6254 22.6233 28.7099 22.6816 28.8434 22.7398L29.6441 23.1892L29.6041 24.2002H25.2134L25.1467 22.9271Z" fill="white"/>
</svg>
