<svg width="30" height="30" viewBox="0 0 30 30" fill="none" xmlns="http://www.w3.org/2000/svg">
<rect x="0.713867" y="0.714157" width="28.5714" height="28.5714" rx="14.2857" fill="#3467FF"/>
<path d="M12.1442 14.8006C11.9944 14.8006 11.8946 14.7507 11.7948 14.6509C11.6949 14.5511 11.645 14.4512 11.645 14.3015C11.645 14.1517 11.6949 14.0519 11.7948 13.952C11.8447 13.9021 11.8946 13.8522 11.9445 13.8522C12.0444 13.8023 12.1941 13.8023 12.3439 13.8522C12.3938 13.8522 12.4437 13.9021 12.4936 13.952C12.5935 14.0519 12.6434 14.1517 12.6434 14.3015C12.6434 14.4512 12.5935 14.5511 12.4936 14.6509C12.3938 14.7507 12.244 14.8006 12.1442 14.8006ZM14.2408 14.8006C14.1909 14.8006 14.091 14.8006 14.0411 14.7507C13.9912 14.7008 13.9413 14.7008 13.8913 14.6509C13.7915 14.5511 13.7416 14.4512 13.7416 14.3015C13.7416 14.1517 13.7915 14.0519 13.8913 13.952C14.091 13.7524 14.3905 13.7524 14.5902 13.952C14.69 14.0519 14.74 14.1517 14.74 14.3015C14.74 14.4512 14.69 14.5511 14.5902 14.6509C14.5403 14.7008 14.4904 14.7507 14.4405 14.7507C14.3905 14.7507 14.2907 14.8006 14.2408 14.8006ZM16.3373 14.8006C16.2874 14.8006 16.1876 14.8006 16.1377 14.7507C16.0878 14.7008 16.0378 14.7008 15.9879 14.6509C15.8881 14.5511 15.8382 14.4512 15.8382 14.3015C15.8382 14.1517 15.8881 14.0519 15.9879 13.952C16.1876 13.7524 16.4871 13.7524 16.6868 13.952C16.7866 14.0519 16.8365 14.1517 16.8365 14.3015C16.8365 14.4512 16.7866 14.5511 16.6868 14.6509C16.6369 14.7008 16.5869 14.7507 16.537 14.7507C16.4871 14.7507 16.3873 14.8006 16.3373 14.8006Z" fill="white"/>
<path d="M20.3809 18.1951C20.7803 17.5462 20.9799 16.8473 20.9799 16.0985C20.9799 14.7507 20.2811 13.5028 19.1329 12.7041H19.083C18.3343 10.907 16.4374 9.65905 14.191 9.65905C11.3457 9.60913 8.99951 11.7057 8.99951 14.3015C8.99951 15.1501 9.19919 15.8988 9.69837 16.5977L9.04943 18.2949C8.99951 18.4447 8.99951 18.6444 9.14927 18.7941C9.19919 18.9439 9.34894 18.9938 9.4987 18.9938H9.59853L11.8948 18.5445C12.0945 18.6444 12.2941 18.6943 12.4938 18.7442C13.3923 19.7426 14.7401 20.3416 16.1878 20.3416C16.9365 20.3416 17.6354 20.1918 18.2843 19.9422L20.3809 20.3416H20.4807C20.6305 20.3416 20.7803 20.2917 20.8801 20.1419C20.9799 19.9922 21.0298 19.7925 20.9799 19.6427L20.3809 18.1951ZM11.9447 17.5462H11.8449L10.2475 17.8457L10.6468 16.7475C10.6967 16.5977 10.6967 16.398 10.5969 16.2982C10.1976 15.6493 9.99788 15.0003 9.99788 14.3015C9.99788 12.2548 11.8948 10.6075 14.2409 10.6075C16.5871 10.6075 18.484 12.2548 18.484 14.3015C18.484 16.3481 16.5372 17.9954 14.2409 17.9954C13.4922 17.9954 12.7933 17.8457 12.1943 17.5462H11.9447ZM19.3825 18.2949L19.732 19.1935L18.3842 18.9439C18.2843 18.9439 18.1845 18.9439 18.0847 18.9938C17.5356 19.2434 16.8866 19.3931 16.2377 19.3931C15.6387 19.3931 15.0396 19.2434 14.4905 18.9938C17.236 18.894 19.4325 16.8473 19.4325 14.3514C19.7819 14.8506 19.9816 15.4496 19.9816 16.0985C19.9816 16.6975 19.7819 17.2966 19.3825 17.8457C19.3326 17.9954 19.3326 18.1452 19.3825 18.2949Z" fill="white"/>
</svg>
