<svg width="200" height="150" viewBox="0 0 200 150" fill="none" xmlns="http://www.w3.org/2000/svg">
<g id="Group 1750">
<g id="Group 1737">
<path id="Vector" d="M169.747 63.4939C171.264 63.4939 172.494 62.264 172.494 60.7469C172.494 59.2298 171.264 58 169.747 58C168.23 58 167 59.2298 167 60.7469C167 62.264 168.23 63.4939 169.747 63.4939Z" fill="#EAEEF9"/>
<path id="Vector_2" d="M157.876 37.7519C158.912 37.7519 159.752 36.912 159.752 35.876C159.752 34.8399 158.912 34 157.876 34C156.84 34 156 34.8399 156 35.876C156 36.912 156.84 37.7519 157.876 37.7519Z" fill="#EAEEF9"/>
<path id="Vector_3" d="M42.9404 70.33C43.9765 70.33 44.8164 69.4902 44.8164 68.4541C44.8164 67.418 43.9765 66.5781 42.9404 66.5781C41.9043 66.5781 41.0645 67.418 41.0645 68.4541C41.0645 69.4902 41.9043 70.33 42.9404 70.33Z" fill="#EAEEF9"/>
<path id="Vector_4" d="M31.4839 93.9679C33.4081 93.9679 34.9679 92.4081 34.9679 90.4839C34.9679 88.5598 33.4081 87 31.4839 87C29.5598 87 28 88.5598 28 90.4839C28 92.4081 29.5598 93.9679 31.4839 93.9679Z" fill="#EAEEF9"/>
<path id="Vector_5" d="M110.434 22.4775L113.996 17" stroke="#333333" stroke-width="2" stroke-miterlimit="10"/>
<path id="Vector_6" d="M101.653 21.6335L102.5 7" stroke="#333333" stroke-width="2" stroke-miterlimit="10"/>
<path id="Vector_7" d="M92.7581 21.8207L87.2188 13" stroke="#333333" stroke-width="2" stroke-miterlimit="10"/>
<path id="Rectangle 1273" d="M86.452 29.694L86.229 29H85.5H66C61.0294 29 57 33.0294 57 38V127C57 131.971 61.0294 136 66 136H138C142.971 136 147 131.971 147 127V54.0469C147 51.506 145.926 49.0835 144.043 47.3774L126.333 31.3305C124.677 29.8307 122.524 29 120.29 29H114.75H114.177L113.888 29.4938L107.138 40.9938L106.855 41.4753L107.117 41.9685L111.23 49.7258L98.4246 71.5891L99.9955 55.0948L100.035 54.6852L99.774 54.3668L90.894 43.5135L86.452 29.694Z" fill="white" stroke="#151515" stroke-width="2"/>
<path id="Polygon 9" d="M126.503 51.5108C124.293 51.5122 122.5 49.7208 122.5 47.5107L122.501 28.9984L147.196 51.4983L126.503 51.5108Z" fill="#333333"/>
<g id="Mask group">
<mask id="mask0_15614_165332" style="mask-type:alpha" maskUnits="userSpaceOnUse" x="58" y="30" width="88" height="105">
<path id="Rectangle 1276" d="M66 135H138C142.418 135 146 131.418 146 127V54.0469C146 51.7883 145.045 49.635 143.372 48.1185L125.661 32.0716C124.19 30.7384 122.275 30 120.29 30H114.75L108 41.5L112.375 49.75L97 76L99 55L90 44L85.5 30H66C61.5817 30 58 33.5817 58 38V127C58 131.418 61.5817 135 66 135Z" fill="#D9D9D9"/>
</mask>
<g mask="url(#mask0_15614_165332)">
<rect id="Rectangle 1274" x="65" y="40" width="32" height="6" rx="3" fill="#D9D9D9"/>
<rect id="Rectangle 1275" x="65" y="50" width="24" height="6" rx="3" fill="#D9D9D9"/>
</g>
</g>
<g id="Group 1736">
<g id="Union">
<mask id="path-13-inside-1_15614_165332" fill="white">
<path fill-rule="evenodd" clip-rule="evenodd" d="M92.1421 95.9703C92.9232 96.7514 94.1895 96.7514 94.9706 95.9703C95.7516 95.1893 95.7516 93.923 94.9706 93.1419L92.1421 90.3135L94.9706 87.485C95.7516 86.704 95.7516 85.4377 94.9706 84.6566C94.1895 83.8756 92.9232 83.8756 92.1421 84.6566L89.3137 87.4851L86.4853 84.6566C85.7042 83.8756 84.4379 83.8756 83.6569 84.6566C82.8758 85.4377 82.8758 86.704 83.6569 87.485L86.4853 90.3135L83.6569 93.1419C82.8758 93.923 82.8758 95.1893 83.6569 95.9703C84.4379 96.7514 85.7042 96.7514 86.4853 95.9703L89.3137 93.1419L92.1421 95.9703Z"/>
</mask>
<path fill-rule="evenodd" clip-rule="evenodd" d="M92.1421 95.9703C92.9232 96.7514 94.1895 96.7514 94.9706 95.9703C95.7516 95.1893 95.7516 93.923 94.9706 93.1419L92.1421 90.3135L94.9706 87.485C95.7516 86.704 95.7516 85.4377 94.9706 84.6566C94.1895 83.8756 92.9232 83.8756 92.1421 84.6566L89.3137 87.4851L86.4853 84.6566C85.7042 83.8756 84.4379 83.8756 83.6569 84.6566C82.8758 85.4377 82.8758 86.704 83.6569 87.485L86.4853 90.3135L83.6569 93.1419C82.8758 93.923 82.8758 95.1893 83.6569 95.9703C84.4379 96.7514 85.7042 96.7514 86.4853 95.9703L89.3137 93.1419L92.1421 95.9703Z" fill="#A8C5FF"/>
<path d="M92.1421 90.3135L91.435 89.6064L90.7279 90.3135L91.435 91.0206L92.1421 90.3135ZM92.1421 84.6566L91.435 83.9495L92.1421 84.6566ZM89.3137 87.4851L88.6066 88.1922L89.3137 88.8993L90.0208 88.1922L89.3137 87.4851ZM86.4853 90.3135L87.1924 91.0206L87.8995 90.3135L87.1924 89.6064L86.4853 90.3135ZM83.6569 93.1419L82.9497 92.4348L83.6569 93.1419ZM89.3137 93.1419L90.0208 92.4348L89.3137 91.7277L88.6066 92.4348L89.3137 93.1419ZM94.2635 95.2632C93.8729 95.6537 93.2398 95.6537 92.8492 95.2632L91.435 96.6774C92.6066 97.849 94.5061 97.849 95.6777 96.6774L94.2635 95.2632ZM94.2635 93.849C94.654 94.2395 94.654 94.8727 94.2635 95.2632L95.6777 96.6774C96.8492 95.5059 96.8492 93.6064 95.6777 92.4348L94.2635 93.849ZM91.435 91.0206L94.2635 93.849L95.6777 92.4348L92.8492 89.6064L91.435 91.0206ZM94.2635 86.7779L91.435 89.6064L92.8492 91.0206L95.6777 88.1922L94.2635 86.7779ZM94.2635 85.3637C94.654 85.7543 94.654 86.3874 94.2635 86.7779L95.6777 88.1922C96.8492 87.0206 96.8492 85.1211 95.6777 83.9495L94.2635 85.3637ZM92.8492 85.3637C93.2398 84.9732 93.8729 84.9732 94.2635 85.3637L95.6777 83.9495C94.5061 82.7779 92.6066 82.7779 91.435 83.9495L92.8492 85.3637ZM90.0208 88.1922L92.8492 85.3637L91.435 83.9495L88.6066 86.7779L90.0208 88.1922ZM85.7782 85.3637L88.6066 88.1922L90.0208 86.7779L87.1924 83.9495L85.7782 85.3637ZM84.364 85.3637C84.7545 84.9732 85.3876 84.9732 85.7782 85.3637L87.1924 83.9495C86.0208 82.7779 84.1213 82.7779 82.9497 83.9495L84.364 85.3637ZM84.364 86.7779C83.9734 86.3874 83.9734 85.7543 84.364 85.3637L82.9497 83.9495C81.7782 85.1211 81.7782 87.0206 82.9497 88.1922L84.364 86.7779ZM87.1924 89.6064L84.364 86.7779L82.9497 88.1922L85.7782 91.0206L87.1924 89.6064ZM84.364 93.849L87.1924 91.0206L85.7782 89.6064L82.9497 92.4348L84.364 93.849ZM84.364 95.2632C83.9734 94.8727 83.9734 94.2395 84.364 93.849L82.9497 92.4348C81.7782 93.6064 81.7782 95.5059 82.9497 96.6774L84.364 95.2632ZM85.7782 95.2632C85.3877 95.6537 84.7545 95.6537 84.364 95.2632L82.9497 96.6774C84.1213 97.849 86.0208 97.849 87.1924 96.6774L85.7782 95.2632ZM88.6066 92.4348L85.7782 95.2632L87.1924 96.6774L90.0208 93.849L88.6066 92.4348ZM92.8492 95.2632L90.0208 92.4348L88.6066 93.849L91.435 96.6774L92.8492 95.2632Z" fill="#3467FF" mask="url(#path-13-inside-1_15614_165332)"/>
</g>
<g id="Union_2">
<mask id="path-15-inside-2_15614_165332" fill="white">
<path fill-rule="evenodd" clip-rule="evenodd" d="M118.142 95.9703C118.923 96.7514 120.19 96.7514 120.971 95.9703C121.752 95.1893 121.752 93.923 120.971 93.1419L118.142 90.3135L120.971 87.485C121.752 86.704 121.752 85.4377 120.971 84.6566C120.19 83.8756 118.923 83.8756 118.142 84.6566L115.314 87.4851L112.485 84.6566C111.704 83.8756 110.438 83.8756 109.657 84.6566C108.876 85.4377 108.876 86.704 109.657 87.485L112.485 90.3135L109.657 93.1419C108.876 93.923 108.876 95.1893 109.657 95.9703C110.438 96.7514 111.704 96.7514 112.485 95.9703L115.314 93.1419L118.142 95.9703Z"/>
</mask>
<path fill-rule="evenodd" clip-rule="evenodd" d="M118.142 95.9703C118.923 96.7514 120.19 96.7514 120.971 95.9703C121.752 95.1893 121.752 93.923 120.971 93.1419L118.142 90.3135L120.971 87.485C121.752 86.704 121.752 85.4377 120.971 84.6566C120.19 83.8756 118.923 83.8756 118.142 84.6566L115.314 87.4851L112.485 84.6566C111.704 83.8756 110.438 83.8756 109.657 84.6566C108.876 85.4377 108.876 86.704 109.657 87.485L112.485 90.3135L109.657 93.1419C108.876 93.923 108.876 95.1893 109.657 95.9703C110.438 96.7514 111.704 96.7514 112.485 95.9703L115.314 93.1419L118.142 95.9703Z" fill="#A8C5FF"/>
<path d="M118.142 90.3135L117.435 89.6064L116.728 90.3135L117.435 91.0206L118.142 90.3135ZM115.314 87.4851L114.607 88.1922L115.314 88.8993L116.021 88.1922L115.314 87.4851ZM112.485 90.3135L113.192 91.0206L113.899 90.3135L113.192 89.6064L112.485 90.3135ZM109.657 93.1419L108.95 92.4348L109.657 93.1419ZM115.314 93.1419L116.021 92.4348L115.314 91.7277L114.607 92.4348L115.314 93.1419ZM120.263 95.2632C119.873 95.6537 119.24 95.6537 118.849 95.2632L117.435 96.6774C118.607 97.849 120.506 97.849 121.678 96.6774L120.263 95.2632ZM120.263 93.849C120.654 94.2395 120.654 94.8727 120.263 95.2632L121.678 96.6774C122.849 95.5059 122.849 93.6064 121.678 92.4348L120.263 93.849ZM117.435 91.0206L120.263 93.849L121.678 92.4348L118.849 89.6064L117.435 91.0206ZM120.263 86.7779L117.435 89.6064L118.849 91.0206L121.678 88.1922L120.263 86.7779ZM120.263 85.3637C120.654 85.7543 120.654 86.3874 120.263 86.7779L121.678 88.1922C122.849 87.0206 122.849 85.1211 121.678 83.9495L120.263 85.3637ZM118.849 85.3637C119.24 84.9732 119.873 84.9732 120.263 85.3637L121.678 83.9495C120.506 82.7779 118.607 82.7779 117.435 83.9495L118.849 85.3637ZM116.021 88.1922L118.849 85.3637L117.435 83.9495L114.607 86.7779L116.021 88.1922ZM111.778 85.3637L114.607 88.1922L116.021 86.7779L113.192 83.9495L111.778 85.3637ZM110.364 85.3637C110.754 84.9732 111.388 84.9732 111.778 85.3637L113.192 83.9495C112.021 82.7779 110.121 82.7779 108.95 83.9495L110.364 85.3637ZM110.364 86.7779C109.973 86.3874 109.973 85.7543 110.364 85.3637L108.95 83.9495C107.778 85.1211 107.778 87.0206 108.95 88.1922L110.364 86.7779ZM113.192 89.6064L110.364 86.7779L108.95 88.1922L111.778 91.0206L113.192 89.6064ZM110.364 93.849L113.192 91.0206L111.778 89.6064L108.95 92.4348L110.364 93.849ZM110.364 95.2632C109.973 94.8727 109.973 94.2395 110.364 93.849L108.95 92.4348C107.778 93.6064 107.778 95.5059 108.95 96.6774L110.364 95.2632ZM111.778 95.2632C111.388 95.6537 110.754 95.6537 110.364 95.2632L108.95 96.6774C110.121 97.849 112.021 97.849 113.192 96.6774L111.778 95.2632ZM114.607 92.4348L111.778 95.2632L113.192 96.6774L116.021 93.849L114.607 92.4348ZM118.849 95.2632L116.021 92.4348L114.607 93.849L117.435 96.6774L118.849 95.2632Z" fill="#3467FF" mask="url(#path-15-inside-2_15614_165332)"/>
</g>
<path id="Vector 647" d="M88.8145 114.813C92.1478 110.813 105.314 104.813 116.314 114.813" stroke="#3467FF" stroke-width="4" stroke-linecap="round"/>
</g>
</g>
</g>
</svg>
