<svg width="8" height="8" viewBox="0 0 8 8" fill="none" xmlns="http://www.w3.org/2000/svg">
<path d="M1.35355 0.646447C1.15829 0.451184 0.841709 0.451184 0.646447 0.646447C0.451185 0.841709 0.451184 1.15829 0.646447 1.35355L3.2929 4.00001L0.646461 6.64645C0.451199 6.84171 0.451199 7.15829 0.646461 7.35355C0.841723 7.54882 1.15831 7.54882 1.35357 7.35355L4.00001 4.70712L6.64645 7.35356C6.84171 7.54882 7.15829 7.54882 7.35356 7.35356C7.54882 7.1583 7.54882 6.84171 7.35356 6.64645L4.70711 4.00001L7.35357 1.35355C7.54883 1.15829 7.54883 0.841709 7.35357 0.646447C7.15831 0.451185 6.84172 0.451185 6.64646 0.646447L4.00001 3.2929L1.35355 0.646447Z" fill="#6F767E"/>
</svg>
