<svg width="140" height="140" viewBox="0 0 140 140" fill="none" xmlns="http://www.w3.org/2000/svg">
<g id="Group 21308">
<rect id="Rectangle 1348" width="140" height="140" fill="#F5F5F5"/>
<g id="Group 20368">
<g id="Group 1559">
<path id="Vector" d="M56.8682 53.8033C56.2842 54.0983 55.7003 54.3605 55.0838 54.5899C52.2288 55.6715 49.0168 56.2287 45.5129 56.2287C42.0414 56.2287 38.862 55.6715 36.0069 54.5899C35.3905 54.3605 34.8065 54.0983 34.2549 53.8361C34.1576 53.7705 34.0278 53.8688 34.0278 53.9672V105.229H57.1278V53.9672C57.0953 53.8361 56.9656 53.7705 56.8682 53.8033Z" fill="#D9D9D9"/>
<path id="Vector_2" d="M51.9055 34.1373C50.0237 33.4162 47.8825 33.0557 45.5789 33.0557C43.2754 33.0557 41.1666 33.4162 39.2524 34.1373C37.3382 34.8583 35.8458 35.8744 34.7103 37.2182C33.6072 38.5292 33.0557 40.0697 33.0557 41.8724C33.0557 43.675 33.6072 45.2155 34.7427 46.5265C35.8783 47.8376 37.3707 48.8536 39.2849 49.6075C41.1666 50.3285 43.2754 50.6891 45.5789 50.6891C47.9149 50.6891 50.0237 50.3285 51.9379 49.6075C53.8197 48.8864 55.3445 47.8704 56.4476 46.5265C57.5507 45.2155 58.1022 43.6423 58.1022 41.8724C58.1022 40.0697 57.5507 38.5292 56.4476 37.2182C55.3121 35.8744 53.8197 34.8583 51.9055 34.1373Z" fill="#D9D9D9"/>
</g>
<path id="Vector_3" d="M98.9644 49.0772C100.082 48.1921 101.646 47.7659 103.593 47.7659C104.231 47.7659 104.806 47.7987 105.253 47.8643C105.732 47.9298 106.179 48.0282 106.657 48.1593V35.4074C105.604 35.0796 104.359 34.8501 102.923 34.6534C101.454 34.4567 100.018 34.3584 98.5813 34.3584C94.1443 34.3584 90.1542 34.9812 86.6429 36.2597C83.1316 37.5054 80.3544 39.5378 78.3115 42.2587C76.2685 45.0123 75.2471 48.6182 75.2471 53.142V53.0109H67.6179V67.1724H74.9598V105.199H97.7514V67.1724H106.945V52.9781H97.2726C97.3045 51.2407 97.8472 49.9295 98.9644 49.0772Z" fill="#D9D9D9"/>
</g>
</g>
</svg>
