<svg width="16" height="16" viewBox="0 0 16 16" fill="none" xmlns="http://www.w3.org/2000/svg">
<path d="M12.8125 9.79506L11.7529 9.06969V7.35556L12.8125 6.63719V9.79506ZM3.625 11.0621V4.93794H8H10.8779V7.104C10.8774 7.111 10.8752 7.118 10.8752 7.125V10.625C10.8752 10.6302 10.8783 10.6346 10.8783 10.6399V11.0625L3.625 11.0621ZM13.4552 5.42619C13.385 5.38883 13.3059 5.37132 13.2265 5.37556C13.1471 5.3798 13.0704 5.40563 13.0046 5.45025L11.7529 6.29856V4.93794C11.7528 4.70594 11.6606 4.48347 11.4966 4.31935C11.3327 4.15522 11.1103 4.06285 10.8783 4.0625H3.62456C3.39257 4.06285 3.17019 4.15522 3.00623 4.31935C2.84227 4.48347 2.75012 4.70594 2.75 4.93794V11.0621C2.75 11.5451 3.14244 11.9375 3.62456 11.9375H10.8783C11.1103 11.9372 11.3327 11.8448 11.4966 11.6807C11.6606 11.5165 11.7528 11.2941 11.7529 11.0621V10.4797L11.7581 10.1337L13.0028 10.9859C13.0685 11.0309 13.1453 11.0571 13.2248 11.0617C13.3043 11.0663 13.3836 11.0491 13.454 11.012C13.5245 10.9748 13.5835 10.9192 13.6246 10.851C13.6657 10.7828 13.6875 10.7046 13.6875 10.625V5.8125C13.6875 5.73309 13.6659 5.65518 13.6249 5.58712C13.584 5.51906 13.5253 5.46343 13.4552 5.42619Z" fill="white"/>
<path d="M5.15625 5.8125C5.07004 5.81253 4.98468 5.82954 4.90505 5.86255C4.82541 5.89557 4.75306 5.94395 4.69212 6.00493C4.56905 6.12808 4.49994 6.29508 4.5 6.46919C4.50003 6.5554 4.51704 6.64076 4.55005 6.72039C4.58307 6.80003 4.63145 6.87238 4.69243 6.93332C4.81558 7.05639 4.98258 7.1255 5.15669 7.12544C5.33079 7.12538 5.49775 7.05616 5.62082 6.93301C5.74389 6.80985 5.813 6.64286 5.81294 6.46875C5.81288 6.29464 5.74366 6.12769 5.62051 6.00462C5.49735 5.88155 5.33036 5.81244 5.15625 5.8125Z" fill="#807E7E"/>
</svg>
