<svg width="16" height="18" viewBox="0 0 16 18" fill="none" xmlns="http://www.w3.org/2000/svg">
<g id="Group 1127">
<path id="Vector" opacity="0.7" d="M8 0C3.58214 0 0 3.58214 0 8C0 12.4179 3.58214 16 8 16C12.4179 16 16 12.4179 16 8C16 3.58214 12.4179 0 8 0Z" fill="#151515"/>
<g id="Group 21696">
<rect id="Rectangle 1770" x="3" y="5.8457" width="1" height="10.4657" rx="0.5" transform="rotate(-57.7683 3 5.8457)" fill="white"/>
<path id="Subtract" fill-rule="evenodd" clip-rule="evenodd" d="M6.44629 8.61V10.8858C6.44633 10.9123 6.45363 10.9383 6.46739 10.9609C6.48114 10.9835 6.50082 11.0019 6.52425 11.0139C6.54769 11.026 6.57398 11.0314 6.60024 11.0294C6.62649 11.0274 6.65169 11.0182 6.67308 11.0027L8.32334 9.79349L6.44629 8.61ZM10.0577 8.52267L10.5731 8.14505C10.5915 8.13193 10.6065 8.11455 10.6169 8.09436C10.6273 8.07418 10.6327 8.05178 10.6327 8.02906C10.6327 8.00633 10.6273 7.98393 10.6169 7.96375C10.6065 7.94357 10.5915 7.92618 10.5731 7.91306L6.67308 5.05723C6.65173 5.04162 6.6265 5.03227 6.6002 5.03022C6.5739 5.02816 6.54754 5.03348 6.52406 5.04558C6.50057 5.05769 6.48088 5.07611 6.46715 5.0988C6.45342 5.12149 6.4462 5.14756 6.44629 5.17413V6.24565L10.0577 8.52267ZM9.62412 8.84038L9.62402 8.84045L6.44629 6.83687V6.83674L9.62412 8.84038Z" fill="white"/>
</g>
</g>
</svg>
