<svg width="16" height="16" viewBox="0 0 16 16" fill="none" xmlns="http://www.w3.org/2000/svg">
<g id="video 2">
<path id="Vector" d="M13.993 9.2225V7.2635V6.0555V4.5005C13.9929 4.23536 13.8701 3.98111 13.6517 3.79354C13.4333 3.60597 13.137 3.5004 12.828 3.5H3.16503C2.85599 3.5004 2.55975 3.60597 2.34133 3.79354C2.12291 3.98111 2.00015 4.23536 2 4.5005V11.4995C2 12.0515 2.52278 12.5 3.16503 12.5H12.828C13.137 12.4996 13.4333 12.394 13.6517 12.2065C13.8701 12.0189 13.9929 11.7646 13.993 11.4995V10.834L14 10.4385V9.2225" stroke="#999999"/>
<path id="GIF" d="M7.30484 7.95722V7.90722H7.25484H5.94041H5.89041V7.95722V8.45722V8.50722H5.94041H6.61061V9.21099C6.58636 9.23703 6.55328 9.26545 6.51047 9.29611C6.46567 9.32757 6.40232 9.35676 6.31839 9.38254C6.23741 9.40566 6.13092 9.41791 5.99745 9.41791C5.86513 9.41791 5.74803 9.39093 5.64504 9.33803C5.54218 9.28342 5.45396 9.2029 5.38052 9.09506C5.30842 8.98686 5.25185 8.85268 5.21174 8.69137C5.17326 8.53027 5.15374 8.34453 5.15374 8.13369V7.85829C5.15374 7.6506 5.17096 7.46703 5.20493 7.30719C5.23892 7.14734 5.28869 7.01381 5.35332 6.90554C5.41908 6.798 5.50025 6.71804 5.5965 6.6639C5.69255 6.60988 5.80509 6.58209 5.93565 6.58209C6.08959 6.58209 6.20946 6.61213 6.29897 6.66807L6.29896 6.66808L6.29982 6.66859C6.39297 6.72426 6.46408 6.8009 6.51375 6.8995L6.51375 6.8995L6.51402 6.90002C6.56654 7.00132 6.60227 7.11698 6.6206 7.24759L6.62665 7.29064H6.67012H7.25484H7.31075L7.30453 7.23508C7.27697 6.98891 7.21114 6.76866 7.10627 6.57511C7.00037 6.37967 6.84948 6.22672 6.65446 6.11698C6.45942 6.00454 6.21568 5.95 5.92615 5.95C5.69794 5.95 5.4916 5.99312 5.30815 6.08048C5.12632 6.16603 4.97124 6.29243 4.84307 6.45879C4.71497 6.62506 4.61736 6.82708 4.5494 7.06374L4.54934 7.06395C4.48287 7.2992 4.45 7.56594 4.45 7.86364V8.13369C4.45 8.43352 4.48612 8.70243 4.55917 8.93984L4.5592 8.93994C4.63209 9.17496 4.73543 9.37605 4.86997 9.54217L4.87016 9.5424C5.00625 9.7084 5.16828 9.83528 5.35604 9.92237L5.35641 9.92253C5.54414 10.0077 5.75014 10.05 5.97368 10.05C6.23249 10.05 6.45186 10.0184 6.6302 9.95339C6.80492 9.8897 6.94754 9.81324 7.05623 9.72295L7.05633 9.72287C7.16279 9.63396 7.24355 9.55028 7.29634 9.47174L7.30484 9.45909V9.44385V7.95722ZM4.60696 8.92513C4.67827 9.15508 4.77889 9.35027 4.90883 9.5107C5.04035 9.67112 5.19643 9.79323 5.37708 9.87701L4.60696 8.92513ZM8.60263 6.05348V6.00348H8.55263H7.95603H7.90603V6.05348V9.94652V9.99652H7.95603H8.55263H8.60263V9.94652V6.05348ZM9.68871 6.00348H9.29423H9.24423V6.05348V9.94652V9.99652H9.29423H9.89083H9.94083V9.94652V8.33877H11.3027H11.3527V8.28877V7.75668V7.70668H11.3027H9.94083V6.63824H11.5H11.55V6.58824V6.05348V6.00348H11.5H9.94083H9.89083H9.73871H9.68871Z" fill="#999999" stroke="#999999" stroke-width="0.1"/>
</g>
</svg>
