<svg width="12" height="13" viewBox="0 0 12 13" fill="none" xmlns="http://www.w3.org/2000/svg">
<path d="M1.15 3.6C1.15 2.93726 1.68726 2.4 2.35 2.4H9.65C10.3127 2.4 10.85 2.93726 10.85 3.6V9.4C10.85 10.0627 10.3127 10.6 9.65 10.6H2.35C1.68726 10.6 1.15 10.0627 1.15 9.4V3.6Z" stroke="#EFF4FF" stroke-width="0.8"/>
<path fill-rule="evenodd" clip-rule="evenodd" d="M3.78276 5.96859L1.28094 8.09909L0.837891 7.4746L3.33972 5.3441C3.99334 4.78749 4.92963 4.88523 5.47554 5.56706L9.36017 10.4189L8.81745 10.9404L4.93282 6.08865C4.63887 5.72151 4.13471 5.66888 3.78276 5.96859Z" fill="white"/>
<path fill-rule="evenodd" clip-rule="evenodd" d="M7.9801 7.77278L7.17505 8.60641L6.67916 8.03159L7.48421 7.19795C8.12533 6.53406 9.14045 6.58204 9.727 7.30396L11.2114 9.13099L10.6722 9.65688L9.18776 7.82986C8.87193 7.44113 8.32532 7.41529 7.9801 7.77278Z" fill="white"/>
</svg>
