<svg width="40" height="40" viewBox="0 0 40 40" fill="none" xmlns="http://www.w3.org/2000/svg">
<rect width="40" height="40" rx="20" fill="#FA9B2C"/>
<path d="M26.7951 21.9121V22.8027C26.7818 22.8461 26.7656 22.8894 26.7567 22.9337C26.6657 23.4044 26.6145 23.8874 26.4771 24.3442C26.0699 25.6923 25.3068 26.8157 24.237 27.7329C23.4119 28.4409 22.4834 28.951 21.4219 29.2021C21.0729 29.2848 20.715 29.3335 20.3609 29.3981H19.4708C19.4275 29.3847 19.3831 29.3645 19.3389 29.3615C18.3989 29.303 17.5083 29.0583 16.6729 28.6314C15.0935 27.827 13.9542 26.6291 13.4339 24.906C13.3231 24.5377 13.2769 24.1517 13.2 23.7736V22.9238C13.2335 22.715 13.2625 22.5044 13.302 22.2957C13.4703 21.3839 13.8755 20.5765 14.4121 19.8311C14.9183 19.1295 15.4559 18.4501 15.9359 17.7308C16.4548 16.9505 16.7059 16.0844 16.5587 15.1348C16.5297 14.9472 16.5026 14.7596 16.474 14.573C16.4932 14.5681 16.5124 14.5642 16.5317 14.5587C17.6901 15.7728 17.8786 17.2631 17.7132 18.8735C17.7556 18.8282 17.791 18.7967 17.8181 18.7603C18.8013 17.4305 19.2236 15.9614 18.9031 14.316C18.6994 13.2693 18.2587 12.3284 17.5296 11.5462C17.213 11.2074 16.83 10.9303 16.4769 10.6245H16.8413C16.8713 10.6368 16.8994 10.658 16.9299 10.6609C17.5709 10.716 18.173 10.914 18.7467 11.1922C20.0586 11.8273 21.1221 12.7661 22.0117 13.9113C23.3193 15.5965 24.1696 17.4659 24.338 19.6184C24.4025 20.44 24.3187 21.2386 24.0997 22.0264C24.017 22.3247 23.9003 22.6132 23.7935 22.9238C24.2178 22.7431 24.5403 22.467 24.7895 22.1091C25.5324 21.0392 25.7401 19.8463 25.5718 18.5274C25.6265 18.5909 25.6545 18.616 25.6736 18.6474C26.1212 19.3545 26.456 20.1087 26.6308 20.9284C26.7002 21.2528 26.7405 21.5848 26.7951 21.9121ZM19.7962 20.3436C19.7795 20.3554 19.7612 20.3677 19.744 20.3795C19.7209 20.7045 19.7036 21.0299 19.6722 21.3548C19.6259 21.8506 19.5072 22.3286 19.2753 22.7733C18.9917 23.3178 18.5177 23.6565 17.9923 23.9258C17.4257 24.2182 17.0687 24.6358 17.0224 25.295C16.9742 25.9729 17.178 26.5424 17.7245 26.959C18.2365 27.3489 18.8347 27.476 19.4687 27.4548C20.481 27.4218 21.2352 26.9408 21.5376 25.9276C21.7547 25.2004 21.7192 24.4683 21.574 23.7363C21.3756 22.7329 21.0122 21.7975 20.3904 20.9778C20.2157 20.7487 19.9951 20.5543 19.7962 20.3436Z" fill="white"/>
</svg>
