<svg width="48" height="47" viewBox="0 0 48 47" fill="none" xmlns="http://www.w3.org/2000/svg">
<g clip-path="url(#clip0_8835_102677)">
<path d="M46.4807 15.4378L31.8973 0.854454C31.5418 0.499499 31.1006 0.242306 30.6166 0.107751C30.1325 -0.0268036 29.6219 -0.0341662 29.1342 0.0863755C28.6464 0.206917 28.1981 0.451284 27.8324 0.795839C27.4668 1.1404 27.1962 1.57348 27.0469 2.0532C26.3863 4.1955 25.2444 6.05779 23.5542 7.74654C21.2967 10.0026 18.3567 11.7117 15.2461 13.5186C11.9444 15.432 8.53338 17.4153 5.73775 20.2095C3.36213 22.588 1.74484 25.2334 0.796921 28.3047C0.640062 28.812 0.624524 29.3524 0.751979 29.8679C0.879434 30.3834 1.14506 30.8543 1.52025 31.2301L16.1036 45.8134C16.4594 46.1683 16.9007 46.4254 17.3849 46.5598C17.8692 46.6941 18.3799 46.7013 18.8677 46.5804C19.3554 46.4596 19.8038 46.2149 20.1693 45.87C20.5348 45.5251 20.8051 45.0917 20.954 44.6117C21.6161 42.4695 22.758 40.6072 24.4496 38.9184C26.7057 36.6624 29.6442 34.9561 32.7578 33.1507C36.0565 31.2345 39.469 29.2511 42.2632 26.457C44.6388 24.0813 46.2561 21.433 47.2055 18.3617C47.3615 17.8545 47.3765 17.3143 47.2488 16.7992C47.1211 16.2841 46.8556 15.8134 46.4807 15.4378ZM18.1671 43.7499L3.5838 29.1665C7.72838 15.7484 25.6921 16.3347 29.8338 2.91654L44.42 17.4999C40.274 30.9151 22.3103 30.3317 18.1671 43.7499Z" fill="#2AD4AC"/>
<path d="M29.2108 21.7293C28.7354 21.3311 28.2571 21.0599 27.7758 20.9257C27.3081 20.7911 26.8205 20.7393 26.335 20.7726C25.8353 20.8125 25.344 20.925 24.8767 21.1066C24.3754 21.2996 23.8821 21.5126 23.3979 21.7453C22.6334 20.8572 21.8501 19.9854 21.0485 19.1305C21.4015 18.8111 21.7442 18.6493 22.0738 18.6376C22.4048 18.623 22.7227 18.658 23.0246 18.7339C23.3323 18.8111 23.6138 18.8768 23.8733 18.9278C23.9939 18.9553 24.1192 18.9539 24.239 18.9237C24.3589 18.8935 24.47 18.8355 24.5631 18.7543C24.6663 18.6675 24.7501 18.5602 24.8094 18.4391C24.8687 18.3181 24.902 18.186 24.9073 18.0514C24.9219 17.7641 24.814 17.4841 24.5733 17.2114C24.2871 16.8702 23.8893 16.6413 23.4504 16.5653C23.0007 16.4861 22.5398 16.4965 22.0942 16.5959C21.6333 16.7009 21.1944 16.8745 20.7788 17.1195C20.3631 17.3645 20.0292 17.6153 19.7813 17.8603L19.4969 17.592C19.444 17.543 19.3821 17.5049 19.3145 17.4799C19.247 17.4549 19.1751 17.4434 19.1031 17.4461C19.0265 17.4465 18.9509 17.4641 18.8819 17.4977C18.813 17.5313 18.7525 17.58 18.705 17.6401C18.6541 17.6957 18.6158 17.7616 18.5927 17.8333C18.5695 17.905 18.5621 17.9809 18.5708 18.0557C18.5754 18.1263 18.5941 18.1952 18.6259 18.2584C18.6578 18.3215 18.702 18.3776 18.756 18.4232C18.8508 18.5034 18.9456 18.5822 19.0404 18.6653C18.6671 19.1159 18.3594 19.6132 18.1173 20.1382C17.8844 20.6284 17.7341 21.1536 17.6725 21.6928C17.6156 22.2032 17.6696 22.6699 17.8256 23.103C17.9817 23.5391 18.2704 23.9095 18.6919 24.2595C19.3788 24.8297 20.1867 25.0718 21.1244 25.0178C22.0592 24.9609 23.0669 24.6824 24.1504 24.1005C25.0108 25.0951 25.8742 26.0824 26.736 26.9997C26.3715 27.3074 26.0521 27.4839 25.7706 27.5407C25.5203 27.6007 25.2587 27.5957 25.0108 27.5261C24.7861 27.4559 24.5729 27.3532 24.3779 27.2214C24.1948 27.0933 24.0022 26.9792 23.8019 26.8801C23.6138 26.7868 23.4198 26.7343 23.2215 26.7314C23.0231 26.7284 22.8117 26.8247 22.5783 27.0245C22.3392 27.233 22.2196 27.4751 22.2196 27.7478C22.2196 28.0191 22.345 28.2947 22.59 28.5732C22.8379 28.8518 23.1602 29.0866 23.5496 29.2718C23.939 29.457 24.3794 29.5736 24.8635 29.6057C25.3857 29.6369 25.9084 29.5553 26.3963 29.3666C26.9373 29.1697 27.4725 28.8139 28.0004 28.2845C28.2542 28.5324 28.5108 28.7686 28.766 28.9961C28.8201 29.0437 28.8833 29.0796 28.9518 29.1017C29.0203 29.1238 29.0926 29.1315 29.1642 29.1245C29.2408 29.1208 29.3157 29.1005 29.3837 29.065C29.4516 29.0295 29.5111 28.9796 29.5579 28.9189C29.6088 28.8608 29.6473 28.793 29.6709 28.7195C29.6945 28.646 29.7027 28.5684 29.695 28.4916C29.6909 28.4229 29.6726 28.3558 29.6412 28.2945C29.6098 28.2333 29.5661 28.1792 29.5127 28.1357C29.2509 27.9262 28.9946 27.7098 28.7442 27.4868C29.1802 26.9516 29.5302 26.3872 29.7898 25.8286C30.0494 25.2672 30.2025 24.7261 30.2535 24.2245C30.3086 23.7597 30.249 23.2886 30.08 22.8522C29.9167 22.4336 29.6265 22.0749 29.2108 21.7293ZM21.0573 22.718C20.8562 22.7287 20.6552 22.6964 20.4676 22.6232C20.28 22.55 20.1101 22.4377 19.9694 22.2936C19.8353 22.1645 19.7373 22.0027 19.685 21.8241C19.6233 21.6271 19.6039 21.4194 19.6281 21.2145C19.6485 20.9957 19.7142 20.7668 19.8279 20.5364C19.9358 20.3059 20.0963 20.0755 20.3004 19.8524C21.0639 20.621 21.8031 21.4133 22.5171 22.228C21.9571 22.5357 21.47 22.7005 21.0573 22.718ZM27.9363 25.6376C27.805 25.8797 27.6548 26.0955 27.4783 26.2836C26.6349 25.421 25.8179 24.533 25.0283 23.6207C25.2369 23.5274 25.4556 23.4297 25.6919 23.3305C25.9281 23.2314 26.1644 23.1657 26.4006 23.1249C26.6427 23.0884 26.8819 23.0986 27.121 23.1555C27.3573 23.2153 27.5819 23.3436 27.7904 23.5464C27.996 23.752 28.1258 23.9649 28.1783 24.1953C28.2352 24.4286 28.2381 24.6649 28.1988 24.907C28.1524 25.1634 28.0636 25.4103 27.9363 25.6376ZM22.1452 32.3459H22.1423C21.2182 33.042 20.3413 33.7986 19.5173 34.6107C18.7447 35.3809 18.0324 36.2092 17.3867 37.0884L16.3892 38.4505L16.3921 38.4534C16.3015 38.594 16.2617 38.7613 16.2792 38.9276C16.2967 39.0939 16.3705 39.2492 16.4883 39.3678C16.626 39.5044 16.8121 39.5811 17.006 39.5811C17.2 39.5811 17.3861 39.5044 17.5238 39.3678C17.566 39.3242 17.6023 39.2752 17.6317 39.222L18.5635 37.9459C19.141 37.157 19.809 36.3797 20.5483 35.6418C21.3293 34.8662 22.1646 34.1474 23.0479 33.4907L23.045 33.4878C23.0713 33.4674 23.096 33.4514 23.1194 33.428C23.2505 33.2958 23.3261 33.1184 23.3305 32.9322C23.335 32.746 23.2681 32.5652 23.1435 32.4268C23.0189 32.2884 22.8461 32.2029 22.6604 32.1878C22.4748 32.1728 22.2905 32.2294 22.1452 32.3459ZM27.4842 11.2511C26.7215 12.0139 25.8946 12.7007 25.0371 13.3555C24.9365 13.4103 24.85 13.4877 24.7846 13.5817C24.7191 13.6757 24.6764 13.7836 24.6598 13.8969C24.6433 14.0103 24.6533 14.1259 24.6892 14.2347C24.725 14.3435 24.7857 14.4424 24.8665 14.5236C25.145 14.8051 25.5956 14.8109 25.8858 14.5441L25.8917 14.547C26.8031 13.847 27.6913 13.1061 28.5152 12.2822C29.2873 11.5127 29.9996 10.6853 30.6458 9.8074L31.6433 8.43948L31.6404 8.43656C31.7594 8.29182 31.8187 8.10707 31.806 7.9201C31.7934 7.73313 31.7098 7.55806 31.5723 7.43067C31.4349 7.30328 31.254 7.23321 31.0666 7.23477C30.8792 7.23633 30.6995 7.30941 30.5642 7.43906C30.5133 7.4926 30.4701 7.55297 30.4358 7.61844L29.4675 8.94552C28.8668 9.764 28.2037 10.5348 27.4842 11.2511Z" fill="#2AD4AC"/>
</g>
<defs>
<clipPath id="clip0_8835_102677">
<rect width="46.6667" height="46.6667" fill="white" transform="translate(0.666626)"/>
</clipPath>
</defs>
</svg>
