<svg width="40" height="40" viewBox="0 0 40 40" fill="none" xmlns="http://www.w3.org/2000/svg">
<circle cx="20" cy="20" r="20" fill="#3467FF"/>
<mask id="path-2-outside-1_88_69927" maskUnits="userSpaceOnUse" x="11.5" y="11.5" width="17" height="17" fill="black">
<rect fill="white" x="11.5" y="11.5" width="17" height="17"/>
<path d="M27.0611 21.7958L24.8991 22.2562L26.2803 23.0544C26.3841 23.1207 26.4599 23.224 26.4932 23.3443C26.5265 23.4646 26.5149 23.5932 26.4605 23.7052C26.4313 23.7656 26.3899 23.8189 26.3391 23.8618C26.2883 23.9046 26.2293 23.9361 26.1658 23.954C26.1023 23.972 26.0359 23.9761 25.9708 23.966C25.9056 23.9559 25.8433 23.9319 25.7879 23.8956L24.4066 23.0974L25.0793 25.1911V25.2709C25.0984 25.3338 25.1047 25.3999 25.098 25.4654C25.0913 25.5309 25.0716 25.5943 25.0401 25.6517C25.0087 25.7092 24.9661 25.7595 24.915 25.7996C24.8639 25.8396 24.8054 25.8687 24.743 25.8849C24.679 25.9012 24.6126 25.9043 24.5475 25.8939C24.4824 25.8835 24.42 25.8598 24.364 25.8243C24.308 25.7888 24.2595 25.7422 24.2214 25.6872C24.1834 25.6322 24.1565 25.57 24.1424 25.5042L23.1335 22.3729L20.4551 20.8441V23.914L22.6591 26.3699C22.6951 26.3699 22.6951 26.4067 22.7311 26.4067C22.7684 26.4591 22.7951 26.5184 22.8098 26.5814C22.8245 26.6443 22.827 26.7096 22.8169 26.7736C22.8069 26.8375 22.7846 26.8987 22.7513 26.9538C22.718 27.0088 22.6744 27.0566 22.623 27.0944C22.5759 27.1387 22.52 27.1721 22.4592 27.1926C22.3984 27.2131 22.3341 27.22 22.2704 27.2131C22.2068 27.2061 22.1453 27.1853 22.0901 27.1522C22.035 27.119 21.9873 27.0742 21.9504 27.0207L20.4551 25.3998V27.0023C20.4536 27.1327 20.4026 27.2573 20.313 27.3501C20.2234 27.4429 20.1021 27.4965 19.9746 27.4996C19.9101 27.5022 19.8457 27.4911 19.7855 27.4671C19.7254 27.443 19.6707 27.4064 19.625 27.3597C19.5793 27.313 19.5436 27.2572 19.5201 27.1956C19.4965 27.1341 19.4857 27.0683 19.4882 27.0023V25.3998L17.9928 27.0453C17.9928 27.0551 17.989 27.0644 17.9823 27.0713C17.9755 27.0782 17.9664 27.0821 17.9568 27.0821C17.9126 27.1273 17.8602 27.1631 17.8025 27.1875C17.7448 27.212 17.683 27.2245 17.6205 27.2245C17.558 27.2245 17.4962 27.212 17.4385 27.1875C17.3808 27.1631 17.3284 27.1273 17.2842 27.0821C17.24 27.037 17.205 26.9834 17.1811 26.9244C17.1572 26.8654 17.1449 26.8021 17.1449 26.7383C17.1449 26.6744 17.1572 26.6112 17.1811 26.5522C17.205 26.4932 17.24 26.4396 17.2842 26.3945L19.4882 23.9385V20.8686L16.8338 22.3913L15.7888 25.5226V25.6024C15.7434 25.7188 15.6546 25.812 15.542 25.8615C15.4294 25.911 15.3022 25.9128 15.1883 25.8664C15.0642 25.8207 14.9629 25.7265 14.9066 25.6045C14.8503 25.4825 14.8436 25.3426 14.888 25.2156L15.5967 23.1219L14.1794 23.9201C14.1288 23.9563 14.0713 23.9812 14.0106 23.993C13.95 24.0049 13.8876 24.0036 13.8275 23.9891C13.7674 23.9746 13.711 23.9473 13.6619 23.9089C13.6128 23.8706 13.5723 23.8221 13.5428 23.7666C13.5084 23.7114 13.485 23.6498 13.4739 23.5854C13.4628 23.5209 13.4643 23.4548 13.4782 23.3909C13.4922 23.327 13.5183 23.2666 13.5552 23.2131C13.592 23.1595 13.6388 23.114 13.6929 23.079L15.0742 22.2808L12.9483 21.8203C12.9122 21.8203 12.8702 21.8203 12.8702 21.7835C12.8069 21.7691 12.7473 21.7411 12.6954 21.7013C12.6435 21.6615 12.6005 21.6109 12.5693 21.5528C12.538 21.4947 12.5192 21.4305 12.5142 21.3644C12.5091 21.2983 12.5179 21.2319 12.5399 21.1695C12.5844 21.049 12.669 20.9485 12.7788 20.8856C12.8887 20.8227 13.0168 20.8015 13.1404 20.8257L16.3894 21.5133L19.0378 19.9845L16.3894 18.4557L13.1404 19.1434H13.0684C12.9408 19.1556 12.8132 19.12 12.7093 19.0432C12.6055 18.9664 12.5324 18.8536 12.5039 18.7258C12.4955 18.6579 12.5007 18.589 12.519 18.5231C12.5373 18.4572 12.5684 18.3958 12.6105 18.3425C12.6525 18.2892 12.7046 18.2452 12.7637 18.2129C12.8228 18.1807 12.8876 18.1609 12.9543 18.1548L15.0802 17.6944L13.699 16.8962C13.5921 16.833 13.5131 16.7301 13.4784 16.6089C13.4437 16.4877 13.4561 16.3575 13.5128 16.2454C13.5782 16.1299 13.6853 16.0454 13.8111 16.0098C13.9368 15.9742 14.0712 15.9904 14.1854 16.055L15.6027 16.8532L14.894 14.7534V14.6797C14.8749 14.6168 14.8686 14.5507 14.8753 14.4852C14.882 14.4197 14.9017 14.3563 14.9332 14.2989C14.9646 14.2414 15.0072 14.1911 15.0583 14.151C15.1094 14.111 15.1679 14.0819 15.2303 14.0657C15.3593 14.0361 15.4944 14.0594 15.6067 14.1306C15.719 14.2018 15.7995 14.3152 15.8309 14.4464L16.8758 17.5716L19.5302 19.1372V16.0673L17.3262 13.6114C17.2902 13.6114 17.2902 13.6114 17.2902 13.5746C17.2469 13.5263 17.2142 13.4693 17.1942 13.4071C17.1741 13.3449 17.1673 13.2791 17.1741 13.2141C17.181 13.149 17.2013 13.0862 17.2337 13.0297C17.2661 12.9733 17.31 12.9246 17.3623 12.8869C17.4639 12.8131 17.5883 12.7799 17.7122 12.7935C17.8361 12.807 17.9509 12.8665 18.0349 12.9606L19.5302 14.5999V12.9422C19.5435 12.8206 19.6002 12.7082 19.6893 12.6267C19.7785 12.5451 19.894 12.5 20.0137 12.5C20.1333 12.5 20.2488 12.5451 20.338 12.6267C20.4272 12.7082 20.4838 12.8206 20.4971 12.9422V14.5446L21.9925 12.9053L22.0285 12.8685C22.1243 12.7761 22.2511 12.7246 22.3828 12.7246C22.5145 12.7246 22.6413 12.7761 22.7371 12.8685C22.7833 12.9137 22.8194 12.9686 22.8429 13.0294C22.8664 13.0902 22.8768 13.1555 22.8734 13.2207C22.8699 13.286 22.8528 13.3498 22.823 13.4077C22.7933 13.4656 22.7517 13.5162 22.7011 13.5561L20.4971 16.0121V19.082L23.1875 17.5163L24.1965 14.3911V14.3482C24.2561 14.2278 24.3572 14.1342 24.4802 14.0855C24.6033 14.0367 24.7397 14.0362 24.8631 14.0842C24.9812 14.1345 25.0752 14.2304 25.1246 14.351C25.1741 14.4717 25.1751 14.6074 25.1273 14.7288L24.4547 16.8286L25.8359 16.0305C25.9425 15.982 26.0619 15.9713 26.1751 16.0003C26.2883 16.0292 26.3888 16.096 26.4605 16.1901C26.5152 16.3085 26.5265 16.4431 26.4924 16.5693C26.4582 16.6955 26.3808 16.805 26.2743 16.8778L24.8931 17.6759L27.055 18.1364L27.0971 18.1733C27.1642 18.1852 27.2281 18.2115 27.2847 18.2503C27.3413 18.2891 27.3892 18.3397 27.4255 18.3987C27.4617 18.4577 27.4854 18.5238 27.4951 18.5928C27.5047 18.6617 27.5001 18.732 27.4815 18.799C27.4629 18.866 27.4307 18.9283 27.3871 18.9818C27.3434 19.0353 27.2893 19.0788 27.2281 19.1095C27.167 19.1403 27.1002 19.1575 27.0321 19.1602C26.964 19.1628 26.8961 19.1508 26.8328 19.1249L23.6259 18.4373L20.9715 19.9661L23.6259 21.4949L26.8328 20.8072H26.9049C26.9684 20.7968 27.0333 20.7992 27.0959 20.8143C27.1584 20.8295 27.2175 20.8571 27.2696 20.8956C27.3218 20.9341 27.366 20.9827 27.3997 21.0386C27.4335 21.0946 27.4562 21.1568 27.4664 21.2217C27.4767 21.2866 27.4743 21.3529 27.4595 21.4169C27.4447 21.4809 27.4177 21.5412 27.38 21.5946C27.3424 21.6479 27.2948 21.6931 27.2401 21.7276C27.1854 21.7621 27.1245 21.7853 27.0611 21.7958Z"/>
</mask>
<path d="M27.0611 21.7958L24.8991 22.2562L26.2803 23.0544C26.3841 23.1207 26.4599 23.224 26.4932 23.3443C26.5265 23.4646 26.5149 23.5932 26.4605 23.7052C26.4313 23.7656 26.3899 23.8189 26.3391 23.8618C26.2883 23.9046 26.2293 23.9361 26.1658 23.954C26.1023 23.972 26.0359 23.9761 25.9708 23.966C25.9056 23.9559 25.8433 23.9319 25.7879 23.8956L24.4066 23.0974L25.0793 25.1911V25.2709C25.0984 25.3338 25.1047 25.3999 25.098 25.4654C25.0913 25.5309 25.0716 25.5943 25.0401 25.6517C25.0087 25.7092 24.9661 25.7595 24.915 25.7996C24.8639 25.8396 24.8054 25.8687 24.743 25.8849C24.679 25.9012 24.6126 25.9043 24.5475 25.8939C24.4824 25.8835 24.42 25.8598 24.364 25.8243C24.308 25.7888 24.2595 25.7422 24.2214 25.6872C24.1834 25.6322 24.1565 25.57 24.1424 25.5042L23.1335 22.3729L20.4551 20.8441V23.914L22.6591 26.3699C22.6951 26.3699 22.6951 26.4067 22.7311 26.4067C22.7684 26.4591 22.7951 26.5184 22.8098 26.5814C22.8245 26.6443 22.827 26.7096 22.8169 26.7736C22.8069 26.8375 22.7846 26.8987 22.7513 26.9538C22.718 27.0088 22.6744 27.0566 22.623 27.0944C22.5759 27.1387 22.52 27.1721 22.4592 27.1926C22.3984 27.2131 22.3341 27.22 22.2704 27.2131C22.2068 27.2061 22.1453 27.1853 22.0901 27.1522C22.035 27.119 21.9873 27.0742 21.9504 27.0207L20.4551 25.3998V27.0023C20.4536 27.1327 20.4026 27.2573 20.313 27.3501C20.2234 27.4429 20.1021 27.4965 19.9746 27.4996C19.9101 27.5022 19.8457 27.4911 19.7855 27.4671C19.7254 27.443 19.6707 27.4064 19.625 27.3597C19.5793 27.313 19.5436 27.2572 19.5201 27.1956C19.4965 27.1341 19.4857 27.0683 19.4882 27.0023V25.3998L17.9928 27.0453C17.9928 27.0551 17.989 27.0644 17.9823 27.0713C17.9755 27.0782 17.9664 27.0821 17.9568 27.0821C17.9126 27.1273 17.8602 27.1631 17.8025 27.1875C17.7448 27.212 17.683 27.2245 17.6205 27.2245C17.558 27.2245 17.4962 27.212 17.4385 27.1875C17.3808 27.1631 17.3284 27.1273 17.2842 27.0821C17.24 27.037 17.205 26.9834 17.1811 26.9244C17.1572 26.8654 17.1449 26.8021 17.1449 26.7383C17.1449 26.6744 17.1572 26.6112 17.1811 26.5522C17.205 26.4932 17.24 26.4396 17.2842 26.3945L19.4882 23.9385V20.8686L16.8338 22.3913L15.7888 25.5226V25.6024C15.7434 25.7188 15.6546 25.812 15.542 25.8615C15.4294 25.911 15.3022 25.9128 15.1883 25.8664C15.0642 25.8207 14.9629 25.7265 14.9066 25.6045C14.8503 25.4825 14.8436 25.3426 14.888 25.2156L15.5967 23.1219L14.1794 23.9201C14.1288 23.9563 14.0713 23.9812 14.0106 23.993C13.95 24.0049 13.8876 24.0036 13.8275 23.9891C13.7674 23.9746 13.711 23.9473 13.6619 23.9089C13.6128 23.8706 13.5723 23.8221 13.5428 23.7666C13.5084 23.7114 13.485 23.6498 13.4739 23.5854C13.4628 23.5209 13.4643 23.4548 13.4782 23.3909C13.4922 23.327 13.5183 23.2666 13.5552 23.2131C13.592 23.1595 13.6388 23.114 13.6929 23.079L15.0742 22.2808L12.9483 21.8203C12.9122 21.8203 12.8702 21.8203 12.8702 21.7835C12.8069 21.7691 12.7473 21.7411 12.6954 21.7013C12.6435 21.6615 12.6005 21.6109 12.5693 21.5528C12.538 21.4947 12.5192 21.4305 12.5142 21.3644C12.5091 21.2983 12.5179 21.2319 12.5399 21.1695C12.5844 21.049 12.669 20.9485 12.7788 20.8856C12.8887 20.8227 13.0168 20.8015 13.1404 20.8257L16.3894 21.5133L19.0378 19.9845L16.3894 18.4557L13.1404 19.1434H13.0684C12.9408 19.1556 12.8132 19.12 12.7093 19.0432C12.6055 18.9664 12.5324 18.8536 12.5039 18.7258C12.4955 18.6579 12.5007 18.589 12.519 18.5231C12.5373 18.4572 12.5684 18.3958 12.6105 18.3425C12.6525 18.2892 12.7046 18.2452 12.7637 18.2129C12.8228 18.1807 12.8876 18.1609 12.9543 18.1548L15.0802 17.6944L13.699 16.8962C13.5921 16.833 13.5131 16.7301 13.4784 16.6089C13.4437 16.4877 13.4561 16.3575 13.5128 16.2454C13.5782 16.1299 13.6853 16.0454 13.8111 16.0098C13.9368 15.9742 14.0712 15.9904 14.1854 16.055L15.6027 16.8532L14.894 14.7534V14.6797C14.8749 14.6168 14.8686 14.5507 14.8753 14.4852C14.882 14.4197 14.9017 14.3563 14.9332 14.2989C14.9646 14.2414 15.0072 14.1911 15.0583 14.151C15.1094 14.111 15.1679 14.0819 15.2303 14.0657C15.3593 14.0361 15.4944 14.0594 15.6067 14.1306C15.719 14.2018 15.7995 14.3152 15.8309 14.4464L16.8758 17.5716L19.5302 19.1372V16.0673L17.3262 13.6114C17.2902 13.6114 17.2902 13.6114 17.2902 13.5746C17.2469 13.5263 17.2142 13.4693 17.1942 13.4071C17.1741 13.3449 17.1673 13.2791 17.1741 13.2141C17.181 13.149 17.2013 13.0862 17.2337 13.0297C17.2661 12.9733 17.31 12.9246 17.3623 12.8869C17.4639 12.8131 17.5883 12.7799 17.7122 12.7935C17.8361 12.807 17.9509 12.8665 18.0349 12.9606L19.5302 14.5999V12.9422C19.5435 12.8206 19.6002 12.7082 19.6893 12.6267C19.7785 12.5451 19.894 12.5 20.0137 12.5C20.1333 12.5 20.2488 12.5451 20.338 12.6267C20.4272 12.7082 20.4838 12.8206 20.4971 12.9422V14.5446L21.9925 12.9053L22.0285 12.8685C22.1243 12.7761 22.2511 12.7246 22.3828 12.7246C22.5145 12.7246 22.6413 12.7761 22.7371 12.8685C22.7833 12.9137 22.8194 12.9686 22.8429 13.0294C22.8664 13.0902 22.8768 13.1555 22.8734 13.2207C22.8699 13.286 22.8528 13.3498 22.823 13.4077C22.7933 13.4656 22.7517 13.5162 22.7011 13.5561L20.4971 16.0121V19.082L23.1875 17.5163L24.1965 14.3911V14.3482C24.2561 14.2278 24.3572 14.1342 24.4802 14.0855C24.6033 14.0367 24.7397 14.0362 24.8631 14.0842C24.9812 14.1345 25.0752 14.2304 25.1246 14.351C25.1741 14.4717 25.1751 14.6074 25.1273 14.7288L24.4547 16.8286L25.8359 16.0305C25.9425 15.982 26.0619 15.9713 26.1751 16.0003C26.2883 16.0292 26.3888 16.096 26.4605 16.1901C26.5152 16.3085 26.5265 16.4431 26.4924 16.5693C26.4582 16.6955 26.3808 16.805 26.2743 16.8778L24.8931 17.6759L27.055 18.1364L27.0971 18.1733C27.1642 18.1852 27.2281 18.2115 27.2847 18.2503C27.3413 18.2891 27.3892 18.3397 27.4255 18.3987C27.4617 18.4577 27.4854 18.5238 27.4951 18.5928C27.5047 18.6617 27.5001 18.732 27.4815 18.799C27.4629 18.866 27.4307 18.9283 27.3871 18.9818C27.3434 19.0353 27.2893 19.0788 27.2281 19.1095C27.167 19.1403 27.1002 19.1575 27.0321 19.1602C26.964 19.1628 26.8961 19.1508 26.8328 19.1249L23.6259 18.4373L20.9715 19.9661L23.6259 21.4949L26.8328 20.8072H26.9049C26.9684 20.7968 27.0333 20.7992 27.0959 20.8143C27.1584 20.8295 27.2175 20.8571 27.2696 20.8956C27.3218 20.9341 27.366 20.9827 27.3997 21.0386C27.4335 21.0946 27.4562 21.1568 27.4664 21.2217C27.4767 21.2866 27.4743 21.3529 27.4595 21.4169C27.4447 21.4809 27.4177 21.5412 27.38 21.5946C27.3424 21.6479 27.2948 21.6931 27.2401 21.7276C27.1854 21.7621 27.1245 21.7853 27.0611 21.7958Z" fill="white"/>
<path d="M27.0611 21.7958L24.8991 22.2562L26.2803 23.0544C26.3841 23.1207 26.4599 23.224 26.4932 23.3443C26.5265 23.4646 26.5149 23.5932 26.4605 23.7052C26.4313 23.7656 26.3899 23.8189 26.3391 23.8618C26.2883 23.9046 26.2293 23.9361 26.1658 23.954C26.1023 23.972 26.0359 23.9761 25.9708 23.966C25.9056 23.9559 25.8433 23.9319 25.7879 23.8956L24.4066 23.0974L25.0793 25.1911V25.2709C25.0984 25.3338 25.1047 25.3999 25.098 25.4654C25.0913 25.5309 25.0716 25.5943 25.0401 25.6517C25.0087 25.7092 24.9661 25.7595 24.915 25.7996C24.8639 25.8396 24.8054 25.8687 24.743 25.8849C24.679 25.9012 24.6126 25.9043 24.5475 25.8939C24.4824 25.8835 24.42 25.8598 24.364 25.8243C24.308 25.7888 24.2595 25.7422 24.2214 25.6872C24.1834 25.6322 24.1565 25.57 24.1424 25.5042L23.1335 22.3729L20.4551 20.8441V23.914L22.6591 26.3699C22.6951 26.3699 22.6951 26.4067 22.7311 26.4067C22.7684 26.4591 22.7951 26.5184 22.8098 26.5814C22.8245 26.6443 22.827 26.7096 22.8169 26.7736C22.8069 26.8375 22.7846 26.8987 22.7513 26.9538C22.718 27.0088 22.6744 27.0566 22.623 27.0944C22.5759 27.1387 22.52 27.1721 22.4592 27.1926C22.3984 27.2131 22.3341 27.22 22.2704 27.2131C22.2068 27.2061 22.1453 27.1853 22.0901 27.1522C22.035 27.119 21.9873 27.0742 21.9504 27.0207L20.4551 25.3998V27.0023C20.4536 27.1327 20.4026 27.2573 20.313 27.3501C20.2234 27.4429 20.1021 27.4965 19.9746 27.4996C19.9101 27.5022 19.8457 27.4911 19.7855 27.4671C19.7254 27.443 19.6707 27.4064 19.625 27.3597C19.5793 27.313 19.5436 27.2572 19.5201 27.1956C19.4965 27.1341 19.4857 27.0683 19.4882 27.0023V25.3998L17.9928 27.0453C17.9928 27.0551 17.989 27.0644 17.9823 27.0713C17.9755 27.0782 17.9664 27.0821 17.9568 27.0821C17.9126 27.1273 17.8602 27.1631 17.8025 27.1875C17.7448 27.212 17.683 27.2245 17.6205 27.2245C17.558 27.2245 17.4962 27.212 17.4385 27.1875C17.3808 27.1631 17.3284 27.1273 17.2842 27.0821C17.24 27.037 17.205 26.9834 17.1811 26.9244C17.1572 26.8654 17.1449 26.8021 17.1449 26.7383C17.1449 26.6744 17.1572 26.6112 17.1811 26.5522C17.205 26.4932 17.24 26.4396 17.2842 26.3945L19.4882 23.9385V20.8686L16.8338 22.3913L15.7888 25.5226V25.6024C15.7434 25.7188 15.6546 25.812 15.542 25.8615C15.4294 25.911 15.3022 25.9128 15.1883 25.8664C15.0642 25.8207 14.9629 25.7265 14.9066 25.6045C14.8503 25.4825 14.8436 25.3426 14.888 25.2156L15.5967 23.1219L14.1794 23.9201C14.1288 23.9563 14.0713 23.9812 14.0106 23.993C13.95 24.0049 13.8876 24.0036 13.8275 23.9891C13.7674 23.9746 13.711 23.9473 13.6619 23.9089C13.6128 23.8706 13.5723 23.8221 13.5428 23.7666C13.5084 23.7114 13.485 23.6498 13.4739 23.5854C13.4628 23.5209 13.4643 23.4548 13.4782 23.3909C13.4922 23.327 13.5183 23.2666 13.5552 23.2131C13.592 23.1595 13.6388 23.114 13.6929 23.079L15.0742 22.2808L12.9483 21.8203C12.9122 21.8203 12.8702 21.8203 12.8702 21.7835C12.8069 21.7691 12.7473 21.7411 12.6954 21.7013C12.6435 21.6615 12.6005 21.6109 12.5693 21.5528C12.538 21.4947 12.5192 21.4305 12.5142 21.3644C12.5091 21.2983 12.5179 21.2319 12.5399 21.1695C12.5844 21.049 12.669 20.9485 12.7788 20.8856C12.8887 20.8227 13.0168 20.8015 13.1404 20.8257L16.3894 21.5133L19.0378 19.9845L16.3894 18.4557L13.1404 19.1434H13.0684C12.9408 19.1556 12.8132 19.12 12.7093 19.0432C12.6055 18.9664 12.5324 18.8536 12.5039 18.7258C12.4955 18.6579 12.5007 18.589 12.519 18.5231C12.5373 18.4572 12.5684 18.3958 12.6105 18.3425C12.6525 18.2892 12.7046 18.2452 12.7637 18.2129C12.8228 18.1807 12.8876 18.1609 12.9543 18.1548L15.0802 17.6944L13.699 16.8962C13.5921 16.833 13.5131 16.7301 13.4784 16.6089C13.4437 16.4877 13.4561 16.3575 13.5128 16.2454C13.5782 16.1299 13.6853 16.0454 13.8111 16.0098C13.9368 15.9742 14.0712 15.9904 14.1854 16.055L15.6027 16.8532L14.894 14.7534V14.6797C14.8749 14.6168 14.8686 14.5507 14.8753 14.4852C14.882 14.4197 14.9017 14.3563 14.9332 14.2989C14.9646 14.2414 15.0072 14.1911 15.0583 14.151C15.1094 14.111 15.1679 14.0819 15.2303 14.0657C15.3593 14.0361 15.4944 14.0594 15.6067 14.1306C15.719 14.2018 15.7995 14.3152 15.8309 14.4464L16.8758 17.5716L19.5302 19.1372V16.0673L17.3262 13.6114C17.2902 13.6114 17.2902 13.6114 17.2902 13.5746C17.2469 13.5263 17.2142 13.4693 17.1942 13.4071C17.1741 13.3449 17.1673 13.2791 17.1741 13.2141C17.181 13.149 17.2013 13.0862 17.2337 13.0297C17.2661 12.9733 17.31 12.9246 17.3623 12.8869C17.4639 12.8131 17.5883 12.7799 17.7122 12.7935C17.8361 12.807 17.9509 12.8665 18.0349 12.9606L19.5302 14.5999V12.9422C19.5435 12.8206 19.6002 12.7082 19.6893 12.6267C19.7785 12.5451 19.894 12.5 20.0137 12.5C20.1333 12.5 20.2488 12.5451 20.338 12.6267C20.4272 12.7082 20.4838 12.8206 20.4971 12.9422V14.5446L21.9925 12.9053L22.0285 12.8685C22.1243 12.7761 22.2511 12.7246 22.3828 12.7246C22.5145 12.7246 22.6413 12.7761 22.7371 12.8685C22.7833 12.9137 22.8194 12.9686 22.8429 13.0294C22.8664 13.0902 22.8768 13.1555 22.8734 13.2207C22.8699 13.286 22.8528 13.3498 22.823 13.4077C22.7933 13.4656 22.7517 13.5162 22.7011 13.5561L20.4971 16.0121V19.082L23.1875 17.5163L24.1965 14.3911V14.3482C24.2561 14.2278 24.3572 14.1342 24.4802 14.0855C24.6033 14.0367 24.7397 14.0362 24.8631 14.0842C24.9812 14.1345 25.0752 14.2304 25.1246 14.351C25.1741 14.4717 25.1751 14.6074 25.1273 14.7288L24.4547 16.8286L25.8359 16.0305C25.9425 15.982 26.0619 15.9713 26.1751 16.0003C26.2883 16.0292 26.3888 16.096 26.4605 16.1901C26.5152 16.3085 26.5265 16.4431 26.4924 16.5693C26.4582 16.6955 26.3808 16.805 26.2743 16.8778L24.8931 17.6759L27.055 18.1364L27.0971 18.1733C27.1642 18.1852 27.2281 18.2115 27.2847 18.2503C27.3413 18.2891 27.3892 18.3397 27.4255 18.3987C27.4617 18.4577 27.4854 18.5238 27.4951 18.5928C27.5047 18.6617 27.5001 18.732 27.4815 18.799C27.4629 18.866 27.4307 18.9283 27.3871 18.9818C27.3434 19.0353 27.2893 19.0788 27.2281 19.1095C27.167 19.1403 27.1002 19.1575 27.0321 19.1602C26.964 19.1628 26.8961 19.1508 26.8328 19.1249L23.6259 18.4373L20.9715 19.9661L23.6259 21.4949L26.8328 20.8072H26.9049C26.9684 20.7968 27.0333 20.7992 27.0959 20.8143C27.1584 20.8295 27.2175 20.8571 27.2696 20.8956C27.3218 20.9341 27.366 20.9827 27.3997 21.0386C27.4335 21.0946 27.4562 21.1568 27.4664 21.2217C27.4767 21.2866 27.4743 21.3529 27.4595 21.4169C27.4447 21.4809 27.4177 21.5412 27.38 21.5946C27.3424 21.6479 27.2948 21.6931 27.2401 21.7276C27.1854 21.7621 27.1245 21.7853 27.0611 21.7958Z" stroke="white" stroke-width="0.4" mask="url(#path-2-outside-1_88_69927)"/>
</svg>
