<svg width="16" height="16" viewBox="0 0 16 16" fill="none" xmlns="http://www.w3.org/2000/svg">
<g id="UI icon/mic/light">
<path id="Rectangle (Stroke)" fill-rule="evenodd" clip-rule="evenodd" d="M8.66667 7.33301V3.33301C8.66667 2.96482 8.36819 2.66634 8 2.66634C7.63181 2.66634 7.33333 2.96482 7.33333 3.33301V7.33301C7.33333 7.7012 7.63181 7.99967 8 7.99967C8.36819 7.99967 8.66667 7.7012 8.66667 7.33301ZM8 1.33301C6.89543 1.33301 6 2.22844 6 3.33301V7.33301C6 8.43758 6.89543 9.33301 8 9.33301C9.10457 9.33301 10 8.43758 10 7.33301V3.33301C10 2.22844 9.10457 1.33301 8 1.33301Z" fill="#999999"/>
<path id="Union" d="M4.66666 7.33366C4.66666 6.96547 4.36818 6.66699 3.99999 6.66699C3.63181 6.66699 3.33333 6.96547 3.33333 7.33366C3.33333 9.68464 5.0718 11.6296 7.33333 11.9531V13.3337H5.99999C5.63181 13.3337 5.33333 13.6321 5.33333 14.0003C5.33333 14.3685 5.63181 14.667 5.99999 14.667H10C10.3682 14.667 10.6667 14.3685 10.6667 14.0003C10.6667 13.6321 10.3682 13.3337 10 13.3337H8.66666V11.9531C10.9282 11.6296 12.6667 9.68464 12.6667 7.33366C12.6667 6.96547 12.3682 6.66699 12 6.66699C11.6318 6.66699 11.3333 6.96547 11.3333 7.33366C11.3333 9.17461 9.84094 10.667 8 10.667C6.15905 10.667 4.66666 9.17461 4.66666 7.33366Z" fill="#999999"/>
</g>
</svg>
