<svg width="13" height="13" viewBox="0 0 13 13" fill="none" xmlns="http://www.w3.org/2000/svg">
<g id="UI icon/mic/light">
<path id="Rectangle (Stroke)" fill-rule="evenodd" clip-rule="evenodd" d="M7.45361 6V3C7.45361 2.72386 7.22976 2.5 6.95361 2.5C6.67747 2.5 6.45361 2.72386 6.45361 3V6C6.45361 6.27614 6.67747 6.5 6.95361 6.5C7.22976 6.5 7.45361 6.27614 7.45361 6ZM6.95361 1.5C6.12519 1.5 5.45361 2.17157 5.45361 3V6C5.45361 6.82843 6.12519 7.5 6.95361 7.5C7.78204 7.5 8.45361 6.82843 8.45361 6V3C8.45361 2.17157 7.78204 1.5 6.95361 1.5Z" fill="white"/>
<path id="Union" d="M4.45361 6C4.45361 5.72386 4.22976 5.5 3.95361 5.5C3.67747 5.5 3.45361 5.72386 3.45361 6C3.45361 7.76324 4.75747 9.22194 6.45361 9.46456V10.5H5.45361C5.17747 10.5 4.95361 10.7239 4.95361 11C4.95361 11.2761 5.17747 11.5 5.45361 11.5H8.45361C8.72976 11.5 8.95361 11.2761 8.95361 11C8.95361 10.7239 8.72976 10.5 8.45361 10.5H7.45361V9.46456C9.14976 9.22194 10.4536 7.76324 10.4536 6C10.4536 5.72386 10.2298 5.5 9.95361 5.5C9.67747 5.5 9.45361 5.72386 9.45361 6C9.45361 7.38071 8.33432 8.5 6.95361 8.5C5.5729 8.5 4.45361 7.38071 4.45361 6Z" fill="white"/>
</g>
</svg>
