<svg width="72" height="72" viewBox="0 0 72 72" fill="none" xmlns="http://www.w3.org/2000/svg">
<g id="Frame 21785" clip-path="url(#clip0_5637_62542)">
<g id="Group 21783">
<path id="Vector" d="M40.7801 39.8211C40.8372 39.8211 40.8938 39.8084 40.9466 39.7837C40.9993 39.759 41.0473 39.7227 41.0877 39.677C41.1281 39.6313 41.1602 39.577 41.182 39.5173C41.2039 39.4575 41.2152 39.3935 41.2152 39.3288V32.7531C41.2152 32.6225 41.1693 32.4972 41.0878 32.4048C41.0062 32.3125 40.8956 32.2606 40.7803 32.2606C40.6649 32.2606 40.5543 32.3125 40.4728 32.4048C40.3912 32.4972 40.3454 32.6225 40.3454 32.7531V39.3288C40.3454 39.4593 40.3912 39.5846 40.4727 39.6769C40.5542 39.7692 40.6648 39.8211 40.7801 39.8211ZM43.0605 40.8483C43.1758 40.8483 43.2864 40.7965 43.3679 40.7041C43.4494 40.6118 43.4952 40.4866 43.4952 40.356V31.7258C43.4952 31.5953 43.4494 31.47 43.3679 31.3777C43.2864 31.2854 43.1758 31.2335 43.0605 31.2335C42.9452 31.2335 42.8347 31.2854 42.7532 31.3777C42.6716 31.47 42.6258 31.5953 42.6258 31.7258V40.356C42.6258 40.4866 42.6716 40.6118 42.7532 40.7041C42.8347 40.7965 42.9452 40.8483 43.0605 40.8483ZM49.9011 39.8211C49.9582 39.8211 50.0148 39.8084 50.0675 39.7837C50.1203 39.759 50.1683 39.7227 50.2087 39.677C50.2491 39.6313 50.2811 39.577 50.303 39.5173C50.3249 39.4575 50.3361 39.3935 50.3361 39.3288V32.7531C50.3361 32.6225 50.2903 32.4972 50.2088 32.4048C50.1272 32.3125 50.0166 32.2606 49.9013 32.2606C49.7859 32.2606 49.6753 32.3125 49.5938 32.4048C49.5122 32.4972 49.4664 32.6225 49.4664 32.7531V39.3288C49.4664 39.4593 49.5122 39.5846 49.5937 39.6769C49.6752 39.7692 49.7858 39.8211 49.9011 39.8211ZM47.6206 40.8483C47.6778 40.8484 47.7343 40.8357 47.7871 40.811C47.8399 40.7863 47.8878 40.75 47.9283 40.7043C47.9687 40.6586 48.0007 40.6043 48.0226 40.5445C48.0444 40.4848 48.0557 40.4207 48.0557 40.356V31.7258C48.0557 31.5952 48.0099 31.4699 47.9283 31.3776C47.8468 31.2852 47.7362 31.2333 47.6208 31.2333C47.5055 31.2333 47.3949 31.2852 47.3133 31.3776C47.2318 31.4699 47.1859 31.5952 47.1859 31.7258V40.356C47.1859 40.4207 47.1972 40.4848 47.2191 40.5445C47.2409 40.6043 47.273 40.6586 47.3134 40.7043C47.3538 40.75 47.4018 40.7863 47.4545 40.811C47.5073 40.8357 47.5639 40.8484 47.621 40.8483H47.6206ZM45.3406 42.0812C45.4558 42.0812 45.5663 42.0294 45.6478 41.9372C45.7293 41.8449 45.7752 41.7198 45.7753 41.5893V30.4925C45.7753 30.3619 45.7295 30.2367 45.648 30.1444C45.5664 30.0521 45.4559 30.0002 45.3406 30.0002C45.2253 30.0002 45.1147 30.0521 45.0332 30.1444C44.9517 30.2367 44.9059 30.3619 44.9059 30.4925V41.5889C44.906 41.7194 44.9518 41.8445 45.0333 41.9367C45.1149 42.029 45.2254 42.0808 45.3406 42.0808V42.0812ZM58.7764 39.8211C58.8917 39.8211 59.0023 39.7692 59.0838 39.6769C59.1653 39.5846 59.2111 39.4593 59.2111 39.3288V32.7531C59.2111 32.6225 59.1653 32.4973 59.0838 32.405C59.0023 32.3127 58.8917 32.2608 58.7764 32.2608C58.6612 32.2608 58.5506 32.3127 58.4691 32.405C58.3876 32.4973 58.3418 32.6225 58.3418 32.7531V39.3288C58.3418 39.4593 58.3876 39.5846 58.4691 39.6769C58.5506 39.7692 58.6612 39.8211 58.7764 39.8211ZM61.0569 40.8483C61.1722 40.8483 61.2827 40.7965 61.3643 40.7041C61.4458 40.6118 61.4916 40.4866 61.4916 40.356V31.7258C61.4916 31.5952 61.4458 31.4699 61.3642 31.3776C61.2826 31.2852 61.172 31.2333 61.0567 31.2333C60.9414 31.2333 60.8307 31.2852 60.7492 31.3776C60.6676 31.4699 60.6218 31.5952 60.6218 31.7258V40.356C60.6218 40.4207 60.6331 40.4848 60.6549 40.5445C60.6768 40.6043 60.7089 40.6586 60.7493 40.7043C60.7897 40.75 60.8376 40.7863 60.8904 40.811C60.9432 40.8357 60.9998 40.8484 61.0569 40.8483ZM67.897 39.8211C68.0123 39.8211 68.1229 39.7692 68.2044 39.6769C68.2859 39.5846 68.3317 39.4593 68.3317 39.3288V32.7531C68.3317 32.6225 68.2859 32.4972 68.2044 32.4048C68.1228 32.3125 68.0122 32.2606 67.8969 32.2606C67.7815 32.2606 67.6709 32.3125 67.5894 32.4048C67.5078 32.4972 67.462 32.6225 67.462 32.7531V39.3288C67.462 39.3935 67.4732 39.4575 67.4951 39.5173C67.517 39.577 67.549 39.6313 67.5894 39.677C67.6298 39.7227 67.6778 39.759 67.7306 39.7837C67.7834 39.8084 67.8399 39.8211 67.897 39.8211ZM56.4783 38.0263C56.5354 38.0264 56.592 38.0137 56.6448 37.989C56.6976 37.9643 56.7455 37.928 56.7859 37.8823C56.8263 37.8366 56.8584 37.7823 56.8803 37.7225C56.9021 37.6628 56.9134 37.5987 56.9134 37.534V34.727C56.9134 34.5963 56.8675 34.471 56.786 34.3786C56.7044 34.2862 56.5937 34.2343 56.4783 34.2343C56.3629 34.2343 56.2523 34.2862 56.1707 34.3786C56.0891 34.471 56.0432 34.5963 56.0432 34.727V37.534C56.0432 37.5987 56.0545 37.6628 56.0764 37.7225C56.0982 37.7823 56.1303 37.8366 56.1707 37.8823C56.2111 37.928 56.2591 37.9643 56.3118 37.989C56.3646 38.0137 56.4212 38.0264 56.4783 38.0263ZM54.3229 37.0498C54.4382 37.0498 54.5487 36.998 54.6302 36.9058C54.7117 36.8136 54.7575 36.6885 54.7576 36.558V35.8268C54.7576 35.6962 54.7118 35.5709 54.6303 35.4785C54.5487 35.3861 54.4381 35.3343 54.3228 35.3343C54.2074 35.3343 54.0968 35.3861 54.0152 35.4785C53.9337 35.5709 53.8879 35.6962 53.8879 35.8268V36.558C53.8879 36.6227 53.8991 36.6867 53.921 36.7465C53.9429 36.8062 53.9749 36.8605 54.0153 36.9062C54.0557 36.952 54.1037 36.9882 54.1565 37.0129C54.2093 37.0376 54.2658 37.0503 54.3229 37.0503V37.0498ZM72.4801 35.09C72.423 35.09 72.3665 35.1027 72.3137 35.1274C72.2609 35.1521 72.2129 35.1883 72.1725 35.2341C72.1321 35.2798 72.1001 35.3341 72.0782 35.3938C72.0563 35.4536 72.0451 35.5176 72.0451 35.5823V36.3135C72.0451 36.4442 72.0909 36.5694 72.1724 36.6618C72.254 36.7542 72.3646 36.806 72.4799 36.806C72.5953 36.806 72.7059 36.7542 72.7875 36.6618C72.869 36.5694 72.9148 36.4442 72.9148 36.3135V35.5823C72.9148 35.4518 72.869 35.3265 72.7875 35.2342C72.706 35.1419 72.5954 35.09 72.4801 35.09ZM36.4343 35.1515C36.3772 35.1515 36.3207 35.1643 36.2679 35.1891C36.2152 35.214 36.1673 35.2503 36.1269 35.2961C36.0866 35.3419 36.0546 35.3963 36.0328 35.4561C36.0111 35.5159 35.9999 35.5799 36 35.6446V36.3754C36 36.506 36.0458 36.6313 36.1274 36.7236C36.2089 36.816 36.3195 36.8679 36.4349 36.8679C36.5502 36.8679 36.6608 36.816 36.7424 36.7236C36.8239 36.6313 36.8698 36.506 36.8698 36.3754V35.6446C36.8698 35.5799 36.8585 35.5159 36.8366 35.4561C36.8148 35.3964 36.7827 35.3421 36.7423 35.2964C36.7019 35.2506 36.6539 35.2144 36.6012 35.1897C36.5484 35.1649 36.4918 35.1523 36.4347 35.1523L36.4343 35.1515ZM52.1672 38.0263C52.2243 38.0264 52.2809 38.0137 52.3337 37.989C52.3864 37.9643 52.4344 37.928 52.4748 37.8823C52.5152 37.8366 52.5473 37.7823 52.5691 37.7225C52.591 37.6628 52.6023 37.5987 52.6023 37.534V34.727C52.6023 34.5964 52.5565 34.4712 52.4749 34.3789C52.3934 34.2866 52.2829 34.2347 52.1676 34.2347C52.0523 34.2347 51.9417 34.2866 51.8602 34.3789C51.7787 34.4712 51.7329 34.5964 51.7329 34.727V37.534C51.7329 37.6646 51.7787 37.7898 51.8602 37.8822C51.9417 37.9745 52.0523 38.0263 52.1676 38.0263H52.1672ZM38.5897 37.9658C38.705 37.9658 38.8155 37.9139 38.8971 37.8216C38.9786 37.7292 39.0244 37.604 39.0244 37.4735V34.6664C39.0244 34.5358 38.9786 34.4106 38.8971 34.3183C38.8155 34.226 38.705 34.1741 38.5897 34.1741C38.4744 34.1741 38.3638 34.226 38.2823 34.3183C38.2008 34.4106 38.155 34.5358 38.155 34.6664V37.4735C38.155 37.604 38.2008 37.7292 38.2823 37.8216C38.3638 37.9139 38.4744 37.9658 38.5897 37.9658ZM70.1635 34.1127C70.0483 34.1127 69.9377 34.1645 69.8562 34.2569C69.7747 34.3492 69.7289 34.4744 69.7289 34.605V37.412C69.7289 37.5427 69.7747 37.6679 69.8562 37.7603C69.9378 37.8527 70.0484 37.9045 70.1637 37.9045C70.2791 37.9045 70.3897 37.8527 70.4712 37.7603C70.5528 37.6679 70.5986 37.5427 70.5986 37.412V34.605C70.5986 34.5403 70.5874 34.4762 70.5655 34.4165C70.5436 34.3567 70.5116 34.3024 70.4712 34.2567C70.4308 34.211 70.3828 34.1747 70.33 34.15C70.2772 34.1253 70.2207 34.1126 70.1635 34.1127ZM65.617 40.8483C65.7323 40.8483 65.8428 40.7965 65.9244 40.7041C66.0059 40.6118 66.0517 40.4866 66.0517 40.356V31.7258C66.0517 31.5953 66.0059 31.47 65.9244 31.3777C65.8428 31.2854 65.7323 31.2335 65.617 31.2335C65.5017 31.2335 65.3911 31.2854 65.3096 31.3777C65.2281 31.47 65.1823 31.5953 65.1823 31.7258V40.356C65.1823 40.4866 65.2281 40.6118 65.3096 40.7041C65.3911 40.7965 65.5017 40.8483 65.617 40.8483ZM63.3366 42.0812C63.3936 42.0813 63.4502 42.0686 63.5029 42.0439C63.5557 42.0192 63.6036 41.983 63.644 41.9373C63.6844 41.8917 63.7165 41.8374 63.7384 41.7777C63.7603 41.718 63.7716 41.654 63.7716 41.5893V30.4925C63.7716 30.3619 63.7258 30.2366 63.6443 30.1443C63.5627 30.0519 63.4521 30 63.3367 30C63.2214 30 63.1108 30.0519 63.0292 30.1443C62.9477 30.2366 62.9019 30.3619 62.9019 30.4925V41.5889C62.902 41.7194 62.9478 41.8445 63.0293 41.9367C63.1108 42.029 63.2213 42.0808 63.3366 42.0808V42.0812Z" fill="#CCCCCC"/>
<path id="Vector_2" d="M4.45783 39.781C4.51494 39.7811 4.57151 39.7684 4.62429 39.7437C4.67708 39.719 4.72504 39.6827 4.76544 39.637C4.80585 39.5913 4.8379 39.537 4.85977 39.4772C4.88164 39.4175 4.8929 39.3534 4.8929 39.2887V32.7131C4.8929 32.5824 4.84708 32.4572 4.76552 32.3648C4.68397 32.2724 4.57335 32.2205 4.45802 32.2205C4.34268 32.2205 4.23207 32.2724 4.15051 32.3648C4.06895 32.4572 4.02314 32.5824 4.02314 32.7131V39.2887C4.02314 39.4193 4.06894 39.5445 4.15046 39.6368C4.23198 39.7292 4.34254 39.781 4.45783 39.781ZM6.73826 40.8083C6.85355 40.8083 6.96411 40.7564 7.04563 40.6641C7.12715 40.5718 7.17295 40.4466 7.17295 40.316V31.6858C7.17295 31.5552 7.12715 31.43 7.04563 31.3377C6.96411 31.2454 6.85355 31.1935 6.73826 31.1935C6.62297 31.1935 6.51241 31.2454 6.43089 31.3377C6.34937 31.43 6.30357 31.5552 6.30357 31.6858V40.316C6.30357 40.4466 6.34937 40.5718 6.43089 40.6641C6.51241 40.7564 6.62297 40.8083 6.73826 40.8083ZM13.5788 39.781C13.6359 39.7811 13.6925 39.7684 13.7453 39.7437C13.7981 39.719 13.846 39.6827 13.8864 39.637C13.9268 39.5913 13.9589 39.537 13.9807 39.4772C14.0026 39.4175 14.0139 39.3534 14.0139 39.2887V32.7131C14.0139 32.5824 13.9681 32.4572 13.8865 32.3648C13.8049 32.2724 13.6943 32.2205 13.579 32.2205C13.4637 32.2205 13.353 32.2724 13.2715 32.3648C13.1899 32.4572 13.1441 32.5824 13.1441 32.7131V39.2887C13.1441 39.4193 13.1899 39.5445 13.2714 39.6368C13.353 39.7292 13.4635 39.781 13.5788 39.781ZM11.2984 40.8083C11.3555 40.8083 11.4121 40.7957 11.4648 40.7709C11.5176 40.7462 11.5656 40.71 11.606 40.6642C11.6464 40.6185 11.6784 40.5642 11.7003 40.5045C11.7222 40.4447 11.7334 40.3807 11.7334 40.316V31.6858C11.7334 31.5552 11.6876 31.4299 11.6061 31.3375C11.5245 31.2452 11.4139 31.1933 11.2986 31.1933C11.1832 31.1933 11.0726 31.2452 10.9911 31.3375C10.9095 31.4299 10.8637 31.5552 10.8637 31.6858V40.316C10.8637 40.3807 10.8749 40.4447 10.8968 40.5045C10.9187 40.5642 10.9507 40.6185 10.9911 40.6642C11.0315 40.71 11.0795 40.7462 11.1323 40.7709C11.1851 40.7957 11.2416 40.8083 11.2987 40.8083H11.2984ZM9.01832 42.0412C9.13354 42.0412 9.24405 41.9894 9.32556 41.8971C9.40707 41.8049 9.45291 41.6798 9.45301 41.5493V30.4525C9.45301 30.3219 9.40721 30.1967 9.32569 30.1044C9.24417 30.012 9.1336 29.9602 9.01832 29.9602C8.90303 29.9602 8.79246 30.012 8.71094 30.1044C8.62942 30.1967 8.58362 30.3219 8.58362 30.4525V41.5489C8.58372 41.6794 8.62957 41.8045 8.71108 41.8967C8.79259 41.9889 8.90309 42.0407 9.01832 42.0407V42.0412ZM22.4542 39.781C22.5695 39.781 22.68 39.7292 22.7616 39.6368C22.8431 39.5445 22.8889 39.4193 22.8889 39.2887V32.7131C22.8889 32.5825 22.8431 32.4573 22.7616 32.3649C22.68 32.2726 22.5695 32.2207 22.4542 32.2207C22.3389 32.2207 22.2283 32.2726 22.1468 32.3649C22.0653 32.4573 22.0195 32.5825 22.0195 32.7131V39.2887C22.0195 39.4193 22.0653 39.5445 22.1468 39.6368C22.2283 39.7292 22.3389 39.781 22.4542 39.781ZM24.7346 40.8083C24.8499 40.8083 24.9605 40.7564 25.042 40.6641C25.1235 40.5718 25.1693 40.4466 25.1693 40.316V31.6858C25.1693 31.5552 25.1235 31.4299 25.0419 31.3375C24.9604 31.2452 24.8498 31.1933 24.7344 31.1933C24.6191 31.1933 24.5085 31.2452 24.4269 31.3375C24.3454 31.4299 24.2995 31.5552 24.2995 31.6858V40.316C24.2995 40.3807 24.3108 40.4447 24.3327 40.5045C24.3545 40.5642 24.3866 40.6185 24.427 40.6642C24.4674 40.71 24.5154 40.7462 24.5682 40.7709C24.6209 40.7957 24.6775 40.8083 24.7346 40.8083ZM31.5748 39.781C31.6901 39.781 31.8006 39.7292 31.8822 39.6368C31.9637 39.5445 32.0095 39.4193 32.0095 39.2887V32.7131C32.0095 32.5824 31.9637 32.4572 31.8821 32.3648C31.8005 32.2724 31.6899 32.2205 31.5746 32.2205C31.4593 32.2205 31.3486 32.2724 31.2671 32.3648C31.1855 32.4572 31.1397 32.5824 31.1397 32.7131V39.2887C31.1397 39.3534 31.151 39.4175 31.1728 39.4772C31.1947 39.537 31.2268 39.5913 31.2672 39.637C31.3076 39.6827 31.3555 39.719 31.4083 39.7437C31.4611 39.7684 31.5177 39.7811 31.5748 39.781ZM20.156 37.9863C20.2132 37.9864 20.2697 37.9737 20.3225 37.949C20.3753 37.9242 20.4233 37.888 20.4637 37.8423C20.5041 37.7965 20.5361 37.7423 20.558 37.6825C20.5799 37.6227 20.5911 37.5587 20.5911 37.494V34.6869C20.5911 34.5563 20.5453 34.4309 20.4637 34.3385C20.3821 34.2461 20.2714 34.1942 20.156 34.1942C20.0407 34.1942 19.93 34.2461 19.8484 34.3385C19.7668 34.4309 19.721 34.5563 19.721 34.6869V37.494C19.721 37.5587 19.7322 37.6227 19.7541 37.6825C19.776 37.7423 19.808 37.7965 19.8484 37.8423C19.8888 37.888 19.9368 37.9242 19.9896 37.949C20.0424 37.9737 20.0989 37.9864 20.156 37.9863ZM18.0007 37.0098C18.1159 37.0098 18.2264 36.958 18.3079 36.8658C18.3894 36.7735 18.4353 36.6484 18.4354 36.5179V35.7867C18.4354 35.6561 18.3895 35.5308 18.308 35.4385C18.2264 35.3461 18.1158 35.2942 18.0005 35.2942C17.8851 35.2942 17.7745 35.3461 17.693 35.4385C17.6114 35.5308 17.5656 35.6561 17.5656 35.7867V36.5179C17.5656 36.5826 17.5769 36.6467 17.5987 36.7064C17.6206 36.7662 17.6527 36.8205 17.6931 36.8662C17.7335 36.9119 17.7814 36.9482 17.8342 36.9729C17.887 36.9976 17.9436 37.0103 18.0007 37.0102V37.0098ZM36.1579 35.05C36.1008 35.0499 36.0442 35.0626 35.9914 35.0873C35.9386 35.1121 35.8907 35.1483 35.8503 35.194C35.8098 35.2397 35.7778 35.294 35.7559 35.3538C35.7341 35.4136 35.7228 35.4776 35.7228 35.5423V36.2735C35.7228 36.4041 35.7686 36.5294 35.8502 36.6217C35.9317 36.7141 36.0423 36.766 36.1577 36.766C36.273 36.766 36.3836 36.7141 36.4652 36.6217C36.5467 36.5294 36.5926 36.4041 36.5926 36.2735V35.5423C36.5926 35.4117 36.5468 35.2865 36.4652 35.1942C36.3837 35.1019 36.2732 35.05 36.1579 35.05ZM0.112049 35.1114C0.0549331 35.1115 -0.00161344 35.1243 -0.0543582 35.1491C-0.107103 35.1739 -0.155012 35.2103 -0.195347 35.2561C-0.235681 35.3019 -0.267651 35.3562 -0.289429 35.416C-0.311206 35.4758 -0.322364 35.5399 -0.322265 35.6046V36.3353C-0.322265 36.466 -0.276447 36.5912 -0.194892 36.6836C-0.113336 36.776 -0.00272286 36.8279 0.112614 36.8279C0.227951 36.8279 0.338565 36.776 0.42012 36.6836C0.501676 36.5912 0.547494 36.466 0.547494 36.3353V35.6046C0.547494 35.5399 0.536237 35.4758 0.514369 35.4161C0.4925 35.3563 0.460447 35.302 0.420042 35.2563C0.379638 35.2106 0.331673 35.1743 0.278891 35.1496C0.226108 35.1249 0.169542 35.1122 0.112426 35.1123L0.112049 35.1114ZM15.8449 37.9863C15.902 37.9864 15.9586 37.9737 16.0114 37.949C16.0642 37.9242 16.1121 37.888 16.1525 37.8423C16.1929 37.7965 16.225 37.7423 16.2469 37.6825C16.2687 37.6227 16.28 37.5587 16.28 37.494V34.6869C16.28 34.5564 16.2342 34.4312 16.1527 34.3388C16.0712 34.2465 15.9606 34.1946 15.8453 34.1946C15.73 34.1946 15.6194 34.2465 15.5379 34.3388C15.4564 34.4312 15.4106 34.5564 15.4106 34.6869V37.494C15.4106 37.6246 15.4564 37.7498 15.5379 37.8421C15.6194 37.9344 15.73 37.9863 15.8453 37.9863H15.8449ZM2.26742 37.9257C2.38271 37.9257 2.49328 37.8739 2.5748 37.7815C2.65632 37.6892 2.70211 37.564 2.70211 37.4334V34.6264C2.70211 34.4958 2.65632 34.3706 2.5748 34.2783C2.49328 34.1859 2.38271 34.1341 2.26742 34.1341C2.15214 34.1341 2.04157 34.1859 1.96005 34.2783C1.87853 34.3706 1.83273 34.4958 1.83273 34.6264V37.4334C1.83273 37.564 1.87853 37.6892 1.96005 37.7815C2.04157 37.8739 2.15214 37.9257 2.26742 37.9257ZM33.8413 34.0726C33.726 34.0726 33.6154 34.1245 33.5339 34.2168C33.4524 34.3092 33.4066 34.4344 33.4066 34.5649V37.372C33.4066 37.5026 33.4524 37.6279 33.534 37.7203C33.6155 37.8126 33.7261 37.8645 33.8415 37.8645C33.9568 37.8645 34.0674 37.8126 34.149 37.7203C34.2305 37.6279 34.2763 37.5026 34.2763 37.372V34.5649C34.2763 34.5003 34.2651 34.4362 34.2432 34.3764C34.2214 34.3167 34.1893 34.2624 34.1489 34.2167C34.1085 34.171 34.0605 34.1347 34.0077 34.11C33.955 34.0853 33.8984 34.0726 33.8413 34.0726ZM29.2947 40.8083C29.41 40.8083 29.5206 40.7564 29.6021 40.6641C29.6836 40.5718 29.7294 40.4466 29.7294 40.316V31.6858C29.7294 31.5552 29.6836 31.43 29.6021 31.3377C29.5206 31.2454 29.41 31.1935 29.2947 31.1935C29.1794 31.1935 29.0689 31.2454 28.9874 31.3377C28.9058 31.43 28.86 31.5552 28.86 31.6858V40.316C28.86 40.4466 28.9058 40.5718 28.9874 40.6641C29.0689 40.7564 29.1794 40.8083 29.2947 40.8083ZM27.0143 42.0412C27.0714 42.0412 27.1279 42.0286 27.1807 42.0039C27.2334 41.9792 27.2814 41.943 27.3218 41.8973C27.3622 41.8516 27.3942 41.7974 27.4161 41.7377C27.438 41.678 27.4493 41.614 27.4494 41.5493V30.4525C27.4494 30.3219 27.4035 30.1966 27.322 30.1042C27.2404 30.0119 27.1298 29.96 27.0145 29.96C26.8991 29.96 26.7885 30.0119 26.707 30.1042C26.6254 30.1966 26.5796 30.3219 26.5796 30.4525V41.5489C26.5797 41.6794 26.6255 41.8045 26.7071 41.8967C26.7886 41.9889 26.8991 42.0407 27.0143 42.0407V42.0412Z" fill="#CCCCCC"/>
</g>
</g>
<defs>
<clipPath id="clip0_5637_62542">
<rect width="72" height="72" fill="white"/>
</clipPath>
</defs>
</svg>
