<svg width="33" height="33" viewBox="0 0 33 33" fill="none" xmlns="http://www.w3.org/2000/svg">
<rect x="0.554688" y="0.741211" width="32" height="32" rx="16" fill="#EFF4FF"/>
<g clip-path="url(#clip0_22118_32005)">
<g clip-path="url(#clip1_22118_32005)">
<path d="M22.1799 23.1575C25.4036 19.9168 25.4036 14.6609 22.1799 11.4201C18.9584 8.18157 13.7369 8.18157 10.5154 11.4201C7.29173 14.6609 7.29173 19.9168 10.5154 23.1575C13.7369 26.3961 18.9584 26.3961 22.1799 23.1575Z" stroke="#3467FF" stroke-width="1.5"/>
<path d="M19.2141 15.7303L19.2141 15.7303L19.214 15.7284C19.1689 14.6472 18.258 13.9063 17.0178 13.7137L17.0175 12.4193V12.4193V12.4189V12.3189H16.9175H15.8248H15.7248L15.7248 12.419L15.7251 13.7004C15.0881 13.7806 14.5385 13.9893 14.1412 14.3293C13.7228 14.6875 13.4801 15.186 13.4801 15.8122C13.4801 16.4573 13.764 16.9897 14.2545 17.3624C14.7425 17.7332 15.4301 17.943 16.2393 17.9603L16.2404 17.9603L16.4525 17.9626C16.9644 17.9747 17.3375 18.0758 17.579 18.2218C17.8186 18.3665 17.9236 18.5507 17.9236 18.7397C17.9236 18.9521 17.8026 19.1424 17.5407 19.285C17.2762 19.4289 16.8759 19.518 16.3482 19.518C15.8327 19.518 15.4321 19.4134 15.1641 19.261C14.8942 19.1074 14.7727 18.9152 14.7727 18.7393V18.6393H14.6727H13.5801H13.4782L13.4801 18.7411L13.4816 18.8212L13.4815 18.8212L13.4816 18.8235C13.5275 19.918 14.4611 20.664 15.7248 20.8458V22.1579V22.2579H15.8248H16.9175H17.0174L17.0175 22.1579L17.0178 20.8455C17.6427 20.7601 18.1809 20.5492 18.5695 20.2101C18.979 19.8528 19.2159 19.3586 19.2159 18.7401C19.2159 18.0803 18.9191 17.5386 18.4086 17.165C17.9009 16.7935 17.1866 16.5909 16.3486 16.5908L16.2445 16.5893C16.2444 16.5893 16.2442 16.5893 16.2441 16.5893C15.7321 16.5774 15.3588 16.4764 15.1171 16.3304C14.8774 16.1857 14.7724 16.0015 14.7724 15.8126C14.7724 15.5999 14.8933 15.4096 15.1551 15.2672C15.4196 15.1232 15.8199 15.0343 16.3478 15.0343C16.8637 15.0343 17.2643 15.1387 17.5322 15.2911C17.8019 15.4446 17.9232 15.6367 17.9232 15.8126V15.9126H18.0232H19.1159H19.2182L19.2159 15.8103L19.2141 15.7303Z" fill="#3467FF" stroke="#3467FF" stroke-width="0.2"/>
</g>
</g>
<defs>
<clipPath id="clip0_22118_32005">
<rect width="21" height="20" fill="white" transform="matrix(-1 0 0 1 26.8477 6.33691)"/>
</clipPath>
<clipPath id="clip1_22118_32005">
<rect width="18" height="18.0952" fill="white" transform="matrix(-1 0 0 1 25.3477 8.24121)"/>
</clipPath>
</defs>
</svg>
