<svg width="32" height="32" viewBox="0 0 32 32" fill="none" xmlns="http://www.w3.org/2000/svg">
<rect width="32" height="32" rx="16" fill="#EFF4FF"/>
<path d="M24.3198 21.4268C24.3198 21.8802 23.9925 22.2469 23.5897 22.2503V22.2593H9.33933V22.2503L9.33258 22.2514C8.92645 22.2514 8.5957 21.8824 8.5957 21.4268C8.5957 21.2614 8.6407 21.1062 8.71608 20.9768L8.71158 20.9734L15.8373 8.04718L15.8407 8.05055C15.901 7.93897 15.9899 7.84538 16.0982 7.77937C16.2065 7.71335 16.3304 7.67727 16.4572 7.6748C16.725 7.6748 16.9578 7.8368 17.0872 8.07643L17.0917 8.07305L24.2163 20.9993L24.2118 21.0027C24.2826 21.1328 24.3197 21.2786 24.3198 21.4268ZM17.4405 12.3503C17.4405 11.7417 17.0006 11.2489 16.4572 11.2489C15.9138 11.2489 15.4751 11.7428 15.4751 12.3503V16.4757C15.4751 17.0832 15.915 17.5759 16.4583 17.5759C17.0017 17.5759 17.4416 17.0832 17.4416 16.4757V12.3503H17.4405ZM16.4572 18.4006C15.915 18.4006 15.474 18.8933 15.474 19.5019C15.474 20.1106 15.9138 20.6022 16.4572 20.6022C17.0006 20.6022 17.4405 20.1094 17.4405 19.5019C17.4405 18.8944 17.0006 18.4006 16.4572 18.4006Z" fill="#FFA15F"/>
</svg>
