<svg width="24" height="24" fill="none" xmlns="http://www.w3.org/2000/svg"><rect width="24" height="24" rx="4" fill="#fff"/><path d="M8.344 16.963a.1.1 0 0 0 .07.17h1.153a.1.1 0 0 1 .1.1V18.9a.1.1 0 0 1-.1.1H5.1a.1.1 0 0 1-.1-.1v-4.467a.1.1 0 0 1 .1-.1h1.667a.1.1 0 0 1 .1.1v1.152a.1.1 0 0 0 .17.071l2.559-2.559a.1.1 0 0 1 .141 0l1.166 1.166a.1.1 0 0 1 0 .141l-2.559 2.559Zm7.148.17a.1.1 0 0 0 .07-.17l-2.558-2.559a.1.1 0 0 1 0-.141l1.165-1.166a.1.1 0 0 1 .142 0l2.652 2.652a.1.1 0 0 0 .17-.07v-1.246a.1.1 0 0 1 .1-.1H18.9a.1.1 0 0 1 .1.1V18.9a.1.1 0 0 1-.1.1h-4.467a.1.1 0 0 1-.1-.1v-1.667a.1.1 0 0 1 .1-.1h1.059ZM8.415 6.867a.1.1 0 0 0-.071.17l2.559 2.559a.1.1 0 0 1 0 .141l-1.166 1.166a.1.1 0 0 1-.141 0L7.037 8.344a.1.1 0 0 0-.17.07v1.153a.1.1 0 0 1-.1.1H5.1a.1.1 0 0 1-.1-.1V5.1a.1.1 0 0 1 .1-.1h4.467a.1.1 0 0 1 .1.1v1.667a.1.1 0 0 1-.1.1H8.415Zm7.148.17a.1.1 0 0 0-.071-.17h-1.059a.1.1 0 0 1-.1-.1V5.1a.1.1 0 0 1 .1-.1H18.9a.1.1 0 0 1 .1.1v4.467a.1.1 0 0 1-.1.1h-1.667a.1.1 0 0 1-.1-.1V8.32a.1.1 0 0 0-.17-.07l-2.652 2.652a.1.1 0 0 1-.142 0l-1.165-1.166a.1.1 0 0 1 0-.141l2.559-2.559Z" fill="#666666"/></svg>