<svg width="40" height="40" viewBox="0 0 40 40" fill="none" xmlns="http://www.w3.org/2000/svg">
<circle cx="20" cy="20" r="20" fill="#FF7C71"/>
<path d="M26.9748 13.0252C26.2744 12.3249 25.1388 12.3249 24.4385 13.0252L19.994 17.4698L15.6058 13.0814C14.9081 12.3837 13.7771 12.3837 13.0794 13.0814C12.3819 13.7792 12.3818 14.9103 13.0792 15.608L17.4674 19.9963L13.0254 24.4387C12.3249 25.139 12.3249 26.2742 13.0254 26.9745C13.7254 27.675 14.8612 27.675 15.5617 26.9745L20.0035 22.5327L24.4478 26.9773C25.1457 27.6742 26.2767 27.6742 26.9742 26.9773C27.6719 26.2796 27.6719 25.1484 26.9742 24.4507L22.5299 20.006L26.9748 15.5612C27.6751 14.8607 27.6751 13.7255 26.9748 13.0252Z" fill="white"/>
</svg>
