<svg width="10" height="10" viewBox="0 0 10 10" fill="none" xmlns="http://www.w3.org/2000/svg">
<g id="UI icon/close_circled/filled" clip-path="url(#clip0_15275_164773)">
<path id="Subtract" fill-rule="evenodd" clip-rule="evenodd" d="M5.00001 9.16683C7.3012 9.16683 9.16668 7.30135 9.16668 5.00016C9.16668 2.69898 7.3012 0.833496 5.00001 0.833496C2.69882 0.833496 0.833344 2.69898 0.833344 5.00016C0.833344 7.30135 2.69882 9.16683 5.00001 9.16683ZM3.45538 6.54479C3.29266 6.38207 3.29266 6.11825 3.45538 5.95554L4.41077 5.00015L3.45542 4.0448C3.2927 3.88208 3.2927 3.61827 3.45542 3.45555C3.61814 3.29283 3.88196 3.29283 4.04468 3.45555L5.00002 4.4109L5.95538 3.45554C6.1181 3.29282 6.38192 3.29282 6.54464 3.45554C6.70736 3.61825 6.70736 3.88207 6.54464 4.04479L5.58928 5.00015L6.54468 5.95555C6.7074 6.11827 6.7074 6.38209 6.54468 6.54481C6.38196 6.70753 6.11814 6.70753 5.95542 6.54481L5.00002 5.58941L4.04464 6.54479C3.88192 6.70751 3.6181 6.70751 3.45538 6.54479Z" fill="#FF7C71"/>
</g>
<defs>
<clipPath id="clip0_15275_164773">
<rect width="10" height="10" fill="white"/>
</clipPath>
</defs>
</svg>
