<svg width="17" height="17" viewBox="0 0 17 17" fill="none" xmlns="http://www.w3.org/2000/svg">
<path fill-rule="evenodd" clip-rule="evenodd" d="M14.0001 8.16699C14.0001 11.3887 11.3884 14.0003 8.16675 14.0003C4.94509 14.0003 2.33341 11.3887 2.33341 8.16699C2.33341 4.94533 4.94509 2.33366 8.16675 2.33366C11.3884 2.33366 14.0001 4.94533 14.0001 8.16699ZM14.0267 12.8484C15.053 11.5653 15.6667 9.93784 15.6667 8.16699C15.6667 4.02486 12.3089 0.666992 8.16675 0.666992C4.02461 0.666992 0.666748 4.02486 0.666748 8.16699C0.666748 12.3091 4.02461 15.667 8.16675 15.667C9.93759 15.667 11.5651 15.0533 12.8482 14.0269L15.0775 16.2562C15.4029 16.5817 15.9306 16.5817 16.256 16.2562C16.5814 15.9308 16.5814 15.4032 16.256 15.0777L14.0267 12.8484Z" fill="#151515"/>
</svg>
