<svg width="14" height="14" viewBox="0 0 14 14" fill="none" xmlns="http://www.w3.org/2000/svg">
<mask id="path-1-outside-1_88_69948" maskUnits="userSpaceOnUse" x="1" y="1" width="12" height="12" fill="black">
<rect fill="white" x="1" y="1" width="12" height="12"/>
<path d="M11.7074 8.19717L10.2661 8.50416L11.1869 9.03627C11.256 9.08044 11.3066 9.14932 11.3288 9.22952C11.351 9.30972 11.3433 9.3955 11.307 9.47015C11.2875 9.51037 11.2599 9.54593 11.2261 9.57451C11.1922 9.60309 11.1528 9.62405 11.1105 9.63602C11.0682 9.648 11.0239 9.65071 10.9805 9.644C10.9371 9.63728 10.8956 9.62128 10.8586 9.59704L9.93777 9.06493L10.3862 10.4607V10.5139C10.3989 10.5558 10.4032 10.6 10.3987 10.6436C10.3942 10.6873 10.3811 10.7295 10.3601 10.7678C10.3391 10.8061 10.3107 10.8396 10.2767 10.8664C10.2426 10.8931 10.2036 10.9124 10.162 10.9232C10.1194 10.9341 10.075 10.9362 10.0316 10.9293C9.98824 10.9223 9.94664 10.9066 9.90931 10.8829C9.87197 10.8592 9.83966 10.8281 9.81429 10.7915C9.78892 10.7548 9.77101 10.7133 9.76161 10.6695L9.089 8.58193L7.30338 7.56272V9.60932L8.77271 11.2466C8.79673 11.2466 8.79673 11.2712 8.82076 11.2712C8.84558 11.3061 8.8634 11.3456 8.87322 11.3876C8.88303 11.4296 8.88464 11.4731 8.87794 11.5157C8.87124 11.5583 8.85638 11.5991 8.8342 11.6358C8.81201 11.6725 8.78296 11.7044 8.74869 11.7296C8.71726 11.7591 8.68003 11.7814 8.6395 11.7951C8.59897 11.8087 8.55605 11.8134 8.51362 11.8087C8.47119 11.8041 8.43022 11.7902 8.39343 11.7681C8.35664 11.746 8.32489 11.7161 8.30028 11.6805L7.30338 10.5999V11.6682C7.30237 11.7551 7.26842 11.8382 7.20869 11.9001C7.14895 11.9619 7.06808 11.9976 6.98309 11.9998C6.94005 12.0015 6.89713 11.9941 6.85702 11.978C6.81691 11.962 6.78048 11.9376 6.75002 11.9065C6.71957 11.8754 6.69574 11.8381 6.68004 11.7971C6.66434 11.7561 6.65711 11.7122 6.6588 11.6682V10.5999L5.6619 11.6969C5.6619 11.7034 5.65936 11.7096 5.65486 11.7142C5.65035 11.7188 5.64424 11.7214 5.63787 11.7214C5.60843 11.7515 5.57348 11.7754 5.53501 11.7917C5.49654 11.808 5.45531 11.8164 5.41367 11.8164C5.37203 11.8164 5.3308 11.808 5.29233 11.7917C5.25386 11.7754 5.21891 11.7515 5.18947 11.7214C5.16002 11.6913 5.13667 11.6556 5.12073 11.6163C5.1048 11.5769 5.0966 11.5348 5.0966 11.4922C5.0966 11.4496 5.1048 11.4075 5.12073 11.3681C5.13667 11.3288 5.16002 11.2931 5.18947 11.263L6.6588 9.6257V7.57909L4.8892 8.59421L4.19256 10.6817V10.735C4.16228 10.8126 4.10309 10.8747 4.02802 10.9077C3.95295 10.9407 3.86813 10.9419 3.7922 10.911C3.70946 10.8805 3.64193 10.8176 3.60441 10.7363C3.56688 10.655 3.56243 10.5618 3.59202 10.4771L4.06445 9.0813L3.11959 9.61342C3.08586 9.63754 3.04752 9.6541 3.0071 9.66202C2.96667 9.66994 2.92506 9.66905 2.88499 9.65939C2.84493 9.64972 2.80731 9.63152 2.77461 9.60596C2.7419 9.58041 2.71484 9.54808 2.69521 9.51109C2.67226 9.47429 2.65665 9.43322 2.64926 9.39024C2.64187 9.34726 2.64285 9.30321 2.65215 9.26062C2.66145 9.21803 2.67888 9.17773 2.70345 9.14205C2.72801 9.10636 2.75923 9.07598 2.7953 9.05265L3.71613 8.52053L2.29885 8.21354C2.27483 8.21354 2.2468 8.21354 2.2468 8.18898C2.2046 8.1794 2.16488 8.16072 2.13028 8.13421C2.09569 8.1077 2.06702 8.07395 2.04619 8.03522C2.02535 7.99649 2.01283 7.95367 2.00945 7.9096C2.00607 7.86553 2.01192 7.82124 2.0266 7.77966C2.05623 7.69936 2.11265 7.63233 2.18589 7.59039C2.25914 7.54846 2.34451 7.53431 2.42697 7.55044L4.59293 8.00888L6.35853 6.98967L4.59293 5.97046L2.42697 6.4289H2.37892C2.29385 6.43706 2.20877 6.41332 2.13954 6.36212C2.0703 6.31091 2.02163 6.23573 2.00258 6.15057C1.99703 6.10528 2.00046 6.05931 2.01266 6.0154C2.02487 5.9715 2.04561 5.93056 2.07363 5.89503C2.10166 5.8595 2.1364 5.83011 2.17578 5.80861C2.21517 5.78711 2.25838 5.77394 2.30285 5.7699L3.72014 5.46291L2.7993 4.93079C2.72803 4.88864 2.67538 4.82005 2.65227 4.73926C2.62916 4.65847 2.63737 4.57168 2.67519 4.49691C2.71881 4.41996 2.79021 4.36357 2.87405 4.33985C2.95789 4.31612 3.04748 4.32696 3.1236 4.37002L4.06845 4.90214L3.59602 3.50226V3.45314C3.58329 3.41123 3.57904 3.3671 3.58352 3.32345C3.58801 3.2798 3.60114 3.23754 3.62212 3.19924C3.64309 3.16095 3.67148 3.12742 3.70554 3.1007C3.73959 3.07398 3.77862 3.05463 3.82023 3.04382C3.90617 3.02409 3.99626 3.03962 4.07113 3.08708C4.14599 3.13453 4.19966 3.21012 4.22059 3.2976L4.91722 5.38104L6.68682 6.42481V4.37821L5.21749 2.74093C5.19347 2.74093 5.19347 2.74093 5.19347 2.71637C5.16461 2.68423 5.14278 2.64617 5.12944 2.60473C5.1161 2.56329 5.11155 2.51942 5.11609 2.47604C5.12064 2.43266 5.13418 2.39077 5.1558 2.35316C5.17743 2.31555 5.20665 2.28309 5.24152 2.25793C5.30924 2.20875 5.39222 2.1866 5.47482 2.19565C5.55741 2.2047 5.63392 2.24432 5.68992 2.30705L6.68682 3.39993V2.29477C6.69567 2.21371 6.73344 2.13883 6.7929 2.08445C6.85236 2.03006 6.92934 2 7.00911 2C7.08889 2 7.16587 2.03006 7.22533 2.08445C7.28479 2.13883 7.32256 2.21371 7.33141 2.29477V3.36309L8.32831 2.27021L8.35233 2.24565C8.41622 2.18405 8.50072 2.14975 8.58854 2.14975C8.67636 2.14975 8.76086 2.18405 8.82476 2.24565C8.85553 2.27581 8.87957 2.31241 8.89525 2.35294C8.91092 2.39347 8.91785 2.43698 8.91557 2.4805C8.91329 2.52402 8.90185 2.56653 8.88203 2.60511C8.86221 2.6437 8.83449 2.67746 8.80074 2.70409L7.33141 4.34137V6.38797L9.12503 5.3442L9.79764 3.26076V3.23211C9.83739 3.15185 9.90477 3.08947 9.98682 3.05697C10.0689 3.02447 10.1598 3.02417 10.242 3.0561C10.3208 3.08965 10.3835 3.15357 10.4164 3.23402C10.4494 3.31447 10.45 3.40496 10.4182 3.48589L9.9698 4.88577L10.8906 4.35365C10.9617 4.32131 11.0413 4.31422 11.1168 4.33351C11.1922 4.35279 11.2592 4.39735 11.307 4.46007C11.3435 4.53901 11.351 4.62872 11.3282 4.71286C11.3055 4.797 11.2539 4.86998 11.1829 4.91851L10.2621 5.45063L11.7034 5.75762L11.7314 5.78218C11.7761 5.79015 11.8188 5.80765 11.8565 5.83354C11.8942 5.85943 11.9262 5.89313 11.9503 5.93246C11.9745 5.97179 11.9903 6.01587 11.9967 6.06184C12.0032 6.10782 12.0001 6.15466 11.9877 6.19934C11.9753 6.24402 11.9538 6.28554 11.9247 6.3212C11.8956 6.35686 11.8595 6.38588 11.8187 6.40636C11.778 6.42685 11.7334 6.43834 11.6881 6.44011C11.6427 6.44188 11.5974 6.43388 11.5552 6.41662L9.4173 5.95819L7.64769 6.97739L9.4173 7.9966L11.5552 7.53816H11.6033C11.6456 7.53118 11.6889 7.53278 11.7306 7.54288C11.7723 7.55298 11.8117 7.57139 11.8464 7.59705C11.8812 7.6227 11.9107 7.65511 11.9332 7.69241C11.9557 7.72971 11.9708 7.77118 11.9776 7.81445C11.9844 7.85772 11.9829 7.90195 11.973 7.9446C11.9631 7.98725 11.9451 8.0275 11.92 8.06303C11.8949 8.09857 11.8632 8.12871 11.8267 8.15172C11.7903 8.17474 11.7497 8.19018 11.7074 8.19717Z"/>
</mask>
<path d="M11.7074 8.19717L10.2661 8.50416L11.1869 9.03627C11.256 9.08044 11.3066 9.14932 11.3288 9.22952C11.351 9.30972 11.3433 9.3955 11.307 9.47015C11.2875 9.51037 11.2599 9.54593 11.2261 9.57451C11.1922 9.60309 11.1528 9.62405 11.1105 9.63602C11.0682 9.648 11.0239 9.65071 10.9805 9.644C10.9371 9.63728 10.8956 9.62128 10.8586 9.59704L9.93777 9.06493L10.3862 10.4607V10.5139C10.3989 10.5558 10.4032 10.6 10.3987 10.6436C10.3942 10.6873 10.3811 10.7295 10.3601 10.7678C10.3391 10.8061 10.3107 10.8396 10.2767 10.8664C10.2426 10.8931 10.2036 10.9124 10.162 10.9232C10.1194 10.9341 10.075 10.9362 10.0316 10.9293C9.98824 10.9223 9.94664 10.9066 9.90931 10.8829C9.87197 10.8592 9.83966 10.8281 9.81429 10.7915C9.78892 10.7548 9.77101 10.7133 9.76161 10.6695L9.089 8.58193L7.30338 7.56272V9.60932L8.77271 11.2466C8.79673 11.2466 8.79673 11.2712 8.82076 11.2712C8.84558 11.3061 8.8634 11.3456 8.87322 11.3876C8.88303 11.4296 8.88464 11.4731 8.87794 11.5157C8.87124 11.5583 8.85638 11.5991 8.8342 11.6358C8.81201 11.6725 8.78296 11.7044 8.74869 11.7296C8.71726 11.7591 8.68003 11.7814 8.6395 11.7951C8.59897 11.8087 8.55605 11.8134 8.51362 11.8087C8.47119 11.8041 8.43022 11.7902 8.39343 11.7681C8.35664 11.746 8.32489 11.7161 8.30028 11.6805L7.30338 10.5999V11.6682C7.30237 11.7551 7.26842 11.8382 7.20869 11.9001C7.14895 11.9619 7.06808 11.9976 6.98309 11.9998C6.94005 12.0015 6.89713 11.9941 6.85702 11.978C6.81691 11.962 6.78048 11.9376 6.75002 11.9065C6.71957 11.8754 6.69574 11.8381 6.68004 11.7971C6.66434 11.7561 6.65711 11.7122 6.6588 11.6682V10.5999L5.6619 11.6969C5.6619 11.7034 5.65936 11.7096 5.65486 11.7142C5.65035 11.7188 5.64424 11.7214 5.63787 11.7214C5.60843 11.7515 5.57348 11.7754 5.53501 11.7917C5.49654 11.808 5.45531 11.8164 5.41367 11.8164C5.37203 11.8164 5.3308 11.808 5.29233 11.7917C5.25386 11.7754 5.21891 11.7515 5.18947 11.7214C5.16002 11.6913 5.13667 11.6556 5.12073 11.6163C5.1048 11.5769 5.0966 11.5348 5.0966 11.4922C5.0966 11.4496 5.1048 11.4075 5.12073 11.3681C5.13667 11.3288 5.16002 11.2931 5.18947 11.263L6.6588 9.6257V7.57909L4.8892 8.59421L4.19256 10.6817V10.735C4.16228 10.8126 4.10309 10.8747 4.02802 10.9077C3.95295 10.9407 3.86813 10.9419 3.7922 10.911C3.70946 10.8805 3.64193 10.8176 3.60441 10.7363C3.56688 10.655 3.56243 10.5618 3.59202 10.4771L4.06445 9.0813L3.11959 9.61342C3.08586 9.63754 3.04752 9.6541 3.0071 9.66202C2.96667 9.66994 2.92506 9.66905 2.88499 9.65939C2.84493 9.64972 2.80731 9.63152 2.77461 9.60596C2.7419 9.58041 2.71484 9.54808 2.69521 9.51109C2.67226 9.47429 2.65665 9.43322 2.64926 9.39024C2.64187 9.34726 2.64285 9.30321 2.65215 9.26062C2.66145 9.21803 2.67888 9.17773 2.70345 9.14205C2.72801 9.10636 2.75923 9.07598 2.7953 9.05265L3.71613 8.52053L2.29885 8.21354C2.27483 8.21354 2.2468 8.21354 2.2468 8.18898C2.2046 8.1794 2.16488 8.16072 2.13028 8.13421C2.09569 8.1077 2.06702 8.07395 2.04619 8.03522C2.02535 7.99649 2.01283 7.95367 2.00945 7.9096C2.00607 7.86553 2.01192 7.82124 2.0266 7.77966C2.05623 7.69936 2.11265 7.63233 2.18589 7.59039C2.25914 7.54846 2.34451 7.53431 2.42697 7.55044L4.59293 8.00888L6.35853 6.98967L4.59293 5.97046L2.42697 6.4289H2.37892C2.29385 6.43706 2.20877 6.41332 2.13954 6.36212C2.0703 6.31091 2.02163 6.23573 2.00258 6.15057C1.99703 6.10528 2.00046 6.05931 2.01266 6.0154C2.02487 5.9715 2.04561 5.93056 2.07363 5.89503C2.10166 5.8595 2.1364 5.83011 2.17578 5.80861C2.21517 5.78711 2.25838 5.77394 2.30285 5.7699L3.72014 5.46291L2.7993 4.93079C2.72803 4.88864 2.67538 4.82005 2.65227 4.73926C2.62916 4.65847 2.63737 4.57168 2.67519 4.49691C2.71881 4.41996 2.79021 4.36357 2.87405 4.33985C2.95789 4.31612 3.04748 4.32696 3.1236 4.37002L4.06845 4.90214L3.59602 3.50226V3.45314C3.58329 3.41123 3.57904 3.3671 3.58352 3.32345C3.58801 3.2798 3.60114 3.23754 3.62212 3.19924C3.64309 3.16095 3.67148 3.12742 3.70554 3.1007C3.73959 3.07398 3.77862 3.05463 3.82023 3.04382C3.90617 3.02409 3.99626 3.03962 4.07113 3.08708C4.14599 3.13453 4.19966 3.21012 4.22059 3.2976L4.91722 5.38104L6.68682 6.42481V4.37821L5.21749 2.74093C5.19347 2.74093 5.19347 2.74093 5.19347 2.71637C5.16461 2.68423 5.14278 2.64617 5.12944 2.60473C5.1161 2.56329 5.11155 2.51942 5.11609 2.47604C5.12064 2.43266 5.13418 2.39077 5.1558 2.35316C5.17743 2.31555 5.20665 2.28309 5.24152 2.25793C5.30924 2.20875 5.39222 2.1866 5.47482 2.19565C5.55741 2.2047 5.63392 2.24432 5.68992 2.30705L6.68682 3.39993V2.29477C6.69567 2.21371 6.73344 2.13883 6.7929 2.08445C6.85236 2.03006 6.92934 2 7.00911 2C7.08889 2 7.16587 2.03006 7.22533 2.08445C7.28479 2.13883 7.32256 2.21371 7.33141 2.29477V3.36309L8.32831 2.27021L8.35233 2.24565C8.41622 2.18405 8.50072 2.14975 8.58854 2.14975C8.67636 2.14975 8.76086 2.18405 8.82476 2.24565C8.85553 2.27581 8.87957 2.31241 8.89525 2.35294C8.91092 2.39347 8.91785 2.43698 8.91557 2.4805C8.91329 2.52402 8.90185 2.56653 8.88203 2.60511C8.86221 2.6437 8.83449 2.67746 8.80074 2.70409L7.33141 4.34137V6.38797L9.12503 5.3442L9.79764 3.26076V3.23211C9.83739 3.15185 9.90477 3.08947 9.98682 3.05697C10.0689 3.02447 10.1598 3.02417 10.242 3.0561C10.3208 3.08965 10.3835 3.15357 10.4164 3.23402C10.4494 3.31447 10.45 3.40496 10.4182 3.48589L9.9698 4.88577L10.8906 4.35365C10.9617 4.32131 11.0413 4.31422 11.1168 4.33351C11.1922 4.35279 11.2592 4.39735 11.307 4.46007C11.3435 4.53901 11.351 4.62872 11.3282 4.71286C11.3055 4.797 11.2539 4.86998 11.1829 4.91851L10.2621 5.45063L11.7034 5.75762L11.7314 5.78218C11.7761 5.79015 11.8188 5.80765 11.8565 5.83354C11.8942 5.85943 11.9262 5.89313 11.9503 5.93246C11.9745 5.97179 11.9903 6.01587 11.9967 6.06184C12.0032 6.10782 12.0001 6.15466 11.9877 6.19934C11.9753 6.24402 11.9538 6.28554 11.9247 6.3212C11.8956 6.35686 11.8595 6.38588 11.8187 6.40636C11.778 6.42685 11.7334 6.43834 11.6881 6.44011C11.6427 6.44188 11.5974 6.43388 11.5552 6.41662L9.4173 5.95819L7.64769 6.97739L9.4173 7.9966L11.5552 7.53816H11.6033C11.6456 7.53118 11.6889 7.53278 11.7306 7.54288C11.7723 7.55298 11.8117 7.57139 11.8464 7.59705C11.8812 7.6227 11.9107 7.65511 11.9332 7.69241C11.9557 7.72971 11.9708 7.77118 11.9776 7.81445C11.9844 7.85772 11.9829 7.90195 11.973 7.9446C11.9631 7.98725 11.9451 8.0275 11.92 8.06303C11.8949 8.09857 11.8632 8.12871 11.8267 8.15172C11.7903 8.17474 11.7497 8.19018 11.7074 8.19717Z" fill="#208BEE"/>
<path d="M11.7074 8.19717L10.2661 8.50416L11.1869 9.03627C11.256 9.08044 11.3066 9.14932 11.3288 9.22952C11.351 9.30972 11.3433 9.3955 11.307 9.47015C11.2875 9.51037 11.2599 9.54593 11.2261 9.57451C11.1922 9.60309 11.1528 9.62405 11.1105 9.63602C11.0682 9.648 11.0239 9.65071 10.9805 9.644C10.9371 9.63728 10.8956 9.62128 10.8586 9.59704L9.93777 9.06493L10.3862 10.4607V10.5139C10.3989 10.5558 10.4032 10.6 10.3987 10.6436C10.3942 10.6873 10.3811 10.7295 10.3601 10.7678C10.3391 10.8061 10.3107 10.8396 10.2767 10.8664C10.2426 10.8931 10.2036 10.9124 10.162 10.9232C10.1194 10.9341 10.075 10.9362 10.0316 10.9293C9.98824 10.9223 9.94664 10.9066 9.90931 10.8829C9.87197 10.8592 9.83966 10.8281 9.81429 10.7915C9.78892 10.7548 9.77101 10.7133 9.76161 10.6695L9.089 8.58193L7.30338 7.56272V9.60932L8.77271 11.2466C8.79673 11.2466 8.79673 11.2712 8.82076 11.2712C8.84558 11.3061 8.8634 11.3456 8.87322 11.3876C8.88303 11.4296 8.88464 11.4731 8.87794 11.5157C8.87124 11.5583 8.85638 11.5991 8.8342 11.6358C8.81201 11.6725 8.78296 11.7044 8.74869 11.7296C8.71726 11.7591 8.68003 11.7814 8.6395 11.7951C8.59897 11.8087 8.55605 11.8134 8.51362 11.8087C8.47119 11.8041 8.43022 11.7902 8.39343 11.7681C8.35664 11.746 8.32489 11.7161 8.30028 11.6805L7.30338 10.5999V11.6682C7.30237 11.7551 7.26842 11.8382 7.20869 11.9001C7.14895 11.9619 7.06808 11.9976 6.98309 11.9998C6.94005 12.0015 6.89713 11.9941 6.85702 11.978C6.81691 11.962 6.78048 11.9376 6.75002 11.9065C6.71957 11.8754 6.69574 11.8381 6.68004 11.7971C6.66434 11.7561 6.65711 11.7122 6.6588 11.6682V10.5999L5.6619 11.6969C5.6619 11.7034 5.65936 11.7096 5.65486 11.7142C5.65035 11.7188 5.64424 11.7214 5.63787 11.7214C5.60843 11.7515 5.57348 11.7754 5.53501 11.7917C5.49654 11.808 5.45531 11.8164 5.41367 11.8164C5.37203 11.8164 5.3308 11.808 5.29233 11.7917C5.25386 11.7754 5.21891 11.7515 5.18947 11.7214C5.16002 11.6913 5.13667 11.6556 5.12073 11.6163C5.1048 11.5769 5.0966 11.5348 5.0966 11.4922C5.0966 11.4496 5.1048 11.4075 5.12073 11.3681C5.13667 11.3288 5.16002 11.2931 5.18947 11.263L6.6588 9.6257V7.57909L4.8892 8.59421L4.19256 10.6817V10.735C4.16228 10.8126 4.10309 10.8747 4.02802 10.9077C3.95295 10.9407 3.86813 10.9419 3.7922 10.911C3.70946 10.8805 3.64193 10.8176 3.60441 10.7363C3.56688 10.655 3.56243 10.5618 3.59202 10.4771L4.06445 9.0813L3.11959 9.61342C3.08586 9.63754 3.04752 9.6541 3.0071 9.66202C2.96667 9.66994 2.92506 9.66905 2.88499 9.65939C2.84493 9.64972 2.80731 9.63152 2.77461 9.60596C2.7419 9.58041 2.71484 9.54808 2.69521 9.51109C2.67226 9.47429 2.65665 9.43322 2.64926 9.39024C2.64187 9.34726 2.64285 9.30321 2.65215 9.26062C2.66145 9.21803 2.67888 9.17773 2.70345 9.14205C2.72801 9.10636 2.75923 9.07598 2.7953 9.05265L3.71613 8.52053L2.29885 8.21354C2.27483 8.21354 2.2468 8.21354 2.2468 8.18898C2.2046 8.1794 2.16488 8.16072 2.13028 8.13421C2.09569 8.1077 2.06702 8.07395 2.04619 8.03522C2.02535 7.99649 2.01283 7.95367 2.00945 7.9096C2.00607 7.86553 2.01192 7.82124 2.0266 7.77966C2.05623 7.69936 2.11265 7.63233 2.18589 7.59039C2.25914 7.54846 2.34451 7.53431 2.42697 7.55044L4.59293 8.00888L6.35853 6.98967L4.59293 5.97046L2.42697 6.4289H2.37892C2.29385 6.43706 2.20877 6.41332 2.13954 6.36212C2.0703 6.31091 2.02163 6.23573 2.00258 6.15057C1.99703 6.10528 2.00046 6.05931 2.01266 6.0154C2.02487 5.9715 2.04561 5.93056 2.07363 5.89503C2.10166 5.8595 2.1364 5.83011 2.17578 5.80861C2.21517 5.78711 2.25838 5.77394 2.30285 5.7699L3.72014 5.46291L2.7993 4.93079C2.72803 4.88864 2.67538 4.82005 2.65227 4.73926C2.62916 4.65847 2.63737 4.57168 2.67519 4.49691C2.71881 4.41996 2.79021 4.36357 2.87405 4.33985C2.95789 4.31612 3.04748 4.32696 3.1236 4.37002L4.06845 4.90214L3.59602 3.50226V3.45314C3.58329 3.41123 3.57904 3.3671 3.58352 3.32345C3.58801 3.2798 3.60114 3.23754 3.62212 3.19924C3.64309 3.16095 3.67148 3.12742 3.70554 3.1007C3.73959 3.07398 3.77862 3.05463 3.82023 3.04382C3.90617 3.02409 3.99626 3.03962 4.07113 3.08708C4.14599 3.13453 4.19966 3.21012 4.22059 3.2976L4.91722 5.38104L6.68682 6.42481V4.37821L5.21749 2.74093C5.19347 2.74093 5.19347 2.74093 5.19347 2.71637C5.16461 2.68423 5.14278 2.64617 5.12944 2.60473C5.1161 2.56329 5.11155 2.51942 5.11609 2.47604C5.12064 2.43266 5.13418 2.39077 5.1558 2.35316C5.17743 2.31555 5.20665 2.28309 5.24152 2.25793C5.30924 2.20875 5.39222 2.1866 5.47482 2.19565C5.55741 2.2047 5.63392 2.24432 5.68992 2.30705L6.68682 3.39993V2.29477C6.69567 2.21371 6.73344 2.13883 6.7929 2.08445C6.85236 2.03006 6.92934 2 7.00911 2C7.08889 2 7.16587 2.03006 7.22533 2.08445C7.28479 2.13883 7.32256 2.21371 7.33141 2.29477V3.36309L8.32831 2.27021L8.35233 2.24565C8.41622 2.18405 8.50072 2.14975 8.58854 2.14975C8.67636 2.14975 8.76086 2.18405 8.82476 2.24565C8.85553 2.27581 8.87957 2.31241 8.89525 2.35294C8.91092 2.39347 8.91785 2.43698 8.91557 2.4805C8.91329 2.52402 8.90185 2.56653 8.88203 2.60511C8.86221 2.6437 8.83449 2.67746 8.80074 2.70409L7.33141 4.34137V6.38797L9.12503 5.3442L9.79764 3.26076V3.23211C9.83739 3.15185 9.90477 3.08947 9.98682 3.05697C10.0689 3.02447 10.1598 3.02417 10.242 3.0561C10.3208 3.08965 10.3835 3.15357 10.4164 3.23402C10.4494 3.31447 10.45 3.40496 10.4182 3.48589L9.9698 4.88577L10.8906 4.35365C10.9617 4.32131 11.0413 4.31422 11.1168 4.33351C11.1922 4.35279 11.2592 4.39735 11.307 4.46007C11.3435 4.53901 11.351 4.62872 11.3282 4.71286C11.3055 4.797 11.2539 4.86998 11.1829 4.91851L10.2621 5.45063L11.7034 5.75762L11.7314 5.78218C11.7761 5.79015 11.8188 5.80765 11.8565 5.83354C11.8942 5.85943 11.9262 5.89313 11.9503 5.93246C11.9745 5.97179 11.9903 6.01587 11.9967 6.06184C12.0032 6.10782 12.0001 6.15466 11.9877 6.19934C11.9753 6.24402 11.9538 6.28554 11.9247 6.3212C11.8956 6.35686 11.8595 6.38588 11.8187 6.40636C11.778 6.42685 11.7334 6.43834 11.6881 6.44011C11.6427 6.44188 11.5974 6.43388 11.5552 6.41662L9.4173 5.95819L7.64769 6.97739L9.4173 7.9966L11.5552 7.53816H11.6033C11.6456 7.53118 11.6889 7.53278 11.7306 7.54288C11.7723 7.55298 11.8117 7.57139 11.8464 7.59705C11.8812 7.6227 11.9107 7.65511 11.9332 7.69241C11.9557 7.72971 11.9708 7.77118 11.9776 7.81445C11.9844 7.85772 11.9829 7.90195 11.973 7.9446C11.9631 7.98725 11.9451 8.0275 11.92 8.06303C11.8949 8.09857 11.8632 8.12871 11.8267 8.15172C11.7903 8.17474 11.7497 8.19018 11.7074 8.19717Z" stroke="#208BEE" stroke-width="0.4" mask="url(#path-1-outside-1_88_69948)"/>
</svg>
