<svg width="72" height="72" viewBox="0 0 72 72" fill="none" xmlns="http://www.w3.org/2000/svg">
<path d="M62.5912 16.4457H62.5909H44.4318V14.2065H46.9091C47.248 14.2065 47.5783 14.0994 47.853 13.9005C48.1278 13.7016 48.3331 13.4211 48.44 13.0988C48.547 12.7765 48.5503 12.4286 48.4494 12.1043C48.3486 11.7801 48.1486 11.4957 47.8777 11.2916L36.9686 3.07423C36.6893 2.86383 36.3494 2.75 36 2.75C35.6506 2.75 35.3107 2.86383 35.0314 3.07423L24.1223 11.2916C23.8514 11.4957 23.6514 11.7801 23.5506 12.1043C23.4497 12.4286 23.453 12.7765 23.56 13.0988C23.667 13.4211 23.8722 13.7016 24.147 13.9005C24.4217 14.0994 24.752 14.2065 25.0909 14.2065H27.5682V16.4457H9.40909H9.40881C8.43842 16.4467 7.5083 16.8344 6.82246 17.5232C6.13666 18.212 5.75109 19.1457 5.75 20.1193V20.1196L5.75 62.5761L5.75 62.5764C5.75109 63.55 6.13666 64.4836 6.82246 65.1724C7.5083 65.8612 8.43842 66.2489 9.40881 66.25H9.40909H62.5909H62.5912C63.5616 66.2489 64.4917 65.8612 65.1775 65.1724C65.8633 64.4836 66.2489 63.55 66.25 62.5764V62.5761V20.1196V20.1193C66.2489 19.1457 65.8633 18.212 65.1775 17.5232C64.4917 16.8344 63.5616 16.4467 62.5912 16.4457ZM41.3272 11.9675L41.5583 12.0628L41.3272 11.9675C41.2462 12.1639 41.2045 12.3744 41.2045 12.587V27.4022H30.7955V12.587C30.7955 12.3744 30.7538 12.1639 30.6728 11.9675C30.5918 11.7711 30.473 11.5926 30.3232 11.4421C30.1734 11.2917 29.9955 11.1723 29.7997 11.0908C29.7923 11.0877 29.7849 11.0847 29.7774 11.0817L36 6.39451L42.2226 11.0817C42.2151 11.0847 42.2077 11.0877 42.2003 11.0908C42.0045 11.1723 41.8266 11.2917 41.6768 11.4421C41.527 11.5926 41.4082 11.7711 41.3272 11.9675ZM38.5878 46.5184L41.4546 43.6388L60.7428 63.0109H11.2572L30.5454 43.6388L33.4122 46.5184L33.4124 46.5186C34.0991 47.2066 35.0296 47.5932 36 47.5932C36.9704 47.5932 37.9009 47.2066 38.5876 46.5186L38.5878 46.5184ZM27.5682 19.6848V29.0217C27.5682 29.2343 27.6099 29.4448 27.6909 29.6412C27.7719 29.8376 27.8906 30.0161 28.0404 30.1666C28.1902 30.317 28.3681 30.4364 28.564 30.5179C28.7598 30.5994 28.9698 30.6413 29.1818 30.6413H42.8182C43.0302 30.6413 43.2402 30.5994 43.4361 30.5179C43.6319 30.4364 43.8098 30.317 43.9596 30.1666C44.1094 30.0161 44.2281 29.8376 44.3091 29.6412C44.3901 29.4447 44.4318 29.2343 44.4318 29.0217V19.6848H60.7427L36.3049 44.2285C36.3048 44.2285 36.3048 44.2285 36.3048 44.2286C36.2238 44.3099 36.1141 44.3554 36 44.3554C35.8859 44.3554 35.7763 44.3099 35.6952 44.2286C35.6952 44.2285 35.6952 44.2285 35.6951 44.2285L11.2573 19.6848H27.5682ZM8.97727 60.7188V21.9768L28.2644 41.3478L8.97727 60.7188ZM43.7356 41.3478L63.0227 21.9768V60.7188L43.7356 41.3478Z" fill="white" stroke="white" stroke-width="0.5"/>
</svg>
