<svg width="21" height="22" viewBox="0 0 21 22" fill="none" xmlns="http://www.w3.org/2000/svg">
<path d="M14.6081 9.95168C13.982 9.95168 13.5646 9.53264 13.5646 8.90406C13.5646 8.27549 13.982 7.85645 14.6081 7.85645C15.2342 7.85645 15.6516 8.27549 15.6516 8.90406C15.6516 9.53264 15.2342 9.95168 14.6081 9.95168ZM6.26028 9.95168C5.63419 9.95168 5.2168 9.53264 5.2168 8.90406C5.2168 8.27549 5.63419 7.85645 6.26028 7.85645C6.88636 7.85645 7.30375 8.27549 7.30375 8.90406C7.30375 9.53264 6.88636 9.95168 6.26028 9.95168ZM6.26028 12.0469C6.26028 14.3517 8.13854 16.2374 10.4342 16.2374C12.7298 16.2374 14.6081 14.3517 14.6081 12.0469H6.26028Z" fill="#666666"/>
<path fill-rule="evenodd" clip-rule="evenodd" d="M10.4348 19.4758C15.0857 19.4758 18.8696 15.6884 18.8696 10.9996C18.8696 6.31088 15.0857 2.52344 10.4348 2.52344C5.78384 2.52344 2 6.31088 2 10.9996C2 15.6884 5.78384 19.4758 10.4348 19.4758ZM10.4348 21.4758C16.1978 21.4758 20.8696 16.7855 20.8696 10.9996C20.8696 5.21379 16.1978 0.523438 10.4348 0.523438C4.67181 0.523438 0 5.21379 0 10.9996C0 16.7855 4.67181 21.4758 10.4348 21.4758Z" fill="#666666"/>
</svg>
