<svg width="20" height="20" viewBox="0 0 20 20" fill="none" xmlns="http://www.w3.org/2000/svg">
<g clip-path="url(#clip0_14899_128082)">
<path fill-rule="evenodd" clip-rule="evenodd" d="M11.6931 16.5688H7.86772C7.03574 16.5688 5.43027 16.8353 4.53886 17.4353C4.37577 17.5451 4 17.4074 4 17.2108V12.6958V8.87301C3.99965 8.36453 4.0995 7.86096 4.29385 7.39108C4.4882 6.9212 4.77324 6.49421 5.13267 6.13454C5.4921 5.77486 5.91888 5.48954 6.38863 5.29487C6.85837 5.1002 7.36188 5 7.87037 5H11.6958C12.2042 5 12.7077 5.1002 13.1775 5.29487C13.6472 5.48954 14.074 5.77486 14.4335 6.13454C14.7929 6.49421 15.0779 6.9212 15.2723 7.39108C15.4666 7.86096 15.5665 8.36453 15.5661 8.87301V12.7037C15.564 13.7295 15.155 14.7126 14.4289 15.4372C13.7028 16.1618 12.7189 16.5688 11.6931 16.5688ZM11.1013 9.28418H8.09068C7.77362 9.28418 7.5166 9.5412 7.5166 9.85825V9.8609C7.5166 10.178 7.77362 10.435 8.09068 10.435H11.1013C11.4183 10.435 11.6753 10.178 11.6753 9.8609V9.85825C11.6753 9.5412 11.4183 9.28418 11.1013 9.28418ZM7.99693 11.3193H9.53396C9.85102 11.3193 10.108 11.5764 10.108 11.8934V11.8961C10.108 12.2131 9.85102 12.4701 9.53396 12.4701H7.99693C7.67987 12.4701 7.42285 12.2131 7.42285 11.8961V11.8934C7.42285 11.5764 7.67987 11.3193 7.99693 11.3193Z" fill="#3467FF"/>
</g>
<defs>
<clipPath id="clip0_14899_128082">
<rect width="20" height="20" fill="white"/>
</clipPath>
</defs>
</svg>
