<svg width="20" height="20" viewBox="0 0 20 20" fill="none" xmlns="http://www.w3.org/2000/svg">
<g clip-path="url(#clip0_14899_128075)">
<path d="M10.2917 4.45833H9.70833C9.3875 4.45833 9.125 4.19583 9.125 3.875V3.58333C9.125 3.2625 9.3875 3 9.70833 3H10.2917C10.6125 3 10.875 3.2625 10.875 3.58333V3.875C10.875 4.19583 10.6125 4.45833 10.2917 4.45833Z" fill="#3467FF"/>
<path fill-rule="evenodd" clip-rule="evenodd" d="M7.5 5L11.5 4.5L14 6.5L15 8L15.5 12L15 14V14.5L4.5 14L5 8.5L6 6L7.5 5ZM12.575 9C12.2574 9 12 9.25744 12 9.575V11.425C12 11.7426 12.2574 12 12.575 12C12.8926 12 13.15 11.7426 13.15 11.425V9.575C13.15 9.25744 12.8926 9 12.575 9Z" fill="#3467FF"/>
<path d="M15.8337 14.9582H4.16699V9.41654C4.16699 6.35404 6.67533 3.8457 9.73783 3.8457H10.2628C13.3253 3.8457 15.8337 6.35404 15.8337 9.41654V14.9582ZM5.33366 13.7915H14.667V9.41654C14.667 6.9957 12.6837 5.01237 10.2628 5.01237H9.73783C7.31699 5.01237 5.33366 6.9957 5.33366 9.41654V13.7915Z" fill="#3467FF"/>
<path d="M16.4167 14.9587H3.58333C3.2625 14.9587 3 14.6962 3 14.3753C3 14.0545 3.2625 13.792 3.58333 13.792H16.4167C16.7375 13.792 17 14.0545 17 14.3753C17 14.6962 16.7375 14.9587 16.4167 14.9587Z" fill="#3467FF"/>
<rect x="8" y="14" width="4" height="2" fill="#3467FF"/>
<path d="M10 17.0003C8.54167 17.0003 7.375 15.9503 7.375 14.667H8.54167C8.54167 15.3087 9.18333 15.8337 10 15.8337C10.8167 15.8337 11.4583 15.3087 11.4583 14.667H12.625C12.625 15.9503 11.4583 17.0003 10 17.0003Z" fill="#3467FF"/>
</g>
<defs>
<clipPath id="clip0_14899_128075">
<rect width="20" height="20" fill="white"/>
</clipPath>
</defs>
</svg>
