<svg width="40" height="40" viewBox="0 0 40 40" fill="none" xmlns="http://www.w3.org/2000/svg">
<circle cx="20" cy="20" r="20" fill="#2AD4AC"/>
<path d="M9.33967 18.7118L9.51636 21.9728C9.52329 22.1636 9.54061 22.2881 9.56833 22.3462C9.59604 22.4043 9.6584 22.4665 9.75541 22.5329L10.2959 22.9685L10.2543 24.014H7.55197L7.5 22.6574L8.06125 22.4956L8.10283 17.5916C8.10283 17.4339 8.09243 17.326 8.07165 17.268C8.05086 17.2099 8.00236 17.1435 7.92614 17.0688L7.54157 16.7203L7.61433 15.625H9.7658L12.9047 20.4419L12.7592 17.6663C12.7522 17.4671 12.7349 17.3385 12.7072 17.2804C12.6795 17.2223 12.6171 17.1601 12.5201 17.0937L11.9796 16.6705L12.0108 15.625H14.6924L14.7339 16.8946L14.2039 17.1684L14.1623 23.902L12.967 24.375L9.33967 18.7118Z" fill="white"/>
<path d="M15.2645 22.7445L16.0232 22.4956V17.7285C16.0232 17.5127 16.0094 17.3717 15.9817 17.3053C15.9539 17.2306 15.8812 17.1642 15.7634 17.1062L15.2437 16.7452L15.2749 15.625H20.9186C20.9671 16.4963 20.9914 17.3468 20.9914 18.1766L20.2222 18.2388L19.4843 17.1435L17.9149 17.0937V19.1225L20.1287 18.8985V20.8153L17.9149 20.529V22.5329L19.6402 22.4956L20.4405 21.4002L21.2096 21.4625C21.1819 22.3337 21.13 23.1843 21.0537 24.014H15.3165L15.2645 22.7445Z" fill="white"/>
<path d="M21.9713 17.0813L21.6179 16.4963L21.6595 15.625H24.6424L24.7048 16.8074L23.9565 17.0439L25.2453 21.8608L26.2742 18.0272L25.8169 16.4216L25.8585 15.625H28.6232L28.6856 16.8074L27.9996 17.0439L29.278 21.8608L30.4732 17.4547C30.494 17.3883 30.5044 17.3302 30.5044 17.2804C30.5044 17.1725 30.4594 17.102 30.3693 17.0688L29.6625 16.7203L29.7249 15.625H32.448L32.5 16.683L32.0739 17.38L29.8912 24.0638L28.0723 24.2754L26.981 20.4667L25.8585 24.0638L23.9357 24.2754L21.9713 17.0813Z" fill="white"/>
</svg>
