<svg width="16" height="16" viewBox="0 0 16 16" fill="none" xmlns="http://www.w3.org/2000/svg">
<path d="M5.4376 10.9437C5.77666 11 6.5501 11.0593 6.90791 11.0593C10.047 11.0593 12.1532 8.72339 12.1532 5.97808C12.1532 3.2312 9.52041 1.00464 6.90791 1.00464C3.76572 1.00464 1.2251 3.2312 1.2251 5.97808C1.2251 7.5687 1.83135 8.92026 2.97354 9.89214V12.3718L5.4376 10.9437ZM9.29541 5.38589C9.65479 5.38589 9.94541 5.67651 9.94541 6.03589C9.94541 6.39526 9.65479 6.68589 9.29541 6.68589C8.93604 6.68589 8.64541 6.39526 8.64541 6.03589C8.64541 5.67651 8.93604 5.38589 9.29541 5.38589ZM6.66729 5.38589C7.02666 5.38589 7.31729 5.67651 7.31729 6.03589C7.31729 6.39526 7.02666 6.68589 6.66729 6.68589C6.30791 6.68589 6.01729 6.39526 6.01729 6.03589C6.01729 5.86401 6.08604 5.69839 6.20791 5.57651C6.32979 5.45464 6.49541 5.38589 6.66729 5.38589ZM4.0626 5.38589C4.42197 5.38589 4.7126 5.67651 4.7126 6.03589C4.7126 6.39526 4.42197 6.68589 4.0626 6.68589C3.70322 6.68589 3.4126 6.39526 3.4126 6.03589C3.41416 5.67651 3.70479 5.38589 4.0626 5.38589Z" fill="#3467FF"/>
<path d="M13.0046 4.99854L13.0265 5.3751C13.0296 5.73291 13.0265 5.7001 13.0265 6.03135C13.0265 9.51729 10.2796 11.9329 6.46865 11.9329H5.15771C6.19834 12.9501 7.40928 13.572 9.09209 13.572C9.44209 13.5704 9.79365 13.5423 10.139 13.4845L12.589 14.9938V12.5142C13.9171 11.6048 14.7749 10.1923 14.7749 8.6001C14.7749 7.18135 14.0937 5.90479 13.0046 4.99854Z" fill="#3467FF"/>
</svg>
