<svg width="14" height="14" viewBox="0 0 14 14" fill="none" xmlns="http://www.w3.org/2000/svg">
<path d="M11.7239 5.41541C11.6241 5.41541 11.5229 5.37986 11.4436 5.30603L8.12543 2.02889C7.95453 1.87439 7.94222 1.61189 8.09808 1.43963C8.25394 1.26736 8.51508 1.25642 8.68734 1.41228L12.0041 4.68943C12.175 4.84392 12.1873 5.10642 12.0315 5.27869C11.9495 5.37029 11.836 5.41541 11.7239 5.41541Z" fill="#999999"/>
<path d="M11.4461 5.19663H9.22168C8.68437 5.19663 8.24961 4.75913 8.24961 4.22456V1.99878C8.24961 1.76772 8.43691 1.58179 8.6666 1.58179C8.89766 1.58179 9.08359 1.76909 9.08359 1.99878V4.22183C9.08359 4.29976 9.14785 4.36128 9.22305 4.36128H11.4461C11.6771 4.36128 11.8631 4.54858 11.8631 4.77827C11.8617 5.01069 11.6758 5.19663 11.4461 5.19663ZM9.49922 10.1964H4.49805C4.26699 10.1964 4.08105 10.0091 4.08105 9.77944C4.08105 9.54976 4.26836 9.36245 4.49805 9.36245H9.49922C9.73027 9.36245 9.91621 9.54976 9.91621 9.77944C9.91621 10.0091 9.73027 10.1964 9.49922 10.1964ZM9.49922 7.69722H4.49805C4.26699 7.69722 4.08105 7.50991 4.08105 7.28022C4.08105 7.05054 4.26836 6.86323 4.49805 6.86323H9.49922C9.73027 6.86323 9.91621 7.05054 9.91621 7.28022C9.91621 7.50991 9.73027 7.69722 9.49922 7.69722Z" fill="#999999"/>
<path d="M11.1658 12.6957H2.83145C2.29414 12.6957 1.85938 12.2596 1.85938 11.7236V2.27773C1.85938 1.74043 2.29551 1.30566 2.83145 1.30566H8.4041C8.63516 1.30566 8.82109 1.49297 8.82109 1.72266C8.82109 1.95234 8.63379 2.13965 8.4041 2.13965H2.83145C2.75352 2.13965 2.69199 2.20117 2.69199 2.2791V11.725C2.69199 11.8029 2.75352 11.8645 2.83145 11.8645H11.1658C11.2438 11.8645 11.3053 11.8029 11.3053 11.725V5.05176C11.3053 4.8207 11.4926 4.63477 11.7223 4.63477C11.952 4.63477 12.1393 4.82207 12.1393 5.05176V11.7236C12.1393 12.2609 11.7031 12.6957 11.1658 12.6957Z" fill="#999999"/>
</svg>
