<svg width="16" height="16" viewBox="0 0 16 16" fill="none" xmlns="http://www.w3.org/2000/svg">
<path d="M8 0C12.4182 0 16 3.5818 16 8C16 12.4182 12.4182 16 8 16C3.5818 16 0 12.4182 0 8C0 3.5818 3.5818 0 8 0ZM12.0236 5.9752C11.9109 5.86288 11.7583 5.7999 11.5992 5.80013C11.4401 5.80035 11.2876 5.86376 11.1752 5.9764L8.6138 8.545L7.0802 6.8742C7.02484 6.81387 6.95772 6.76551 6.88296 6.7321C6.80821 6.69868 6.72741 6.68092 6.64553 6.67991C6.56366 6.6789 6.48244 6.69466 6.40689 6.72621C6.33133 6.75777 6.26303 6.80446 6.2062 6.8634L3.9682 9.1834C3.85771 9.29792 3.79724 9.45164 3.80009 9.61075C3.80294 9.76985 3.86888 9.92131 3.9834 10.0318C4.09792 10.1423 4.25164 10.2028 4.41075 10.1999C4.56985 10.1971 4.72131 10.1311 4.8318 10.0166L6.6272 8.1554L8.1538 9.8186C8.20859 9.87831 8.2749 9.92631 8.34875 9.95969C8.42259 9.99307 8.50243 10.0112 8.58345 10.0128C8.66448 10.0145 8.745 9.99977 8.82016 9.96948C8.89533 9.93919 8.96358 9.89399 9.0208 9.8366L12.0248 6.8236C12.1371 6.71092 12.2001 6.55825 12.1999 6.39915C12.1996 6.24005 12.1362 6.08756 12.0236 5.9752Z" fill="#1890FF"/>
</svg>
