<svg width="16" height="16" viewBox="0 0 16 16" fill="none" xmlns="http://www.w3.org/2000/svg">
<g clip-path="url(#clip0_8837_104236)">
<path d="M4.19592 7.73348C3.99612 7.73348 3.86292 7.66687 3.72971 7.53367C3.59651 7.40047 3.52991 7.26726 3.52991 7.06746C3.52991 6.86765 3.59651 6.73445 3.72971 6.60125C3.79631 6.53465 3.86292 6.46805 3.92952 6.46805C4.06272 6.40144 4.26253 6.40144 4.46233 6.46805C4.52893 6.46805 4.59553 6.53465 4.66213 6.60125C4.79534 6.73445 4.86194 6.86765 4.86194 7.06746C4.86194 7.26726 4.79534 7.40047 4.66213 7.53367C4.52893 7.66687 4.32913 7.73348 4.19592 7.73348ZM6.99319 7.73348C6.92659 7.73348 6.79339 7.73348 6.72679 7.66687C6.66018 7.60027 6.59358 7.60027 6.52698 7.53367C6.39378 7.40047 6.32718 7.26726 6.32718 7.06746C6.32718 6.86765 6.39378 6.73445 6.52698 6.60125C6.79339 6.33484 7.193 6.33484 7.4594 6.60125C7.59261 6.73445 7.65921 6.86765 7.65921 7.06746C7.65921 7.26726 7.59261 7.40047 7.4594 7.53367C7.3928 7.60027 7.3262 7.66687 7.2596 7.66687C7.193 7.66687 7.05979 7.73348 6.99319 7.73348ZM9.79046 7.73348C9.72386 7.73348 9.59066 7.73348 9.52405 7.66687C9.45745 7.60027 9.39085 7.60027 9.32425 7.53367C9.19105 7.40047 9.12444 7.26726 9.12444 7.06746C9.12444 6.86765 9.19105 6.73445 9.32425 6.60125C9.59066 6.33484 9.99026 6.33484 10.2567 6.60125C10.3899 6.73445 10.4565 6.86765 10.4565 7.06746C10.4565 7.26726 10.3899 7.40047 10.2567 7.53367C10.1901 7.60027 10.1235 7.66687 10.0569 7.66687C9.99027 7.66687 9.85706 7.73348 9.79046 7.73348Z" fill="#3467FF"/>
<path d="M15.1852 12.2624C15.718 11.3966 15.9844 10.4641 15.9844 9.46512C15.9844 7.66688 15.052 6.00184 13.5201 4.93621H13.4535C12.4545 2.53855 9.92364 0.87351 6.92657 0.87351C3.13028 0.806908 0 3.60418 0 7.06746C0 8.19969 0.266407 9.19871 0.932423 10.1311L0.0666016 12.3956C0 12.5954 0 12.8618 0.199805 13.0616C0.266407 13.2614 0.466211 13.328 0.666016 13.328H0.79922L3.86289 12.7286C4.1293 12.8618 4.39571 12.9284 4.66211 12.995C5.86094 14.327 7.65919 15.1263 9.59064 15.1263C10.5897 15.1263 11.5221 14.9265 12.3879 14.5934L15.1852 15.1263H15.3184C15.5182 15.1263 15.718 15.0597 15.8512 14.8599C15.9844 14.66 16.051 14.3936 15.9844 14.1938L15.1852 12.2624ZM3.9295 11.3966H3.79629L1.66504 11.7962L2.19785 10.3309C2.26446 10.1311 2.26446 9.86473 2.13125 9.73153C1.59844 8.86571 1.33203 7.99988 1.33203 7.06746C1.33203 4.33679 3.86289 2.13894 6.99317 2.13894C10.1234 2.13894 12.6543 4.33679 12.6543 7.06746C12.6543 9.79813 10.0568 11.996 6.99317 11.996C5.99415 11.996 5.06172 11.7962 4.2625 11.3966H3.9295ZM13.8531 12.3956L14.3194 13.5944L12.5211 13.2614C12.3879 13.2614 12.2547 13.2614 12.1215 13.328C11.3889 13.661 10.5231 13.8608 9.65724 13.8608C8.85802 13.8608 8.0588 13.661 7.32618 13.328C10.9893 13.1948 13.9197 10.4641 13.9197 7.13406C14.386 7.80008 14.6524 8.5993 14.6524 9.46512C14.6524 10.2643 14.386 11.0636 13.8531 11.7962C13.7865 11.996 13.7865 12.1958 13.8531 12.3956Z" fill="#3467FF"/>
</g>
<defs>
<clipPath id="clip0_8837_104236">
<rect width="16" height="15.9844" fill="white" transform="translate(0 0.00769043)"/>
</clipPath>
</defs>
</svg>
