<svg width="14" height="14" viewBox="0 0 14 14" fill="none" xmlns="http://www.w3.org/2000/svg">
<path d="M11.1933 7.71604V8.32486C11.1842 8.3545 11.173 8.38408 11.1669 8.41438C11.1045 8.73614 11.0693 9.06631 10.975 9.37861C10.6954 10.3001 10.1715 11.0681 9.4371 11.6951C8.87065 12.179 8.23319 12.5277 7.50445 12.6993C7.26484 12.7559 7.01913 12.7892 6.77609 12.8333H6.165C6.13524 12.8242 6.10479 12.8104 6.07443 12.8084C5.42913 12.7684 4.8177 12.6011 4.24414 12.3092C3.15985 11.7594 2.37773 10.9405 2.02052 9.7626C1.94443 9.51087 1.91271 9.24697 1.85995 8.98856V8.40764C1.88295 8.26491 1.90286 8.12093 1.92995 7.97827C2.04552 7.35496 2.3237 6.80301 2.69209 6.29347C3.03957 5.81388 3.40865 5.34947 3.73818 4.85773C4.09443 4.32435 4.2668 3.73229 4.16578 3.08314C4.14587 2.9549 4.12723 2.82668 4.10764 2.6991C4.12079 2.69575 4.13399 2.69309 4.14721 2.68935C4.94247 3.51927 5.07193 4.53804 4.95835 5.63892C4.98746 5.60795 5.01179 5.58638 5.03036 5.56148C5.70535 4.65247 5.99531 3.64825 5.77527 2.52344C5.63543 1.80795 5.33286 1.16474 4.83232 0.630027C4.61495 0.398479 4.35199 0.209023 4.10964 0H4.35977C4.38037 0.00840811 4.39967 0.0229001 4.42058 0.0248996C4.86066 0.0625481 5.27405 0.197864 5.66785 0.388055C6.56852 0.822183 7.29862 1.46397 7.90938 2.24683C8.80709 3.39877 9.39082 4.67668 9.50642 6.14807C9.55073 6.70975 9.4932 7.25563 9.34284 7.79414C9.28605 7.99809 9.20593 8.19529 9.13259 8.40763C9.4239 8.28412 9.64534 8.09535 9.81637 7.85068C10.3264 7.11936 10.469 6.30386 10.3534 5.40231C10.391 5.4457 10.4102 5.46286 10.4234 5.48436C10.7306 5.96767 10.9605 6.48323 11.0805 7.04358C11.1281 7.26537 11.1558 7.49227 11.1933 7.71604ZM6.38837 6.6438C6.37691 6.65189 6.36436 6.6603 6.35257 6.66838C6.33668 6.89055 6.32482 7.11298 6.30323 7.33508C6.27144 7.674 6.18999 8.00077 6.03076 8.30471C5.83607 8.67694 5.51064 8.90846 5.14994 9.09258C4.76096 9.29244 4.51592 9.57789 4.48413 10.0285C4.45103 10.4919 4.59094 10.8813 4.96611 11.1661C5.31762 11.4325 5.72827 11.5195 6.16357 11.505C6.85854 11.4824 7.37631 11.1536 7.58388 10.461C7.73293 9.9639 7.70859 9.46343 7.60889 8.96302C7.47265 8.2771 7.22318 7.6377 6.79632 7.07735C6.67639 6.92078 6.52494 6.78785 6.38837 6.6438Z" fill="#FFA15F"/>
</svg>
