<svg width="14" height="14" viewBox="0 0 14 14" fill="none" xmlns="http://www.w3.org/2000/svg">
<path d="M10.7199 3.28012C10.3464 2.90663 9.74071 2.90663 9.36719 3.28012L6.99679 5.65058L4.65643 3.31006C4.28433 2.93795 3.68111 2.93795 3.30902 3.31006C2.93703 3.68225 2.93694 4.28549 3.30893 4.6576L5.64928 6.99801L3.28019 9.36731C2.9066 9.7408 2.9066 10.3462 3.28019 10.7197C3.65357 11.0933 4.25929 11.0933 4.63288 10.7197L7.00188 8.35077L9.37218 10.7212C9.74435 11.0929 10.3476 11.0929 10.7196 10.7212C11.0917 10.3491 11.0917 9.7458 10.7196 9.37369L8.34929 7.00321L10.7199 4.63264C11.0934 4.25906 11.0934 3.65361 10.7199 3.28012Z" fill="#FF7C71"/>
</svg>
