<svg width="20" height="14" viewBox="0 0 20 14" fill="none" xmlns="http://www.w3.org/2000/svg">
<path d="M3.51249 10.5C2.33099 10.5 1.44841 10.2204 0.864778 9.6612C0.288259 9.102 0 8.25321 0 7.11484C0 6.37589 0.145909 5.7368 0.437727 5.19757C0.729545 4.65169 1.14592 4.23229 1.68685 3.93937C2.22778 3.64646 2.87192 3.5 3.61926 3.5C5.99651 3.5 7.18513 4.63505 7.18513 6.90514C7.18513 7.65074 7.03922 8.29315 6.74741 8.83238C6.45559 9.37161 6.0321 9.78436 5.47693 10.0706C4.92888 10.3569 4.27407 10.5 3.51249 10.5ZM3.7367 9.12197C4.14239 9.12197 4.5303 9.02544 4.90041 8.83238C4.9787 8.62601 5.0392 8.36971 5.08191 8.06348C5.12461 7.75059 5.14596 7.44437 5.14596 7.14479C5.14596 6.40585 4.9965 5.84665 4.69756 5.46719C4.40574 5.08773 3.97513 4.898 3.40573 4.898C3.00003 4.898 2.60857 4.9679 2.23134 5.1077C2.15305 5.23419 2.09255 5.44389 2.04984 5.7368C2.00714 6.02306 1.98579 6.35259 1.98579 6.72539C1.98579 7.49762 2.13525 8.09011 2.43419 8.50285C2.73313 8.9156 3.1673 9.12197 3.7367 9.12197Z" fill="#8668FF"/>
<path d="M7.62194 9.34165L8.40131 9.14194V5.3174C8.40131 5.14432 8.38708 5.03115 8.35861 4.97789C8.33014 4.91797 8.2554 4.86472 8.1344 4.81812L7.60059 4.52853L7.63262 3.62981H13.4298C13.4797 4.32882 13.5046 5.01117 13.5046 5.67689L12.7145 5.72682L11.9565 4.84807L10.3444 4.80813V6.58559L12.6184 6.39586V7.93367L10.3444 7.70399V8.74251C10.3444 8.90228 10.3551 9.00547 10.3764 9.05207C10.4049 9.09867 10.4725 9.14527 10.5793 9.19187L11.2198 9.55136L11.1878 10.3602H7.67532L7.62194 9.34165Z" fill="#8668FF"/>
<path d="M14.1174 9.34165L14.8967 9.14194V5.3174C14.8967 5.14432 14.8825 5.03115 14.854 4.97789C14.8256 4.91797 14.7508 4.86472 14.6298 4.81812L14.096 4.52853L14.128 3.62981H19.9253C19.9751 4.32882 20 5.01117 20 5.67689L19.21 5.72682L18.4519 4.84807L16.8398 4.80813V6.58559L19.1139 6.39586V7.93367L16.8398 7.70399V8.74251C16.8398 8.90228 16.8505 9.00547 16.8719 9.05207C16.9003 9.09867 16.9679 9.14527 17.0747 9.19187L17.7153 9.55136L17.6832 10.3602H14.1708L14.1174 9.34165Z" fill="#8668FF"/>
</svg>
