<svg width="120" height="90" viewBox="0 0 120 90" fill="none" xmlns="http://www.w3.org/2000/svg">
<g id="Group 1750">
<g id="Group 1737">
<path id="Vector" d="M101.848 38.0961C102.759 38.0961 103.497 37.3582 103.497 36.448C103.497 35.5377 102.759 34.7998 101.848 34.7998C100.938 34.7998 100.2 35.5377 100.2 36.448C100.2 37.3582 100.938 38.0961 101.848 38.0961Z" fill="#EAEEF9"/>
<path id="Vector_2" d="M94.7259 22.6511C95.3476 22.6511 95.8515 22.1471 95.8515 21.5255C95.8515 20.9038 95.3476 20.3999 94.7259 20.3999C94.1043 20.3999 93.6003 20.9038 93.6003 21.5255C93.6003 22.1471 94.1043 22.6511 94.7259 22.6511Z" fill="#EAEEF9"/>
<path id="Vector_3" d="M25.7645 42.1979C26.3861 42.1979 26.8901 41.694 26.8901 41.0724C26.8901 40.4507 26.3861 39.9468 25.7645 39.9468C25.1429 39.9468 24.6389 40.4507 24.6389 41.0724C24.6389 41.694 25.1429 42.1979 25.7645 42.1979Z" fill="#EAEEF9"/>
<path id="Vector_4" d="M18.8907 56.3809C20.0451 56.3809 20.981 55.445 20.981 54.2906C20.981 53.1361 20.0451 52.2002 18.8907 52.2002C17.7362 52.2002 16.8003 53.1361 16.8003 54.2906C16.8003 55.445 17.7362 56.3809 18.8907 56.3809Z" fill="#EAEEF9"/>
<path id="Vector_5" d="M66.2607 13.4867L68.3979 10.2002" stroke="#333333" stroke-width="2" stroke-miterlimit="10"/>
<path id="Vector_6" d="M60.9922 12.9803L61.5002 4.2002" stroke="#333333" stroke-width="2" stroke-miterlimit="10"/>
<path id="Vector_7" d="M55.6551 13.0922L52.3315 7.7998" stroke="#333333" stroke-width="2" stroke-miterlimit="10"/>
<path id="Rectangle 1273" d="M68.8503 17H68.2777L67.9879 17.4938L63.9379 24.3938L63.6553 24.8753L63.9168 25.3685L66.2806 29.8258L59.6249 41.1891L60.3958 33.0948L60.4348 32.6852L60.1742 32.3668L54.8943 25.9135L52.2523 17.694L52.0293 17H51.3003H42.8003C37.8297 17 33.8003 21.0294 33.8003 26V73C33.8003 77.9706 37.8297 82 42.8003 82H79.6003C84.5709 82 88.6003 77.9706 88.6003 73V33.8469C88.6003 31.306 87.5263 28.8835 85.6433 27.1774L76.9831 19.3305C75.3277 17.8307 73.1738 17 70.94 17H68.8503Z" fill="white" stroke="#151515" stroke-width="2"/>
<path id="Polygon 9" d="M77.503 30.9054C75.2928 30.9068 73.5004 29.1154 73.5005 26.9053L73.5009 17.3989L88.3179 30.8989L77.503 30.9054Z" fill="#333333"/>
<g id="Mask group">
<mask id="mask0_16728_90772" style="mask-type:alpha" maskUnits="userSpaceOnUse" x="34" y="18" width="54" height="63">
<path id="Rectangle 1276" d="M42.8003 81H79.6003C84.0186 81 87.6003 77.4183 87.6003 73V33.8469C87.6003 31.5883 86.6456 29.435 84.9719 27.9185L76.3116 20.0716C74.8402 18.7384 72.9256 18 70.94 18H68.8503L64.8003 24.9L67.4253 29.85L58.2003 45.6L59.4003 33L54.0003 26.4L51.3003 18H42.8003C38.382 18 34.8003 21.5817 34.8003 26V73C34.8003 77.4183 38.382 81 42.8003 81Z" fill="#D9D9D9"/>
</mask>
<g mask="url(#mask0_16728_90772)">
<rect id="Rectangle 1274" x="39.0005" y="24" width="19.2" height="3.6" rx="1.8" fill="#D9D9D9"/>
<rect id="Rectangle 1275" x="39.0005" y="30" width="14.4" height="3.6" rx="1.8" fill="#D9D9D9"/>
</g>
</g>
<g id="Group 1736">
<g id="Union">
<mask id="path-13-inside-1_16728_90772" fill="white">
<path fill-rule="evenodd" clip-rule="evenodd" d="M55.2861 57.5816C55.7547 58.0502 56.5145 58.0502 56.9831 57.5816C57.4518 57.113 57.4518 56.3532 56.9831 55.8845L55.2857 54.1871L56.9827 52.49C57.4513 52.0214 57.4513 51.2616 56.9827 50.793C56.5141 50.3243 55.7543 50.3243 55.2856 50.793L53.5886 52.49L51.892 50.7934C51.4233 50.3247 50.6635 50.3247 50.1949 50.7934C49.7263 51.262 49.7263 52.0218 50.1949 52.4904L51.8915 54.1871L50.1945 55.8841C49.7258 56.3528 49.7258 57.1126 50.1945 57.5812C50.6631 58.0498 51.4229 58.0498 51.8915 57.5812L53.5886 55.8841L55.2861 57.5816Z"/>
</mask>
<path fill-rule="evenodd" clip-rule="evenodd" d="M55.2861 57.5816C55.7547 58.0502 56.5145 58.0502 56.9831 57.5816C57.4518 57.113 57.4518 56.3532 56.9831 55.8845L55.2857 54.1871L56.9827 52.49C57.4513 52.0214 57.4513 51.2616 56.9827 50.793C56.5141 50.3243 55.7543 50.3243 55.2856 50.793L53.5886 52.49L51.892 50.7934C51.4233 50.3247 50.6635 50.3247 50.1949 50.7934C49.7263 51.262 49.7263 52.0218 50.1949 52.4904L51.8915 54.1871L50.1945 55.8841C49.7258 56.3528 49.7258 57.1126 50.1945 57.5812C50.6631 58.0498 51.4229 58.0498 51.8915 57.5812L53.5886 55.8841L55.2861 57.5816Z" fill="#A8C5FF"/>
<path d="M55.2861 57.5816L55.9932 56.8745L55.2861 57.5816ZM56.9831 55.8845L56.276 56.5916L56.9831 55.8845ZM55.2857 54.1871L54.5786 53.4799L53.8714 54.1871L54.5786 54.8942L55.2857 54.1871ZM55.2856 50.793L54.5785 50.0859L55.2856 50.793ZM53.5886 52.49L52.8815 53.1971L53.5886 53.9042L54.2957 53.1971L53.5886 52.49ZM50.1949 52.4904L49.4878 53.1975L49.4878 53.1975L50.1949 52.4904ZM51.8915 54.1871L52.5987 54.8942L53.3058 54.1871L52.5987 53.4799L51.8915 54.1871ZM50.1945 55.8841L50.9016 56.5912L50.1945 55.8841ZM51.8915 57.5812L51.1844 56.8741L51.8915 57.5812ZM53.5886 55.8841L54.2957 55.177L53.5886 54.4699L52.8815 55.177L53.5886 55.8841ZM56.276 56.8745C56.1979 56.9526 56.0713 56.9526 55.9932 56.8745L54.579 58.2887C55.4381 59.1479 56.8311 59.1479 57.6902 58.2887L56.276 56.8745ZM56.276 56.5916C56.3541 56.6697 56.3541 56.7964 56.276 56.8745L57.6902 58.2887C58.5494 57.4295 58.5494 56.0366 57.6902 55.1774L56.276 56.5916ZM54.5786 54.8942L56.276 56.5916L57.6902 55.1774L55.9928 53.4799L54.5786 54.8942ZM56.2756 51.7829L54.5786 53.4799L55.9928 54.8942L57.6898 53.1971L56.2756 51.7829ZM56.2756 51.5001C56.3537 51.5782 56.3537 51.7048 56.2756 51.7829L57.6898 53.1971C58.549 52.338 58.549 50.945 57.6898 50.0859L56.2756 51.5001ZM55.9927 51.5001C56.0708 51.422 56.1975 51.422 56.2756 51.5001L57.6898 50.0859C56.8306 49.2267 55.4377 49.2267 54.5785 50.0859L55.9927 51.5001ZM54.2957 53.1971L55.9927 51.5001L54.5785 50.0859L52.8815 51.7829L54.2957 53.1971ZM51.1849 51.5005L52.8815 53.1971L54.2957 51.7829L52.5991 50.0863L51.1849 51.5005ZM50.902 51.5005C50.9801 51.4224 51.1068 51.4224 51.1849 51.5005L52.5991 50.0863C51.7399 49.2271 50.347 49.2271 49.4878 50.0863L50.902 51.5005ZM50.902 51.7833C50.8239 51.7052 50.8239 51.5786 50.902 51.5005L49.4878 50.0863C48.6287 50.9454 48.6287 52.3384 49.4878 53.1975L50.902 51.7833ZM52.5987 53.4799L50.902 51.7833L49.4878 53.1975L51.1844 54.8942L52.5987 53.4799ZM50.9016 56.5912L52.5987 54.8942L51.1844 53.4799L49.4874 55.177L50.9016 56.5912ZM50.9016 56.8741C50.8235 56.796 50.8235 56.6693 50.9016 56.5912L49.4874 55.177C48.6282 56.0362 48.6282 57.4291 49.4874 58.2883L50.9016 56.8741ZM51.1844 56.8741C51.1063 56.9522 50.9797 56.9522 50.9016 56.8741L49.4874 58.2883C50.3465 59.1474 51.7395 59.1474 52.5986 58.2883L51.1844 56.8741ZM52.8815 55.177L51.1844 56.8741L52.5986 58.2883L54.2957 56.5912L52.8815 55.177ZM55.9932 56.8745L54.2957 55.177L52.8815 56.5912L54.579 58.2887L55.9932 56.8745Z" fill="#3467FF" mask="url(#path-13-inside-1_16728_90772)"/>
</g>
<g id="Union_2">
<mask id="path-15-inside-2_16728_90772" fill="white">
<path fill-rule="evenodd" clip-rule="evenodd" d="M70.8857 57.5821C71.3543 58.0507 72.1141 58.0507 72.5827 57.5821C73.0514 57.1135 73.0514 56.3537 72.5827 55.885L70.8853 54.1875L72.5823 52.4905C73.0509 52.0219 73.0509 51.2621 72.5823 50.7934C72.1137 50.3248 71.3539 50.3248 70.8852 50.7934L69.1882 52.4905L67.4916 50.7939C67.023 50.3252 66.2632 50.3252 65.7945 50.7939C65.3259 51.2625 65.3259 52.0223 65.7945 52.4909L67.4912 54.1875L65.7941 55.8846C65.3254 56.3532 65.3254 57.113 65.7941 57.5817C66.2627 58.0503 67.0225 58.0503 67.4911 57.5817L69.1882 55.8846L70.8857 57.5821Z"/>
</mask>
<path fill-rule="evenodd" clip-rule="evenodd" d="M70.8857 57.5821C71.3543 58.0507 72.1141 58.0507 72.5827 57.5821C73.0514 57.1135 73.0514 56.3537 72.5827 55.885L70.8853 54.1875L72.5823 52.4905C73.0509 52.0219 73.0509 51.2621 72.5823 50.7934C72.1137 50.3248 71.3539 50.3248 70.8852 50.7934L69.1882 52.4905L67.4916 50.7939C67.023 50.3252 66.2632 50.3252 65.7945 50.7939C65.3259 51.2625 65.3259 52.0223 65.7945 52.4909L67.4912 54.1875L65.7941 55.8846C65.3254 56.3532 65.3254 57.113 65.7941 57.5817C66.2627 58.0503 67.0225 58.0503 67.4911 57.5817L69.1882 55.8846L70.8857 57.5821Z" fill="#A8C5FF"/>
<path d="M70.8857 57.5821L71.5928 56.875L70.8857 57.5821ZM72.5827 55.885L71.8756 56.5921L72.5827 55.885ZM70.8853 54.1875L70.1782 53.4804L69.4711 54.1875L70.1782 54.8946L70.8853 54.1875ZM72.5823 52.4905L71.8752 51.7834L72.5823 52.4905ZM70.8852 50.7934L71.5924 51.5006L70.8852 50.7934ZM69.1882 52.4905L68.4811 53.1976L69.1882 53.9047L69.8953 53.1976L69.1882 52.4905ZM67.4916 50.7939L68.1987 50.0867L68.1987 50.0867L67.4916 50.7939ZM65.7945 52.4909L65.0874 53.198L65.0874 53.198L65.7945 52.4909ZM67.4912 54.1875L68.1983 54.8946L68.9054 54.1875L68.1983 53.4804L67.4912 54.1875ZM65.7941 55.8846L65.087 55.1775L65.7941 55.8846ZM67.4911 57.5817L66.784 56.8746L67.4911 57.5817ZM69.1882 55.8846L69.8953 55.1775L69.1882 54.4704L68.4811 55.1775L69.1882 55.8846ZM71.8756 56.875C71.7975 56.9531 71.6709 56.9531 71.5928 56.875L70.1786 58.2892C71.0377 59.1483 72.4307 59.1483 73.2899 58.2892L71.8756 56.875ZM71.8756 56.5921C71.9537 56.6702 71.9537 56.7969 71.8756 56.875L73.2899 58.2892C74.149 57.43 74.149 56.0371 73.2899 55.1779L71.8756 56.5921ZM70.1782 54.8946L71.8756 56.5921L73.2899 55.1779L71.5924 53.4804L70.1782 54.8946ZM71.8752 51.7834L70.1782 53.4804L71.5924 54.8946L73.2894 53.1976L71.8752 51.7834ZM71.8752 51.5006C71.9533 51.5787 71.9533 51.7053 71.8752 51.7834L73.2894 53.1976C74.1486 52.3385 74.1486 50.9455 73.2894 50.0863L71.8752 51.5006ZM71.5924 51.5006C71.6705 51.4225 71.7971 51.4225 71.8752 51.5006L73.2894 50.0863C72.4303 49.2272 71.0373 49.2272 70.1781 50.0863L71.5924 51.5006ZM69.8953 53.1976L71.5924 51.5006L70.1781 50.0863L68.4811 51.7834L69.8953 53.1976ZM66.7845 51.501L68.4811 53.1976L69.8953 51.7834L68.1987 50.0867L66.7845 51.501ZM66.5016 51.501C66.5797 51.4229 66.7064 51.4229 66.7845 51.501L68.1987 50.0867C67.3395 49.2276 65.9466 49.2276 65.0874 50.0867L66.5016 51.501ZM66.5016 51.7838C66.4235 51.7057 66.4235 51.5791 66.5016 51.501L65.0874 50.0867C64.2283 50.9459 64.2283 52.3389 65.0874 53.198L66.5016 51.7838ZM68.1983 53.4804L66.5016 51.7838L65.0874 53.198L66.784 54.8946L68.1983 53.4804ZM66.5012 56.5917L68.1983 54.8946L66.784 53.4804L65.087 55.1775L66.5012 56.5917ZM66.5012 56.8746C66.4231 56.7965 66.4231 56.6698 66.5012 56.5917L65.087 55.1775C64.2278 56.0367 64.2278 57.4296 65.087 58.2888L66.5012 56.8746ZM66.784 56.8746C66.7059 56.9527 66.5793 56.9527 66.5012 56.8746L65.087 58.2888C65.9461 59.1479 67.3391 59.1479 68.1982 58.2888L66.784 56.8746ZM68.4811 55.1775L66.784 56.8746L68.1982 58.2888L69.8953 56.5917L68.4811 55.1775ZM71.5928 56.875L69.8953 55.1775L68.4811 56.5917L70.1786 58.2892L71.5928 56.875Z" fill="#3467FF" mask="url(#path-15-inside-2_16728_90772)"/>
</g>
<path id="Vector 647" d="M53.2891 68.888C55.2891 66.488 63.1891 62.8881 69.7891 68.888" stroke="#3467FF" stroke-width="4" stroke-linecap="round"/>
</g>
</g>
</g>
</svg>
