<svg width="20" height="20" viewBox="0 0 20 20" fill="none" xmlns="http://www.w3.org/2000/svg">
<path d="M16.875 12.5644L15.3612 11.5281V9.07938L16.875 8.05313V12.5644ZM3.75 14.3744V5.62563H10H14.1112V8.72C14.1106 8.73 14.1075 8.74 14.1075 8.75V13.75C14.1075 13.7575 14.1119 13.7637 14.1119 13.7712V14.375L3.75 14.3744ZM17.7931 6.32312C17.6928 6.26975 17.5799 6.24475 17.4665 6.2508C17.353 6.25686 17.2434 6.29375 17.1494 6.3575L15.3612 7.56938V5.62563C15.3611 5.29421 15.2294 4.97639 14.9952 4.74192C14.761 4.50746 14.4433 4.3755 14.1119 4.375H3.74938C3.41796 4.3755 3.10027 4.50746 2.86604 4.74192C2.63181 4.97639 2.50017 5.29421 2.5 5.62563V14.3744C2.5 15.0644 3.06063 15.625 3.74938 15.625H14.1119C14.4433 15.6245 14.761 15.4925 14.9952 15.2581C15.2294 15.0236 15.3611 14.7058 15.3612 14.3744V13.5425L15.3687 13.0481L17.1469 14.2656C17.2408 14.3299 17.3504 14.3673 17.464 14.3739C17.5776 14.3805 17.6908 14.3559 17.7915 14.3028C17.8921 14.2498 17.9764 14.1702 18.0351 14.0728C18.0939 13.9754 18.125 13.8638 18.125 13.75V6.875C18.125 6.76155 18.0941 6.65025 18.0356 6.55303C17.9771 6.45581 17.8933 6.37633 17.7931 6.32312Z" fill="#999999"/>
<path d="M5.9375 6.875C5.81434 6.87504 5.6924 6.89934 5.57864 6.94651C5.46487 6.99367 5.36151 7.06279 5.27446 7.1499C5.09864 7.32583 4.99992 7.5644 5 7.81313C5.00004 7.93628 5.02434 8.05822 5.07151 8.17199C5.11867 8.28575 5.18779 8.38911 5.2749 8.47617C5.45083 8.65198 5.6894 8.75071 5.93813 8.75063C6.18685 8.75054 6.42535 8.65166 6.60117 8.47573C6.77698 8.29979 6.87571 8.06122 6.87563 7.8125C6.87554 7.56378 6.77666 7.32527 6.60072 7.14946C6.42479 6.97364 6.18622 6.87492 5.9375 6.875Z" fill="#999999"/>
</svg>
